{
.appVersion = "3091";
.formatVersion = 3;
DisplayStrings = (
"/dotaccentcomb.case/dieresiscomb.case/gravecomb.case/acutecomb.case/hungarumlautcomb.case/circumflexcomb.case/caroncomb.case/brevecomb.case/ringcomb.case/tildecomb.case/macroncomb.case/hookabovecomb.case/dblgravecomb.case/breveinvertedcomb.case/commaturnedabovecomb.case/horncomb.case AÁĂẮẶẰẲẴÂẤẬ/circumflexcomb.case ẦẨẪȀÄẠÀẢȂĀĄÅǺÃÆǼBCĆČÇĈĊDǄÐĎĐǅEÉĔĚÊẾỆỀỂỄȄËĖẸÈẺȆĒĘẼFGĞǦĜĢĠHĦĤIÍĬÎȈÏİỊÌỈȊĪĮĨJĴKĶLǇĹĽĻĿǈŁMNǊŃŇŅǋÑ
ŊOÓŎÔỐỘỒỔỖȌÖȪȰỌÒỎƠỚỢỜỞỠŐȎŌǪ
0ØǾÕȬŒPÞQRŔŘŖȐȒSŚŠŞŜȘẞƏTŦŤŢȚUÚŬÛȔÜỤÙỦƯƯỨỰỪỬỮŰȖŪŲŮŨVWẂŴẄẀXYÝŶŸỴỲỶȲỸZŹŽŻ",
"̈̇̀́̋/caroncomb.alt ̛̣̤̂̌̆̊̃̄̉̏̑̒,̵̧̨̦̮̱
aáăắặằẳẵâấậầẩẫȁäạàảȃāąåǻãæǽbcćčçĉċdðďđǆeéĕěêếệềểễȅëėẹèẻȇ̄ēęẽeəfgğǧĝģġhħĥıíĭîȉï/idotaccent ịìỉȋīįĩȷĵkķĸlĺľļŀǉłmnńňņǌñŋoóŏôốộồổỗȍ
̈oȫȫȱọòỏơớợờởỡőȏōǫøǿõ̃ȭœpþqrŕřŗȑȓsśšşŝșscheißetŧťţțuúŭûȕüụùửưứựừửữűȗūųůũvwẃŵẅẁxyýŷÿỵỳỷȳỹzźžż",
"⟨⟩•#///backslash emi-nrtdash EN-CORE­–—‐_(){}[]«»‹›&¶5°|¦†‡¢$14€₤∙+43−2=1×
.6÷3=0≠><≥≤±33≈47~5o%‰",
djingrejuvenatenjalj,
"0123456789/zero.lf/one.lf/two.lf/three.lf/four.lf/five.lf/six.lf/seven.lf/eight.lf/nine.lf ¹²³⁴⁄½¼¾\015 ⟨⟩.,:;…!¡?¿·•*#///backslash/periodcentered.loclCAT -­–—‐_(){}[]‚„“”‘’«»‹›\"'ƒ@&¶§©®™°′″|¦†‡№₵¢₡¤$₫€₣₲₭₤₺₼₦₧₱₽₹£₩¥∙⁒∕+−×÷=≠><≥≤±≈~¬^µ%‰",
"₵$",
"-+±1≈~//o%‰&8
1+1=2
2-1=1-3-4-5-6-7-8-9-0
H+H-Hn-n
2≈ex-partner
1234567890"
);
axes = (
{
name = Weight;
tag = wght;
},
{
name = Width;
tag = wdth;
},
{
name = Color;
tag = COLR;
}
);
customParameters = (
{
disabled = 1;
name = "Color Palettes";
value = (
(
(222,255)
)
);
},
{
name = fsType;
value = (
);
},
{
name = vendorID;
value = STAI;
},
{
name = "Use Typo Metrics";
value = 1;
}
);
date = "2021-06-03 13:29:50 +0000";
familyName = Foldit;
featurePrefixes = (
{
automatic = 1;
code = "languagesystem DFLT dflt;

languagesystem latn dflt;
languagesystem latn CAT;
";
name = Languagesystems;
}
);
features = (
{
automatic = 1;
code = "feature locl;
feature sups;
feature frac;
feature ordn;
feature pnum;
feature tnum;
";
tag = aalt;
},
{
automatic = 1;

glyphs = (
{
glyphname = A;
lastChange = "2021-11-17 12:52:25 +0000";
layers = (
{
anchors = (
{
name = bottom;
pos = (135,0);
},
{
name = top;
pos = (138,700);
}
);
attr = {
color = "1";
};
layerId = "33AE93C6-B8B3-427A-A53B-F24970E840CE";
shapes = (
{
attr = {
gradient = {
colors = (
(
(64,255),
0
),
(
(191,255),
1
)
);
end = (0.5074,0.9658);
start = (0.6091,0.0797);
};
};
closed = 1;
nodes = (
(76,700,l),
(77,700,l),
(77,0,l),
(53,0,l),
(53,677,l)
);
},
{
attr = {
gradient = {
colors = (
(
(64,255),
0
),
(
(191,255),
1
)
);
end = (0.8878,0.5878);
start = (0.0693,0.513);
};
};
closed = 1;
nodes = (
(220,677,l),
(220,676,l),
(77,676,l),
(77,700,l),
(197,700,l)
);
},
{
attr = {
gradient = {
colors = (
(
(64,255),
0
),
(
(191,255),
0.50056
),
(
(64,255),
1
)
);
end = (1.2582,0.0143);
start = (-0.3003,0.8873);
};
};
closed = 1;
nodes = (
(197,0,l),
(196,0,l),
(196,676,l),
(220,676,l),
(220,0,l)
);
},
{
attr = {
gradient = {
colors = (
(
(191,255),
0
),
(
(64,255),
1
)
);
end = (0.8878,0.5878);
start = (0.0693,0.513);
};
};
closed = 1;
nodes = (
(77,353,l),
(77,376,l),
(77,377,l),
(196,377,l),
(196,353,l)
);
}
);
width = 273;
},
{
anchors = (
{
name = bottom;
pos = (452,0);
},
{
name = top;
pos = (476,730);
}
);
attr = {
color = "1";
};
layerId = "E87239EE-82B8-404C-B23A-53843E270889";
shapes = (
{
attr = {
gradient = {
colors = (
(
(64,255),
0
),
(
(191,255),
1
)
);
end = (0.4877,0.9217);
start = (0.4155,-0.0037);
};
};
closed = 1;
nodes = (
(278,730,l),
(279,730,l),
(279,0,l),
(25,0,l),
(25,523,l)
);
},
{
attr = {
gradient = {
colors = (
(
(64,255),
0
),
(
(191,255),
1
)
);
end = (0.8878,0.5878);
start = (0.0693,0.513);
};
};
closed = 1;
nodes = (
(882,487,l),
(882,486,l),
(279,486,l),
(279,730,l),
(680,730,l)
);
},
{
attr = {
gradient = {
colors = (
(
(64,255),
0
),
(
(191,255),
1
)
);
end = (0.3691,0.1797);
start = (0.4192,0.8964);
};
};
closed = 1;
nodes = (
(628,0,l),
(628,486,l),
(629,486,l),
(882,486,l),
(882,0,l)
);
},
{
attr = {
gradient = {
colors = (
(
(64,255),
0
),
(
(191,255),
1
)
);
end = (0.0383,0.0895);
start = (0.8943,0.4519);
};
};
closed = 1;
nodes = (
(279,173,l),
(279,417,l),
(628,417,l),
(628,416,l),
(628,173,l)
);
}
);
width = 907;
}
);
metricRight = "=|";
unicode = 65;
},
{
glyphname = AE;
lastChange = "2021-11-30 13:38:59 +0000";
layers = (
{
anchors = (
{
name = top;
pos = (138,700);
}
);
attr = {
color = 1;
};
layerId = "33AE93C6-B8B3-427A-A53B-F24970E840CE";
shapes = (
{
attr = {
gradient = {
colors = (
(
(191,255),
0
),
(
(64,255),
1
)
);
end = (0.8878,0.5878);
start = (0.0693,0.513);
};
};
closed = 1;
nodes = (
(77,353,l),
(77,377,l),
(196,377,l),
(196,353,l)
);
},
{
attr = {
gradient = {
colors = (
(
(64,255),
0
),
(
(191,255),
1
)
);
end = (0.5074,0.9658);
start = (0.6091,0.0797);
};
};
closed = 1;
nodes = (
(53,0,l),
(53,677,l),
(76,700,l),
(77,700,l),
(77,0,l)
);
},
{
attr = {
gradient = {
colors = (
(
(64,255),
0
),
(
(191,255),
1
)
);
end = (0.8878,0.5878);
start = (0.0693,0.513);
};
};
closed = 1;
nodes = (
(363,699,l),
(340,676,l),
(220,676,l),
(197,700,l),
(363,700,l)
);
},
{
attr = {
gradient = {
colors = (
(
(64,255),
0
),
(
(191,255),
1
)
);
end = (0.8878,0.5878);
start = (0.0693,0.513);
};
};
closed = 1;
nodes = (
(220,353,l),
(220,377,l),
(339,377,l),
(339,353,l)
);
},
{
attr = {
gradient = {
colors = (
(
(191,255),
0
),
(
(64,255),
1
)
);
end = (0.8878,0.5878);
start = (0.0693,0.513);
};
};
closed = 1;
nodes = (
(363,0,l),
(220,0,l),
(196,23,l),
(196,24,l),
(363,24,l)
);
},
{
attr = {
gradient = {
colors = (
(
(64,255),
0
),
(
(191,255),
0.50056
),
(
(64,255),
1
)
);
end = (1.2582,0.0143);
start = (-0.3003,0.8873);
};
};
closed = 1;
nodes = (
(196,24,l),
(196,676,l),
(220,676,l),
(220,24,l)
);
},
{
attr = {
gradient = {
colors = (
(
(64,255),
0
),
(
(191,255),
1
)
);
end = (0.8878,0.5878);
start = (0.0693,0.513);
};
};
closed = 1;
nodes = (
(220,677,l),
(220,676,l),
(77,676,l),
(77,700,l),
(197,700,l)
);
}
);
width = 416;
},
{
anchors = (
{
name = top;
pos = (476,730);
}
);
attr = {
color = 1;
};
layerId = "E87239EE-82B8-404C-B23A-53843E270889";
shapes = (
{
attr = {
gradient = {
colors = (
(
(64,255),
0
),
(
(191,255),
1
)
);
end = (0.0383,0.0895);
start = (0.8943,0.4519);
};
};
closed = 1;
nodes = (
(279,173,l),
(279,417,l),
(588,417,l),
(651,173,l)
);
},
{
attr = {
gradient = {
colors = (
(
(64,255),
0
),
(
(191,255),
1
)
);
end = (0.4877,0.9217);
start = (0.4155,-0.0037);
};
};
closed = 1;
nodes = (
(25,0,l),
(25,523,l),
(278,730,l),
(279,730,l),
(279,0,l)
);
},
{
attr = {
gradient = {
colors = (
(
(64,255),
0
),
(
(191,255),
1
)
);
end = (0.7292,0.9344);
start = (0.1098,0.591);
};
};
closed = 1;
nodes = (
(1366,729,l),
(1164,486,l),
(842,486,l),
(640,730,l),
(1366,730,l)
);
},
{
attr = {
gradient = {
colors = (
(
(64,255),
0
),
(
(191,255),
1
)
);
end = (0.8437,0.8454);
start = (0.2604,0.1278);
};
};
closed = 1;
nodes = (
(842,263,l),
(842,467,l),
(1202,467,l),
(1202,263,l)
);
},
{
attr = {
gradient = {
colors = (
(
(64,255),
0
),
(
(191,255),
1
)
);
end = (0.1064,0.7118);
start = (0.9731,0.0568);
};
};
closed = 1;
nodes = (
(1315,0,l),
(790,0,l),
(588,243,l),
(588,244,l),
(1315,244,l)
);
},
{
attr = {
gradient = {
colors = (
(
(64,255),
0
),
(
(191,255),
1
)
);
end = (0.991,0.2053);
start = (0.0523,0.7174);
};
};
closed = 1;
nodes = (
(588,244,l),
(588,486,l),
(842,486,l),
(842,244,l)
);
},
{
attr = {
gradient = {
colors = (
(
(64,255),
0
),
(
(191,255),
1
)
);
end = (0.713,0.9264);
start = (0.0306,0.307);
};
};
closed = 1;
nodes = (
(842,487,l),
(842,486,l),
(279,486,l),
(279,730,l),
(640,730,l)
);
}
);
width = 1391;
}
);
unicode = 198;
},
{
glyphname = B;
lastChange = "2021-11-04 13:56:48 +0000";
layers = (
{
attr = {
color = 1;
};
layerId = "33AE93C6-B8B3-427A-A53B-F24970E840CE";
shapes = (
{
attr = {
gradient = {
colors = (
(
(191,255),
0
),
(
(64,255),
1
)
);
end = (0.5245,0.827);
start = (0.8235,0.1183);
};
};
closed = 1;
nodes = (
(226,0,l),
(226,0,l),
(226,377,l),
(226,377,l),
(250,354,l),
(250,23,l)
);
},
{
attr = {
gradient = {
colors = (
(
(64,255),
0
),
(
(191,255),
1
)
);
end = (0.4877,0.9217);
start = (0.4155,-0.0037);
};
};
closed = 1;
nodes = (
(77,700,l),
(77,700,l),
(77,24,l),
(53,24,l),
(53,700,l)
);
},
{
attr = {
gradient = {
colors = (
(
(64,255),
0
),
(
(128,255),
1
)
);
end = (0.522,0.9968);
start = (0.4393,0.0388);
};
};
closed = 1;
nodes = (
(152,676,l),
(77,676,l),
(77,700,l),
(152,700,l)
);
},
{
attr = {
gradient = {
colors = (
(
(64,255),
0
),
(
(191,255),
1
)
);
end = (0.1636,0.9918);
start = (0.9225,0.2287);
};
};
closed = 1;
nodes = (
(53,0,l),
(53,24,l),
(226,24,l),
(226,0,l)
);
},
{
attr = {
gradient = {
colors = (
(
(191,255),
0
),
(
(64,255),
1
)
);
end = (0.3759,0.0091);
start = (0.4447,0.6672);
};
};
closed = 1;
nodes = (
(166,377,l),
(152,377,l),
(152,700,l),
(152,700,l),
(176,677,l),
(176,377,l)
);
},
{
attr = {
gradient = {
colors = (
(
(64,255),
0
),
(
(191,255),
1
)
);
end = (0.2671,0.5486);
start = (0.937,0.3463);
};
};
closed = 1;
nodes = (
(77,353,l),
(54,377,l),
(152,377,l),
(226,377,l),
(226,353,l)
);
}
);
width = 303;
},
{
attr = {
color = 1;
};
layerId = "E87239EE-82B8-404C-B23A-53843E270889";
shapes = (
{
attr = {
gradient = {
colors = (
(
(191,255),
0
),
(
(64,255),
1
)
);
end = (0.8878,0.5878);
start = (0.0693,0.513);
};
};
closed = 1;
nodes = (
(729,0,l),
(728,0,l),
(728,467,l),
(729,467,l),
(982,274,l),
(982,193,l)
);
},
{
attr = {
gradient = {
colors = (
(
(64,255),
0
),
(
(191,255),
1
)
);
end = (0.4877,0.9217);
start = (0.4155,-0.0037);
};
};
closed = 1;
nodes = (
(278,730,l),
(279,730,l),
(279,244,l),
(25,244,l),
(25,730,l)
);
},
{
attr = {
gradient = {
colors = (
(
(64,255),
0
),
(
(128,255),
1
)
);
end = (0.522,0.9968);
start = (0.4393,0.0388);
};
};
closed = 1;
nodes = (
(574,486,l),
(279,486,l),
(279,730,l),
(574,730,l)
);
},
{
attr = {
gradient = {
colors = (
(
(64,255),
0
),
(
(191,255),
1
)
);
end = (0.1636,0.9918);
start = (0.6848,0.1052);
};
};
closed = 1;
nodes = (
(25,0,l),
(25,244,l),
(728,244,l),
(728,0,l)
);
},
{
attr = {
gradient = {
colors = (
(
(191,255),
0
),
(
(64,255),
1
)
);
end = (0.3759,0.0091);
start = (0.4447,0.6672);
};
};
closed = 1;
nodes = (
(729,467,l),
(574,467,l),
(574,730,l),
(575,730,l),
(848,533,l),
(848,376,l)
);
},
{
attr = {
gradient = {
colors = (
(
(64,255),
0
),
(
(191,255),
1
)
);
end = (0.3103,0.7788);
start = (0.9832,0.4844);
};
};
closed = 1;
nodes = (
(727,263,l),
(574,466,l),
(574,467,l),
(728,467,l),
(728,263,l)
);
}
);
width = 1007;
}
);
unicode = 66;
},
{
glyphname = C;
lastChange = "2021-11-17 12:52:21 +0000";
layers = (
{
anchors = (
{
name = bottom;
pos = (135,0);
},
{
name = top;
pos = (138,700);
}
);
attr = {
color = 1;
};
layerId = "33AE93C6-B8B3-427A-A53B-F24970E840CE";
shapes = (
{
attr = {
gradient = {
colors = (
(
(64,255),
0
),
(
(191,255),
1
)
);
end = (0.4877,0.9217);
start = (0.453,0.0037);
};
};
closed = 1;
nodes = (
(76,700,l),
(77,700,l),
(77,24,l),
(53,24,l),
(53,677,l)
);
},
{
attr = {
gradient = {
colors = (
(
(64,255),
0
),
(
(191,255),
1
)
);
end = (0.8878,0.5878);
start = (0.0693,0.513);
};
};
closed = 1;
nodes = (
(220,677,l),
(220,676,l),
(77,676,l),
(77,700,l),
(197,700,l)
);
},
{
attr = {
gradient = {
colors = (
(
(191,255),
0
),
(
(64,255),
1
)
);
end = (0.8878,0.5878);
start = (0.0693,0.513);
};
};
closed = 1;
nodes = (
(53,23,l),
(53,24,l),
(220,24,l),
(197,0,l),
(76,0,l)
);
}
);
width = 273;
},
{
anchors = (
{
name = bottom;
pos = (432,0);
},
{
name = top;
pos = (476,730);
}
);
attr = {
color = 1;
};
layerId = "E87239EE-82B8-404C-B23A-53843E270889";
shapes = (
{
attr = {
gradient = {
colors = (
(
(64,255),
0
),
(
(191,255),
1
)
);
end = (0.4877,0.9217);
start = (0.4155,-0.0037);
};
};
closed = 1;
nodes = (
(278,730,l),
(279,730,l),
(279,240,l),
(25,240,l),
(25,523,l)
);
},
{
attr = {
gradient = {
colors = (
(
(64,255),
0
),
(
(191,255),
1
)
);
end = (0.8878,0.5878);
start = (0.0693,0.513);
};
};
closed = 1;
nodes = (
(902,487,l),
(902,486,l),
(279,486,l),
(279,730,l),
(700,730,l)
);
},
{
attr = {
gradient = {
colors = (
(
(191,255),
0
),
(
(64,255),
1
)
);
end = (0.8878,0.5878);
start = (0.0693,0.513);
};
};
closed = 1;
nodes = (
(25,239,l),
(25,240,l),
(902,240,l),
(700,-4,l),
(227,-4,l)
);
}
);
width = 927;
}
);
unicode = 67;
},
{
glyphname = D;
lastChange = "2021-11-27 10:48:10 +0000";
layers = (
{
anchors = (
{
name = top;
pos = (138,700);
}
);
attr = {
color = "1";
};
layerId = "33AE93C6-B8B3-427A-A53B-F24970E840CE";
shapes = (
{
attr = {
gradient = {
colors = (
(
(64,255),
0
),
(
(191,255),
1
)
);
end = (0.4877,0.9217);
start = (0.453,0.0037);
};
};
closed = 1;
nodes = (
(76,700,l),
(77,700,l),
(77,24,l),
(53,24,l),
(53,700,l)
);
},
{
attr = {
gradient = {
colors = (
(
(64,255),
0
),
(
(191,255),
1
)
);
end = (0.8878,0.5878);
start = (0.1375,-0.0323);
};
};
closed = 1;
nodes = (
(222,677,l),
(222,676,l),
(77,676,l),
(77,700,l),
(199,700,l)
);
},
{
attr = {
gradient = {
colors = (
(
(64,255),
0
),
(
(191,255),
1
)
);
end = (0.4056,0.1204);
start = (0.4192,0.8964);
};
};
closed = 1;
nodes = (
(199,0,l),
(198,0,l),
(198,676,l),
(222,676,l),
(222,23,l)
);
},
{
attr = {
gradient = {
colors = (
(
(191,255),
0
),
(
(64,255),
1
)
);
end = (0.8878,0.5878);
start = (0.0693,0.513);
};
};
closed = 1;
nodes = (
(53,23,l),
(53,24,l),
(198,24,l),
(198,0,l),
(53,0,l)
);
}
);
width = 273;
},
{
anchors = (
{
name = top;
pos = (466,730);
}
);
attr = {
color = "1";
};
layerId = "E87239EE-82B8-404C-B23A-53843E270889";
shapes = (
{
attr = {
gradient = {
colors = (
(
(64,255),
0
),
(
(191,255),
1
)
);
end = (0.4877,0.9217);
start = (0.4155,-0.0037);
};
};
closed = 1;
nodes = (
(278,730,l),
(279,730,l),
(279,240,l),
(25,240,l),
(25,730,l)
);
},
{
attr = {
gradient = {
colors = (
(
(64,255),
0
),
(
(191,255),
1
)
);
end = (0.8878,0.5878);
start = (0.0693,0.513);
};
};
closed = 1;
nodes = (
(912,487,l),
(912,486,l),
(279,486,l),
(279,730,l),
(710,730,l)
);
},
{
attr = {
gradient = {
colors = (
(
(64,255),
0
),
(
(191,255),
1
)
);
end = (0.4056,0.1204);
start = (0.4192,0.8964);
};
};
closed = 1;
nodes = (
(659,-4,l),
(658,-4,l),
(658,486,l),
(912,486,l),
(912,193,l)
);
},
{
attr = {
gradient = {
colors = (
(
(191,255),
0
),
(
(64,255),
1
)
);
end = (0.8878,0.5878);
start = (0.0693,0.513);
};
};
closed = 1;
nodes = (
(25,239,l),
(25,240,l),
(658,240,l),
(658,-4,l),
(25,-4,l)
);
}
);
width = 937;
}
);
unicode = 68;
},
{
glyphname = E;
lastChange = "2021-11-17 12:52:15 +0000";
layers = (
{
anchors = (
{
name = bottom;
pos = (135,0);
},
{
name = top;
pos = (138,700);
}
);
attr = {
color = 1;
};
layerId = "33AE93C6-B8B3-427A-A53B-F24970E840CE";
shapes = (
{
attr = {
gradient = {
colors = (
(
(64,255),
0
),
(
(191,255),
1
)
);
end = (0.5074,0.9658);
start = (0.6091,0.0797);
};
};
closed = 1;
nodes = (
(76,700,l),
(77,700,l),
(77,24,l),
(53,24,l),
(53,700,l)
);
},
{
attr = {
gradient = {
colors = (
(
(64,255),
0
),
(
(191,255),
1
)
);
end = (0.8878,0.5878);
start = (0.0693,0.513);
};
};
closed = 1;
nodes = (
(77,676,l),
(77,700,l),
(220,700,l),
(220,699,l),
(197,676,l)
);
},
{
attr = {
gradient = {
colors = (
(
(64,255),
0
),
(
(191,255),
1
)
);
end = (0.8878,0.5878);
start = (0.0693,0.513);
};
};
closed = 1;
nodes = (
(77,353,l),
(77,376,l),
(77,377,l),
(196,377,l),
(196,353,l)
);
},
{
attr = {
gradient = {
colors = (
(
(191,255),
0
),
(
(64,255),
1
)
);
end = (0.8878,0.5878);
start = (0.0693,0.513);
};
};
closed = 1;
nodes = (
(77,0,l),
(53,23,l),
(53,24,l),
(220,24,l),
(220,0,l)
);
}
);
width = 273;
},
{
anchors = (
{
name = bottom;
pos = (432,0);
},
{
name = top;
pos = (446,730);
}
);
attr = {
color = 1;
};
layerId = "E87239EE-82B8-404C-B23A-53843E270889";
shapes = (
{
attr = {
gradient = {
colors = (
(
(64,255),
0
),
(
(191,255),
1
)
);
end = (0.4877,0.9217);
start = (0.4155,-0.0037);
};
};
closed = 1;
nodes = (
(278,730,l),
(279,730,l),
(279,244,l),
(25,244,l),
(25,730,l)
);
},
{
attr = {
gradient = {
colors = (
(
(64,255),
0
),
(
(191,255),
1
)
);
end = (0.713,0.9264);
start = (0.0306,0.307);
};
};
closed = 1;
nodes = (
(279,486,l),
(279,730,l),
(842,730,l),
(842,729,l),
(640,486,l)
);
},
{
attr = {
gradient = {
colors = (
(
(64,255),
0
),
(
(191,255),
1
)
);
end = (0.8437,0.8454);
start = (0.2604,0.1278);
};
};
closed = 1;
nodes = (
(279,263,l),
(279,467,l),
(688,467,l),
(688,466,l),
(688,263,l)
);
},
{
attr = {
gradient = {
colors = (
(
(64,255),
0
),
(
(191,255),
1
)
);
end = (0.2497,0.9606);
start = (0.5205,-0.1117);
};
};
closed = 1;
nodes = (
(227,0,l),
(25,243,l),
(25,244,l),
(791,244,l),
(791,0,l)
);
}
);
width = 867;
}
);
metricRight = "=|";
unicode = 69;
},
{
glyphname = F;
lastChange = "2021-11-27 10:47:15 +0000";
layers = (
{
attr = {
color = 1;
};
layerId = "33AE93C6-B8B3-427A-A53B-F24970E840CE";
shapes = (
{
attr = {
gradient = {
colors = (
(
(64,255),
0
),
(
(191,255),
1
)
);
end = (0.5074,0.9658);
start = (0.6091,0.0797);
};
};
closed = 1;
nodes = (
(77,700,l),
(77,377,l),
(53,377,l),
(53,700,l)
);
},
{
attr = {
gradient = {
colors = (
(
(64,255),
0
),
(
(191,255),
1
)
);
end = (0.8878,0.5878);
start = (0.0693,0.513);
};
};
closed = 1;
nodes = (
(77,676,l),
(77,700,l),
(220,700,l),
(220,699,l),
(197,676,l)
);
},
{
attr = {
gradient = {
colors = (
(
(191,255),
0
),
(
(64,255),
1
)
);
end = (0.8878,0.5878);
start = (0.0693,0.513);
};
};
closed = 1;
nodes = (
(77,353,l),
(53,376,l),
(53,377,l),
(196,377,l),
(196,353,l)
);
},
{
attr = {
gradient = {
colors = (
(
(64,255),
0
),
(
(191,255),
1
)
);
end = (0.5074,0.9658);
start = (0.6091,0.0797);
};
};
closed = 1;
nodes = (
(53,376,l),
(77,353,l),
(77,0,l),
(53,0,l)
);
}
);
width = 213;
},
{
attr = {
color = 1;
};
layerId = "E87239EE-82B8-404C-B23A-53843E270889";
shapes = (
{
attr = {
gradient = {
colors = (
(
(64,255),
0
),
(
(191,255),
1
)
);
end = (0.4877,0.9217);
start = (0.4155,-0.0037);
};
};
closed = 1;
nodes = (
(289,730,l),
(289,416,l),
(35,416,l),
(35,730,l)
);
},
{
attr = {
gradient = {
colors = (
(
(64,255),
0
),
(
(191,255),
1
)
);
end = (0.713,0.9264);
start = (0.0306,0.307);
};
};
closed = 1;
nodes = (
(289,486,l),
(289,730,l),
(832,730,l),
(832,729,l),
(630,486,l)
);
},
{
attr = {
gradient = {
colors = (
(
(64,255),
0
),
(
(191,255),
1
)
);
end = (0.2871,0.6848);
start = (0.9403,0.2295);
};
};
closed = 1;
nodes = (
(289,212,l),
(35,415,l),
(35,416,l),
(678,416,l),
(678,212,l)
);
},
{
attr = {
gradient = {
colors = (
(
(64,255),
0
),
(
(191,255),
1
)
);
end = (0.0155,0.9213);
start = (0.4102,0.0988);
};
};
closed = 1;
nodes = (
(35,415,l),
(289,212,l),
(289,0,l),
(35,0,l)
);
}
);
width = 717;
}
);
unicode = 70;
},
{
glyphname = G;
lastChange = "2021-12-01 11:05:11 +0000";
layers = (
{
anchors = (
{
name = bottom;
pos = (146,0);
},
{
name = top;
pos = (138,700);
}
);
attr = {
color = 1;
};
layerId = "33AE93C6-B8B3-427A-A53B-F24970E840CE";
shapes = (
{
attr = {
gradient = {
colors = (
(
(64,255),
0
),
(
(191,255),
1
)
);
end = (0.4877,0.9217);
start = (0.453,0.0037);
};
};
closed = 1;
nodes = (
(76,700,l),
(77,700,l),
(77,24,l),
(53,24,l),
(53,677,l)
);
},
{
attr = {
gradient = {
colors = (
(
(64,255),
0
),
(
(191,255),
1
)
);
end = (0.8878,0.5878);
start = (0.0693,0.513);
};
};
closed = 1;
nodes = (
(220,677,l),
(220,676,l),
(77,676,l),
(77,700,l),
(197,700,l)
);
},
{
attr = {
gradient = {
colors = (
(
(191,255),
0
),
(
(64,255),
1
)
);
end = (0.8878,0.5878);
start = (0.0693,0.513);
};
};
closed = 1;
nodes = (
(53,23,l),
(53,24,l),
(196,24,l),
(196,0,l),
(76,0,l)
);
},
{
attr = {
gradient = {
colors = (
(
(191,255),
0
),
(
(64,255),
1
)
);
end = (0.8618,0.4739);
start = (0.2695,1.1005);
};
};
closed = 1;
nodes = (
(123,376,l),
(123,377,l),
(196,377,l),
(196,354,l),
(196,353,l),
(123,353,l)
);
},
{
attr = {
gradient = {
colors = (
(
(64,255),
0.01851
),
(
(191,255),
0.51668
),
(
(64,255),
1
)
);
end = (0.7698,0.0614);
start = (0.7249,1.046);
};
};
closed = 1;
nodes = (
(197,0,l),
(196,0,l),
(196,377,l),
(197,377,l),
(220,353,l),
(220,24,l)
);
}
);
width = 273;
},
{
anchors = (
{
name = bottom;
pos = (535,0);
},
{
name = top;
pos = (533,730);
}
);
attr = {
color = 1;
};
layerId = "E87239EE-82B8-404C-B23A-53843E270889";
shapes = (
{
attr = {
gradient = {
colors = (
(
(64,255),
0
),
(
(191,255),
1
)
);
end = (0.4877,0.9217);
start = (0.4155,-0.0037);
};
};
closed = 1;
nodes = (
(278,730,l),
(279,730,l),
(279,244,l),
(25,244,l),
(25,523,l)
);
},
{
attr = {
gradient = {
colors = (
(
(64,255),
0
),
(
(191,255),
1
)
);
end = (0.8878,0.5878);
start = (0.0693,0.513);
};
};
closed = 1;
nodes = (
(982,487,l),
(982,486,l),
(279,486,l),
(279,730,l),
(780,730,l)
);
},
{
attr = {
gradient = {
colors = (
(
(191,255),
0
),
(
(64,255),
1
)
);
end = (0.8878,0.5878);
start = (0.0693,0.513);
};
};
closed = 1;
nodes = (
(25,243,l),
(25,244,l),
(728,244,l),
(728,0,l),
(227,0,l)
);
},
{
attr = {
gradient = {
colors = (
(
(191,255),
0
),
(
(64,255),
1
)
);
end = (0.9081,0.4266);
start = (0.0373,0.848);
};
};
closed = 1;
nodes = (
(405,465,l),
(405,466,l),
(728,466,l),
(728,263,l),
(728,262,l),
(405,262,l)
);
},
{
attr = {
gradient = {
colors = (
(
(64,255),
0
),
(
(191,255),
1
)
);
end = (0.1941,0.5408);
start = (0.8955,0.363);
};
};
closed = 1;
nodes = (
(729,0,l),
(728,0,l),
(728,466,l),
(729,466,l),
(982,254,l),
(982,197,l)
);
}
);
width = 1007;
}
);
unicode = 71;
},
{
glyphname = H;
lastChange = "2021-11-17 12:52:05 +0000";
layers = (
{
anchors = (
{
name = top;
pos = (146,700);
}
);
attr = {
color = 1;
};
layerId = "33AE93C6-B8B3-427A-A53B-F24970E840CE";
shapes = (
{
attr = {
gradient = {
colors = (
(
(64,255),
0
),
(
(191,255),
0.52617
),
(
(64,255),
1
)
);
end = (0.4781,1.0761);
start = (0.4866,0.1832);
};
};
closed = 1;
nodes = (
(76,700,l),
(77,700,l),
(77,0,l),
(53,0,l),
(53,700,l)
);
},
{
attr = {
gradient = {
colors = (
(
(64,255),
0
),
(
(191,255),
0.65408
),
(
(64,255),
1
)
);
end = (0.8355,0.0089);
start = (0.6619,0.9472);
};
};
closed = 1;
nodes = (
(217,0,l),
(216,0,l),
(216,700,l),
(240,700,l),
(240,0,l)
);
},
{
attr = {
gradient = {
colors = (
(
(191,255),
0
),
(
(64,255),
1
)
);
end = (0.8353,0.456);
start = (0.2623,0.6901);
};
};
closed = 1;
nodes = (
(77,376,l),
(77,377,l),
(216,377,l),
(216,353,l),
(77,353,l)
);
}
);
width = 293;
},
{
anchors = (
{
name = top;
pos = (486,730);
}
);
attr = {
color = 1;
};
layerId = "E87239EE-82B8-404C-B23A-53843E270889";
shapes = (
{
attr = {
gradient = {
colors = (
(
(64,255),
0
),
(
(191,255),
1
)
);
end = (0.4877,0.9217);
start = (0.4155,-0.0037);
};
};
closed = 1;
nodes = (
(278,730,l),
(279,730,l),
(279,0,l),
(25,0,l),
(25,730,l)
);
},
{
attr = {
gradient = {
colors = (
(
(64,255),
0
),
(
(191,255),
1
)
);
end = (0.4056,0.1204);
start = (0.4192,0.8964);
};
};
closed = 1;
nodes = (
(629,-4,l),
(628,-4,l),
(628,730,l),
(882,730,l),
(882,-4,l)
);
},
{
attr = {
gradient = {
colors = (
(
(64,255),
0
),
(
(191,255),
1
)
);
end = (0.5305,0.1139);
start = (0.0635,0.8418);
};
};
closed = 1;
nodes = (
(279,487,l),
(628,487,l),
(628,486,l),
(628,243,l),
(279,243,l)
);
}
);
width = 907;
}
);
metricRight = "=|";
unicode = 72;
},
{
glyphname = I;
lastChange = "2021-11-17 12:51:25 +0000";
layers = (
{
anchors = (
{
name = bottom;
pos = (135,0);
},
{
name = top;
pos = (138,700);
}
);
attr = {
color = 1;
};
layerId = "33AE93C6-B8B3-427A-A53B-F24970E840CE";
shapes = (
{
attr = {
gradient = {
colors = (
(
(64,255),
0.01
),
(
(191,255),
1
)
);
end = (0.5457,0.9842);
start = (0.9656,0.0453);
};
};
closed = 1;
nodes = (
(147,700,l),
(148,700,l),
(148,24,l),
(125,0,l),
(124,0,l),
(124,676,l)
);
},
{
attr = {
gradient = {
colors = (
(
(64,255),
0
),
(
(191,255),
1
)
);
end = (0.7658,0.909);
start = (0.089,0.1962);
};
};
closed = 1;
nodes = (
(43,676,l),
(43,700,l),
(147,700,l),
(124,676,l)
);
},
{
attr = {
gradient = {
colors = (
(
(64,255),
0
),
(
(191,255),
1
)
);
end = (0.7658,0.909);
start = (0.21,0.0899);
};
};
closed = 1;
nodes = (
(148,676,l),
(148,700,l),
(228,700,l),
(228,676,l)
);
},
{
attr = {
gradient = {
colors = (
(
(64,255),
0
),
(
(191,255),
1
)
);
end = (0.9719,0.4393);
start = (0.1431,0.6404);
};
};
closed = 1;
nodes = (
(229,24,l),
(229,0,l),
(125,0,l),
(148,24,l)
);
},
{
attr = {
gradient = {
colors = (
(
(191,255),
0
),
(
(64,255),
1
)
);
end = (0.7658,0.909);
start = (0.21,0.0899);
};
};
closed = 1;
nodes = (
(124,24,l),
(124,0,l),
(44,0,l),
(44,24,l)
);
}
);
width = 272;
},
{
anchors = (
{
name = bottom;
pos = (370,0);
},
{
name = top;
pos = (371,730);
}
);
attr = {
color = 1;
};
layerId = "E87239EE-82B8-404C-B23A-53843E270889";
shapes = (
{
attr = {
gradient = {
colors = (
(
(191,255),
0
),
(
(64,255),
1
)
);
end = (0.6746,0.2057);
start = (-0.022,0.6501);
};
};
closed = 1;
nodes = (
(448,730,l),
(500,730,l),
(500,244,l),
(298,0,l),
(245,0,l),
(246,486,l)
);
},
{
attr = {
gradient = {
colors = (
(
(64,255),
0
),
(
(191,255),
1
)
);
end = (0.8801,0.7274);
start = (0.0295,0.395);
};
};
closed = 1;
nodes = (
(25,486,l),
(25,730,l),
(448,730,l),
(246,486,l)
);
},
{
attr = {
gradient = {
colors = (
(
(64,255),
0
),
(
(191,255),
1
)
);
end = (1.0519,0.9246);
start = (0.0112,0.2467);
};
};
closed = 1;
nodes = (
(500,486,l),
(500,730,l),
(671,730,l),
(671,486,l)
);
},
{
attr = {
gradient = {
colors = (
(
(191,255),
0
),
(
(64,255),
1
)
);
end = (0.1134,0.2082);
start = (0.9801,0.7122);
};
};
closed = 1;
nodes = (
(672,244,l),
(672,0,l),
(298,0,l),
(500,244,l)
);
},
{
attr = {
gradient = {
colors = (
(
(64,255),
0
),
(
(191,255),
1
)
);
end = (0.0138,0.304);
start = (0.9791,0.7352);
};
};
closed = 1;
nodes = (
(245,244,l),
(245,0,l),
(25,1,l),
(25,244,l)
);
}
);
width = 697;
}
);
metricRight = "=|";
unicode = 73;
},
{
glyphname = J;
lastChange = "2021-11-16 13:39:14 +0000";
layers = (
{
anchors = (
{
name = top;
pos = (158,700);
}
);
attr = {
color = 1;
};
layerId = "33AE93C6-B8B3-427A-A53B-F24970E840CE";
shapes = (
{
attr = {
gradient = {
colors = (
(
(64,255),
0.01
),
(
(191,255),
1
)
);
end = (0.9485,1.0116);
start = (1.1024,-0.0032);
};
};
closed = 1;
nodes = (
(163,676,l),
(186,700,l),
(187,700,l),
(187,24,l),
(163,24,l)
);
},
{
attr = {
gradient = {
colors = (
(
(64,255),
0.01332
),
(
(191,255),
1
)
);
end = (0.7939,0.0148);
start = (0.1121,1.5222);
};
};
closed = 1;
nodes = (
(62,676,l),
(62,700,l),
(186,700,l),
(163,676,l)
);
},
{
attr = {
gradient = {
colors = (
(
(64,255),
0
),
(
(191,255),
1
)
);
end = (1.0015,0.2197);
start = (0.0147,0.4684);
};
};
closed = 1;
nodes = (
(187,676,l),
(187,700,l),
(257,700,l),
(257,676,l)
);
},
{
attr = {
gradient = {
colors = (
(
(64,255),
0
),
(
(191,255),
1
)
);
end = (0.9529,0.8922);
start = (-0.0035,0.3197);
};
};
closed = 1;
nodes = (
(187,24,l),
(187,23,l),
(163,0,l),
(43,0,l),
(43,24,l)
);
}
);
width = 300;
},
{
anchors = (
{
name = top;
pos = (386,730);
}
);
attr = {
color = 1;
};
layerId = "E87239EE-82B8-404C-B23A-53843E270889";
shapes = (
{
attr = {
gradient = {
colors = (
(
(64,255),
0
),
(
(191,255),
1
)
);
end = (0.4877,0.9217);
start = (0.4155,-0.0037);
};
};
closed = 1;
nodes = (
(246,486,l),
(448,730,l),
(500,730,l),
(500,240,l),
(246,240,l)
);
},
{
attr = {
gradient = {
colors = (
(
(64,255),
0
),
(
(191,255),
1
)
);
end = (0.7658,0.909);
start = (0.089,0.1962);
};
};
closed = 1;
nodes = (
(25,486,l),
(25,730,l),
(448,730,l),
(246,486,l)
);
},
{
attr = {
gradient = {
colors = (
(
(64,255),
0
),
(
(191,255),
1
)
);
end = (0.7658,0.909);
start = (0.21,0.0899);
};
};
closed = 1;
nodes = (
(500,486,l),
(500,730,l),
(671,730,l),
(671,486,l)
);
},
{
attr = {
gradient = {
colors = (
(
(64,255),
0
),
(
(191,255),
1
)
);
end = (0.7658,0.909);
start = (0.1245,0.1818);
};
};
closed = 1;
nodes = (
(500,240,l),
(500,239,l),
(298,-4,l),
(47,-4,l),
(47,240,l)
);
}
);
width = 697;
}
);
unicode = 74;
},
{
glyphname = K;
lastChange = "2021-11-17 12:53:06 +0000";
layers = (
{
anchors = (
{
name = bottom;
pos = (152,0);
}
);
attr = {
color = 1;
};
layerId = "33AE93C6-B8B3-427A-A53B-F24970E840CE";
shapes = (
{
attr = {
gradient = {
colors = (
(
(64,255),
0
),
(
(191,255),
1
)
);
end = (0.4877,0.9217);
start = (0.4155,-0.0037);
};
};
closed = 1;
nodes = (
(77,700,l),
(77,0,l),
(53,0,l),
(53,700,l)
);
},
{
attr = {
gradient = {
colors = (
(
(64,255),
0
),
(
(191,255),
0.51642
),
(
(64,255),
1
)
);
end = (0.5113,0.0309);
start = (0.2454,0.9618);
};
};
closed = 1;
nodes = (
(247,0,l),
(163,353,l),
(183,373,l),
(273,0,l)
);
},
{
attr = {
gradient = {
colors = (
(
(64,255),
0
),
(
(191,255),
1
)
);
end = (0.2746,0.29);
start = (0.4852,0.9879);
};
};
closed = 1;
nodes = (
(197,353,l),
(196,353,l),
(196,700,l),
(220,700,l),
(220,376,l)
);
},
{
attr = {
gradient = {
colors = (
(
(64,255),
0
),
(
(191,255),
0.5
),
(
(64,255),
1
)
);
end = (0.0587,0.1922);
start = (0.9871,0.9521);
};
};
closed = 1;
nodes = (
(77,377,l),
(196,377,l),
(196,353,l),
(77,353,l)
);
}
);
width = 326;
},
{
anchors = (
{
name = bottom;
pos = (395,0);
}
);
attr = {
color = 1;
};
layerId = "E87239EE-82B8-404C-B23A-53843E270889";
shapes = (
{
attr = {
gradient = {
colors = (
(
(64,255),
0
),
(
(191,255),
1
)
);
end = (0.4877,0.9217);
start = (0.4155,-0.0037);
};
};
closed = 1;
nodes = (
(279,730,l),
(279,0,l),
(25,0,l),
(25,730,l)
);
},
{
attr = {
gradient = {
colors = (
(
(191,255),
0
),
(
(64,255),
1
)
);
end = (0.3248,0.6736);
start = (0.7282,-0.0074);
};
};
closed = 1;
nodes = (
(630,0,l),
(454,240,l),
(668,363,l),
(941,0,l)
);
},
{
attr = {
gradient = {
colors = (
(
(64,255),
0
),
(
(191,255),
1
)
);
end = (0.2746,0.29);
start = (0.4852,0.9879);
};
};
closed = 1;
nodes = (
(579,223,l),
(578,223,l),
(578,730,l),
(832,730,l),
(832,420,l)
);
},
{
attr = {
gradient = {
colors = (
(
(64,255),
0
),
(
(191,255),
0.5
),
(
(64,255),
1
)
);
end = (0.0587,0.1922);
start = (0.9871,0.9521);
};
};
closed = 1;
nodes = (
(279,467,l),
(578,467,l),
(578,223,l),
(279,223,l)
);
}
);
width = 916;
}
);
unicode = 75;
},
{
glyphname = L;
lastChange = "2021-11-17 12:53:14 +0000";
layers = (
{
anchors = (
{
name = bottom;
pos = (152,0);
},
{
name = top;
pos = (138,700);
}
);
attr = {
color = 1;
};
layerId = "33AE93C6-B8B3-427A-A53B-F24970E840CE";
shapes = (
{
attr = {
gradient = {
colors = (
(
(64,255),
0
),
(
(191,255),
1
)
);
end = (0.4877,0.9217);
start = (0.453,0.0037);
};
};
closed = 1;
nodes = (
(76,700,l),
(77,700,l),
(77,24,l),
(53,24,l),
(53,700,l)
);
},
{
attr = {
gradient = {
colors = (
(
(191,255),
0
),
(
(64,255),
1
)
);
end = (0.8878,0.5878);
start = (0.0693,0.513);
};
};
closed = 1;
nodes = (
(53,23,l),
(53,24,l),
(256,24,l),
(256,0,l),
(76,0,l)
);
}
);
width = 309;
},
{
anchors = (
{
name = bottom;
pos = (435,0);
},
{
name = top;
pos = (446,630);
}
);
attr = {
color = 1;
};
layerId = "E87239EE-82B8-404C-B23A-53843E270889";
shapes = (
{
attr = {
gradient = {
colors = (
(
(64,255),
0
),
(
(191,255),
1
)
);
end = (0.4877,0.9217);
start = (0.4155,-0.0037);
};
};
closed = 1;
nodes = (
(278,730,l),
(279,730,l),
(279,240,l),
(25,240,l),
(25,730,l)
);
},
{
attr = {
gradient = {
colors = (
(
(191,255),
0
),
(
(64,255),
1
)
);
end = (0.8878,0.5878);
start = (0.0693,0.513);
};
};
closed = 1;
nodes = (
(25,239,l),
(25,240,l),
(758,240,l),
(758,-4,l),
(227,-4,l)
);
}
);
width = 783;
}
);
unicode = 76;
},
{
color = 0;
glyphname = M;
lastChange = "2021-11-04 14:03:31 +0000";
layers = (
{
attr = {
color = 1;
};
layerId = "33AE93C6-B8B3-427A-A53B-F24970E840CE";
shapes = (
{
attr = {
gradient = {
colors = (
(
(64,255),
0
),
(
(191,255),
1
)
);
end = (0.2296,0.0026);
start = (0.9852,0.6189);
};
};
closed = 1;
nodes = (
(53,679,l),
(77,655,l),
(77,0,l),
(53,0,l)
);
},
{
attr = {
gradient = {
colors = (
(
(191,255),
0
),
(
(64,255),
1
)
);
end = (0.4877,0.9217);
start = (0.4155,-0.0037);
};
};
closed = 1;
nodes = (
(224,8,l),
(210,60,l),
(342,703,l),
(366,665,l)
);
},
{
attr = {
gradient = {
colors = (
(
(64,255),
0
),
(
(191,255),
1
)
);
end = (0.4877,0.9217);
start = (0.4155,-0.0037);
};
};
closed = 1;
nodes = (
(53,679,l),
(53,680,l),
(76,703,l),
(77,703,l),
(224,8,l),
(222,-3,l),
(196,-3,l)
);
},
{
attr = {
gradient = {
colors = (
(
(191,255),
0
),
(
(64,255),
1
)
);
end = (0.2296,0.0026);
start = (0.9852,0.6189);
};
};
closed = 1;
nodes = (
(342,703,l),
(343,703,l),
(366,679,l),
(366,0,l),
(342,0,l)
);
}
);
width = 419;
},
{
attr = {
color = 1;
};
layerId = "E87239EE-82B8-404C-B23A-53843E270889";
shapes = (
{
attr = {
gradient = {
colors = (
(
(191,255),
0
),
(
(64,255),
1
)
);
end = (0.2887,0.9217);
start = (0.4155,-0.0037);
};
};
closed = 1;
nodes = (
(25,603,l),
(279,286,l),
(279,-12,l),
(25,0,l)
);
},
{
attr = {
gradient = {
colors = (
(
(64,255),
0
),
(
(194,255),
1
)
);
end = (0.3182,0.0469);
start = (0.501,0.7225);
};
};
closed = 1;
nodes = (
(591,-6,l),
(520,341,l),
(826,736,l),
(826,285,l)
);
},
{
attr = {
gradient = {
colors = (
(
(64,255),
0
),
(
(191,255),
1
)
);
end = (0.3404,0.9774);
start = (0.4155,-0.0037);
};
};
closed = 1;
nodes = (
(25,603,l),
(25,604,l),
(248,736,l),
(249,736,l),
(725,161,l),
(591,-6,l),
(513,-6,l)
);
},
{
attr = {
gradient = {
colors = (
(
(64,255),
0
),
(
(191,255),
1
)
);
end = (0.4877,0.9217);
start = (0.4155,-0.0037);
};
};
closed = 1;
nodes = (
(825,736,l),
(826,736,l),
(1089,593,l),
(1079,0,l),
(825,0,l)
);
}
);
width = 1114;
}
);
metricRight = "=|";
unicode = 77;
},
{
glyphname = N;
lastChange = "2021-11-17 16:50:06 +0000";
layers = (
{
anchors = (
{
name = bottom;
pos = (135,0);
},
{
name = top;
pos = (168,700);
}
);
attr = {
color = 1;
};
layerId = "33AE93C6-B8B3-427A-A53B-F24970E840CE";
shapes = (
{
attr = {
gradient = {
colors = (
(
(64,255),
0
),
(
(191,255),
1
)
);
end = (0.2296,0.0026);
start = (0.9852,0.6189);
};
};
closed = 1;
nodes = (
(53,679,l),
(77,655,l),
(77,0,l),
(53,0,l)
);
},
{
attr = {
gradient = {
colors = (
(
(64,255),
0
),
(
(191,255),
1
)
);
end = (0.8068,0.953);
start = (0.1553,0.418);
};
};
closed = 1;
nodes = (
(260,22,l),
(236,46,l),
(236,700,l),
(260,700,l)
);
},
{
attr = {
gradient = {
colors = (
(
(191,255),
0
),
(
(64,255),
0.50053
),
(
(191,255),
1
)
);
end = (0.4877,0.9217);
start = (0.4155,-0.0037);
};
};
closed = 1;
nodes = (
(53,680,l),
(76,703,l),
(77,703,l),
(260,22,l),
(260,21,l),
(237,-3,l),
(236,-3,l),
(53,679,l)
);
}
);
width = 313;
},
{
anchors = (
{
name = bottom;
pos = (435,0);
},
{
name = top;
pos = (446,730);
}
);
attr = {
color = 1;
};
layerId = "E87239EE-82B8-404C-B23A-53843E270889";
shapes = (
{
attr = {
gradient = {
colors = (
(
(64,255),
0
),
(
(191,255),
1
)
);
end = (0.2296,0.0026);
start = (0.9852,0.6189);
};
};
closed = 1;
nodes = (
(25,571,l),
(279,345,l),
(279,0,l),
(25,0,l)
);
},
{
attr = {
gradient = {
colors = (
(
(64,255),
0
),
(
(191,255),
1
)
);
end = (0.8068,0.953);
start = (0.1553,0.418);
};
};
closed = 1;
nodes = (
(852,172,l),
(598,397,l),
(598,730,l),
(852,730,l)
);
},
{
attr = {
gradient = {
colors = (
(
(64,255),
0
),
(
(191,255),
1
)
);
end = (0.4877,0.9217);
start = (0.4155,-0.0037);
};
};
closed = 1;
nodes = (
(25,572,l),
(217,736,l),
(218,736,l),
(852,172,l),
(852,171,l),
(673,-6,l),
(672,-6,l),
(25,571,l)
);
}
);
width = 877;
}
);
metricRight = "=|";
unicode = 78;
},
{
glyphname = Eng;
lastChange = "2021-11-17 16:59:36 +0000";
layers = (
{
attr = {
color = 1;
};
layerId = "33AE93C6-B8B3-427A-A53B-F24970E840CE";
shapes = (
{
attr = {
gradient = {
colors = (
(
(64,255),
0
),
(
(191,255),
1
)
);
end = (0.9529,0.8922);
start = (-0.0035,0.3197);
};
};
closed = 1;
nodes = (
(260,-176,l),
(260,-177,l),
(236,-200,l),
(196,-200,l),
(196,-176,l)
);
},
{
attr = {
gradient = {
colors = (
(
(64,255),
0
),
(
(191,255),
1
)
);
end = (0.2296,0.0026);
start = (0.9852,0.6189);
};
};
closed = 1;
nodes = (
(53,679,l),
(77,655,l),
(77,0,l),
(53,0,l)
);
},
{
attr = {
gradient = {
colors = (
(
(64,255),
0
),
(
(191,255),
1
)
);
end = (0.8068,0.953);
start = (0.1553,0.418);
};
};
closed = 1;
nodes = (
(260,-176,l),
(236,-176,l),
(236,700,l),
(260,700,l)
);
},
{
attr = {
gradient = {
colors = (
(
(191,255),
0
),
(
(64,255),
0.50053
),
(
(191,255),
1
)
);
end = (0.4877,0.9217);
start = (0.4155,-0.0037);
};
};
closed = 1;
nodes = (
(53,680,l),
(76,703,l),
(77,703,l),
(260,22,l),
(260,21,l),
(237,-3,l),
(236,-3,l),
(53,679,l)
);
}
);
width = 313;
},
{
attr = {
color = 1;
};
layerId = "E87239EE-82B8-404C-B23A-53843E270889";
shapes = (
{
attr = {
gradient = {
colors = (
(
(64,255),
0
),
(
(191,255),
1
)
);
end = (0.7658,0.909);
start = (0.1245,0.1818);
};
};
closed = 1;
nodes = (
(852,-24,l),
(852,-25,l),
(650,-268,l),
(469,-268,l),
(469,-24,l)
);
},
{
attr = {
gradient = {
colors = (
(
(64,255),
0
),
(
(191,255),
1
)
);
end = (0.2296,0.0026);
start = (0.9852,0.6189);
};
};
closed = 1;
nodes = (
(25,571,l),
(279,345,l),
(279,0,l),
(25,0,l)
);
},
{
attr = {
gradient = {
colors = (
(
(64,255),
0
),
(
(191,255),
1
)
);
end = (0.8068,0.953);
start = (0.1553,0.418);
};
};
closed = 1;
nodes = (
(852,-24,l),
(598,-24,l),
(598,730,l),
(852,730,l)
);
},
{
attr = {
gradient = {
colors = (
(
(64,255),
0
),
(
(191,255),
1
)
);
end = (0.4877,0.9217);
start = (0.4155,-0.0037);
};
};
closed = 1;
nodes = (
(25,572,l),
(217,736,l),
(218,736,l),
(852,172,l),
(852,171,l),
(673,-6,l),
(672,-6,l),
(25,571,l)
);
}
);
width = 877;
}
);
unicode = 330;
},
{
color = 6;
glyphname = O;
lastChange = "2021-11-17 16:46:25 +0000";
layers = (
{
anchors = (
{
name = bottom;
pos = (142,0);
},
{
name = horn;
pos = (197,700);
},
{
name = top;
pos = (138,700);
}
);
attr = {
color = 1;
};
layerId = "33AE93C6-B8B3-427A-A53B-F24970E840CE";
shapes = (
{
attr = {
gradient = {
colors = (
(
(64,255),
0
),
(
(191,255),
1
)
);
end = (0.4877,0.9217);
start = (0.453,0.0037);
};
};
closed = 1;
nodes = (
(76,700,l),
(77,700,l),
(77,24,l),
(53,24,l),
(53,677,l)
);
},
{
attr = {
gradient = {
colors = (
(
(64,255),
0
),
(
(191,255),
1
)
);
end = (0.8878,0.5878);
start = (0.0693,0.513);
};
};
closed = 1;
nodes = (
(220,677,l),
(220,676,l),
(77,676,l),
(77,700,l),
(197,700,l)
);
},
{
attr = {
gradient = {
colors = (
(
(64,255),
0
),
(
(191,255),
1
)
);
end = (0.4056,0.1204);
start = (0.4192,0.8964);
};
};
closed = 1;
nodes = (
(197,0,l),
(196,0,l),
(196,676,l),
(220,676,l),
(220,23,l)
);
},
{
attr = {
gradient = {
colors = (
(
(191,255),
0
),
(
(64,255),
1
)
);
end = (0.8878,0.5878);
start = (0.0693,0.513);
};
};
closed = 1;
nodes = (
(53,23,l),
(53,24,l),
(196,24,l),
(196,0,l),
(76,0,l)
);
}
);
width = 273;
},
{
anchors = (
{
name = bottom;
pos = (452,0);
},
{
name = horn;
pos = (680,730);
},
{
name = top;
pos = (476,730);
}
);
attr = {
color = 1;
};
layerId = "E87239EE-82B8-404C-B23A-53843E270889";
shapes = (
{
attr = {
gradient = {
colors = (
(
(64,255),
0
),
(
(191,255),
1
)
);
end = (0.4877,0.9217);
start = (0.4155,-0.0037);
};
};
closed = 1;
nodes = (
(278,730,l),
(279,730,l),
(279,244,l),
(25,244,l),
(25,523,l)
);
},
{
attr = {
gradient = {
colors = (
(
(64,255),
0
),
(
(191,255),
1
)
);
end = (0.8878,0.5878);
start = (0.0693,0.513);
};
};
closed = 1;
nodes = (
(882,487,l),
(882,486,l),
(279,486,l),
(279,730,l),
(680,730,l)
);
},
{
attr = {
gradient = {
colors = (
(
(64,255),
0
),
(
(191,255),
1
)
);
end = (0.4056,0.1204);
start = (0.4192,0.8964);
};
};
closed = 1;
nodes = (
(629,0,l),
(628,0,l),
(628,486,l),
(882,486,l),
(882,197,l)
);
},
{
attr = {
gradient = {
colors = (
(
(191,255),
0
),
(
(64,255),
1
)
);
end = (0.8878,0.5878);
start = (0.0693,0.513);
};
};
closed = 1;
nodes = (
(25,243,l),
(25,244,l),
(628,244,l),
(628,0,l),
(227,0,l)
);
}
);
width = 907;
},
{
associatedMasterId = "33AE93C6-B8B3-427A-A53B-F24970E840CE";
attr = {
color = "1";
colorPalette = 0;
svg = 1;
};
layerId = "F51964C3-240C-4314-A97B-63AC7960B240";
name = "Thin-Condensed 2 Nov 21, 13:19";
shapes = (
{
attr = {
gradient = {
colors = (
(
(64,255),
0
),
(
(191,255),
1
)
);
end = (0.4877,0.9217);
start = (0.453,0.0037);
};
};
closed = 1;
nodes = (
(76,700,l),
(77,700,l),
(77,24,l),
(53,24,l),
(53,677,l)
);
},
{
attr = {
gradient = {
colors = (
(
(64,255),
0
),
(
(191,255),
1
)
);
end = (0.8878,0.5878);
start = (0.0693,0.513);
};
};
closed = 1;
nodes = (
(220,677,l),
(220,676,l),
(77,676,l),
(77,700,l),
(197,700,l)
);
},
{
attr = {
gradient = {
colors = (
(
(64,255),
0
),
(
(191,255),
1
)
);
end = (0.4056,0.1204);
start = (0.4192,0.8964);
};
};
closed = 1;
nodes = (
(197,0,l),
(196,0,l),
(196,676,l),
(220,676,l),
(220,23,l)
);
},
{
attr = {
gradient = {
colors = (
(
(191,255),
0
),
(
(64,255),
1
)
);
end = (0.8878,0.5878);
start = (0.0693,0.513);
};
};
closed = 1;
nodes = (
(53,23,l),
(53,24,l),
(196,24,l),
(196,0,l),
(76,0,l)
);
}
);
width = 273;
},
{
associatedMasterId = "E87239EE-82B8-404C-B23A-53843E270889";
attr = {
color = "1";
colorPalette = 0;
svg = 1;
};
layerId = "C620334E-4485-4B37-84A4-EB1636481CEE";
name = "ExtraBold-Expanded 8 Nov 21, 07:45";
shapes = (
{
attr = {
gradient = {
colors = (
(
(64,255),
0
),
(
(191,255),
1
)
);
end = (0.4877,0.9217);
start = (0.4155,-0.0037);
};
};
closed = 1;
nodes = (
(278,730,l),
(279,730,l),
(279,244,l),
(25,244,l),
(25,523,l)
);
},
{
attr = {
gradient = {
colors = (
(
(64,255),
0
),
(
(191,255),
1
)
);
end = (0.8878,0.5878);
start = (0.0693,0.513);
};
};
closed = 1;
nodes = (
(882,487,l),
(882,486,l),
(279,486,l),
(279,730,l),
(680,730,l)
);
},
{
attr = {
gradient = {
colors = (
(
(64,255),
0
),
(
(191,255),
1
)
);
end = (0.4056,0.1204);
start = (0.4192,0.8964);
};
};
closed = 1;
nodes = (
(629,0,l),
(628,0,l),
(628,486,l),
(882,486,l),
(882,197,l)
);
},
{
attr = {
gradient = {
colors = (
(
(191,255),
0
),
(
(64,255),
1
)
);
end = (0.8878,0.5878);
start = (0.0693,0.513);
};
};
closed = 1;
nodes = (
(25,243,l),
(25,244,l),
(628,244,l),
(628,0,l),
(227,0,l)
);
}
);
width = 907;
}
);
unicode = 79;
},
{
glyphname = Oslash;
lastChange = "2021-11-16 13:28:08 +0000";
layers = (
{
anchors = (
{
name = top;
pos = (138,700);
}
);
attr = {
color = 1;
};
layerId = "33AE93C6-B8B3-427A-A53B-F24970E840CE";
shapes = (
{
attr = {
gradient = {
colors = (
(
(128,255),
0
),
(
(191,255),
0.23101
),
(
(128,255),
1
)
);
end = (0.1006,0.9261);
start = (0.8563,0.0865);
};
};
closed = 1;
nodes = (
(20,0,l),
(20,1,l),
(230,700,l),
(253,700,l),
(253,699,l),
(43,0,l)
);
},
{
attr = {
gradient = {
colors = (
(
(64,255),
0
),
(
(191,255),
1
)
);
end = (0.4877,0.9217);
start = (0.453,0.0037);
};
};
closed = 1;
nodes = (
(76,700,l),
(77,700,l),
(77,24,l),
(53,24,l),
(53,677,l)
);
},
{
attr = {
gradient = {
colors = (
(
(64,255),
0
),
(
(191,255),
1
)
);
end = (0.8878,0.5878);
start = (0.0693,0.513);
};
};
closed = 1;
nodes = (
(220,677,l),
(220,676,l),
(77,676,l),
(77,700,l),
(197,700,l)
);
},
{
attr = {
gradient = {
colors = (
(
(64,255),
0
),
(
(191,255),
1
)
);
end = (0.4056,0.1204);
start = (0.4192,0.8964);
};
};
closed = 1;
nodes = (
(197,0,l),
(196,0,l),
(196,676,l),
(220,676,l),
(220,23,l)
);
},
{
attr = {
gradient = {
colors = (
(
(191,255),
0
),
(
(64,255),
1
)
);
end = (0.8878,0.5878);
start = (0.0693,0.513);
};
};
closed = 1;
nodes = (
(53,23,l),
(53,24,l),
(196,24,l),
(196,0,l),
(76,0,l)
);
}
);
width = 273;
},
{
anchors = (
{
name = top;
pos = (478,730);
}
);
attr = {
color = 1;
};
layerId = "E87239EE-82B8-404C-B23A-53843E270889";
shapes = (
{
attr = {
gradient = {
colors = (
(
(128,255),
0
),
(
(191,255),
0.3076
),
(
(128,255),
1
)
);
end = (0.7348,0.7576);
start = (0.1706,-0.0896);
};
};
closed = 1;
nodes = (
(42,0,l),
(42,2,l),
(754,730,l),
(867,730,l),
(867,729,l),
(155,0,l)
);
},
{
attr = {
gradient = {
colors = (
(
(64,255),
0
),
(
(191,255),
1
)
);
end = (0.4877,0.9217);
start = (0.4155,-0.0037);
};
};
closed = 1;
nodes = (
(278,730,l),
(279,730,l),
(279,244,l),
(25,244,l),
(25,523,l)
);
},
{
attr = {
gradient = {
colors = (
(
(64,255),
0
),
(
(191,255),
1
)
);
end = (0.7683,1.3704);
start = (0.0693,0.513);
};
};
closed = 1;
nodes = (
(882,487,l),
(882,486,l),
(279,486,l),
(279,730,l),
(680,730,l)
);
},
{
attr = {
gradient = {
colors = (
(
(64,255),
0
),
(
(191,255),
1
)
);
end = (0.4056,0.1204);
start = (0.4192,0.8964);
};
};
closed = 1;
nodes = (
(629,0,l),
(628,0,l),
(628,486,l),
(882,486,l),
(882,197,l)
);
},
{
attr = {
gradient = {
colors = (
(
(191,255),
0
),
(
(64,255),
1
)
);
end = (0.8878,0.5878);
start = (0.0693,0.513);
};
};
closed = 1;
nodes = (
(25,243,l),
(25,244,l),
(628,244,l),
(628,0,l),
(227,0,l)
);
}
);
width = 907;
}
);
unicode = 216;
},
{
glyphname = OE;
lastChange = "2021-11-07 10:05:32 +0000";
layers = (
{
attr = {
color = 1;
};
layerId = "33AE93C6-B8B3-427A-A53B-F24970E840CE";
shapes = (
{
attr = {
gradient = {
colors = (
(
(191,255),
0
),
(
(64,255),
1
)
);
end = (0.8878,0.5878);
start = (0.0693,0.513);
};
};
closed = 1;
nodes = (
(53,23,l),
(53,24,l),
(220,24,l),
(196,0,l),
(76,0,l)
);
},
{
attr = {
gradient = {
colors = (
(
(64,255),
0
),
(
(191,255),
1
)
);
end = (0.8878,0.5878);
start = (0.0693,0.513);
};
};
closed = 1;
nodes = (
(220,676,l),
(197,700,l),
(363,700,l),
(363,699,l),
(340,676,l)
);
},
{
attr = {
gradient = {
colors = (
(
(64,255),
0
),
(
(191,255),
1
)
);
end = (0.8878,0.5878);
start = (0.0693,0.513);
};
};
closed = 1;
nodes = (
(220,353,l),
(220,377,l),
(339,377,l),
(339,353,l)
);
},
{
attr = {
gradient = {
colors = (
(
(191,255),
0
),
(
(64,255),
1
)
);
end = (0.8878,0.5878);
start = (0.0693,0.513);
};
};
closed = 1;
nodes = (
(220,0,l),
(196,23,l),
(196,24,l),
(363,24,l),
(363,0,l)
);
},
{
attr = {
gradient = {
colors = (
(
(64,255),
0
),
(
(191,255),
1
)
);
end = (0.4877,0.9217);
start = (0.453,0.0037);
};
};
closed = 1;
nodes = (
(76,700,l),
(77,700,l),
(77,24,l),
(53,24,l),
(53,677,l)
);
},
{
attr = {
gradient = {
colors = (
(
(64,255),
0
),
(
(191,255),
1
)
);
end = (0.8878,0.5878);
start = (0.0693,0.513);
};
};
closed = 1;
nodes = (
(220,677,l),
(220,676,l),
(77,676,l),
(77,700,l),
(197,700,l)
);
},
{
attr = {
gradient = {
colors = (
(
(64,255),
0
),
(
(191,255),
0.52974
),
(
(64,255),
1
)
);
end = (0.676,0.0071);
start = (0.4192,0.8964);
};
};
closed = 1;
nodes = (
(196,24,l),
(196,676,l),
(220,676,l),
(220,24,l)
);
}
);
width = 423;
},
{
attr = {
color = 1;
};
layerId = "E87239EE-82B8-404C-B23A-53843E270889";
shapes = (
{
attr = {
gradient = {
colors = (
(
(191,255),
0
),
(
(64,255),
1
)
);
end = (0.8878,0.5878);
start = (0.0693,0.513);
};
};
closed = 1;
nodes = (
(25,243,l),
(25,244,l),
(882,244,l),
(628,0,l),
(227,0,l)
);
},
{
attr = {
gradient = {
colors = (
(
(64,255),
0
),
(
(191,255),
1
)
);
end = (0.7292,0.9344);
start = (0.1098,0.591);
};
};
closed = 1;
nodes = (
(882,486,l),
(680,730,l),
(1406,730,l),
(1406,729,l),
(1204,486,l)
);
},
{
attr = {
gradient = {
colors = (
(
(64,255),
0
),
(
(191,255),
1
)
);
end = (0.8437,0.8454);
start = (0.1413,0.085);
};
};
closed = 1;
nodes = (
(882,263,l),
(882,467,l),
(1252,467,l),
(1252,263,l)
);
},
{
attr = {
gradient = {
colors = (
(
(64,255),
0
),
(
(191,255),
1
)
);
end = (0.1064,0.7118);
start = (0.9731,0.0568);
};
};
closed = 1;
nodes = (
(830,0,l),
(628,243,l),
(628,244,l),
(1355,244,l),
(1355,0,l)
);
},
{
attr = {
gradient = {
colors = (
(
(64,255),
0
),
(
(191,255),
1
)
);
end = (0.4877,0.9217);
start = (0.4155,-0.0037);
};
};
closed = 1;
nodes = (
(278,730,l),
(279,730,l),
(279,244,l),
(25,244,l),
(25,523,l)
);
},
{
attr = {
gradient = {
colors = (
(
(64,255),
0
),
(
(191,255),
1
)
);
end = (0.8878,0.5878);
start = (0.0693,0.513);
};
};
closed = 1;
nodes = (
(882,487,l),
(882,486,l),
(279,486,l),
(279,730,l),
(680,730,l)
);
},
{
attr = {
gradient = {
colors = (
(
(64,255),
0
),
(
(191,255),
1
)
);
end = (1.0035,0.3657);
start = (0.014,0.558);
};
};
closed = 1;
nodes = (
(628,244,l),
(628,486,l),
(882,486,l),
(882,244,l)
);
}
);
width = 1431;
}
);
unicode = 338;
},
{
glyphname = P;
lastChange = "2021-11-04 14:00:08 +0000";
layers = (
{
attr = {
color = 1;
};
layerId = "33AE93C6-B8B3-427A-A53B-F24970E840CE";
shapes = (
{
attr = {
gradient = {
colors = (
(
(64,255),
0
),
(
(191,255),
1
)
);
end = (0.257,0.9316);
start = (1.4423,0.1012);
};
};
closed = 1;
nodes = (
(76,700,l),
(77,700,l),
(77,0,l),
(53,0,l),
(53,677,l)
);
},
{
attr = {
gradient = {
colors = (
(
(64,255),
0
),
(
(191,255),
1
)
);
end = (0.8878,0.5878);
start = (0.0693,0.513);
};
};
closed = 1;
nodes = (
(221,677,l),
(221,676,l),
(77,676,l),
(77,700,l),
(198,700,l)
);
},
{
attr = {
gradient = {
colors = (
(
(64,255),
0
),
(
(191,255),
1
)
);
end = (0.4056,0.1204);
start = (0.4192,0.8964);
};
};
closed = 1;
nodes = (
(198,353,l),
(197,353,l),
(197,676,l),
(221,676,l),
(221,376,l)
);
},
{
attr = {
gradient = {
colors = (
(
(191,255),
0
),
(
(64,255),
1
)
);
end = (0.8878,0.5878);
start = (0.0693,0.513);
};
};
closed = 1;
nodes = (
(77,376,l),
(77,377,l),
(197,377,l),
(197,353,l),
(77,353,l)
);
}
);
width = 274;
},
{
attr = {
color = 1;
};
layerId = "E87239EE-82B8-404C-B23A-53843E270889";
shapes = (
{
attr = {
gradient = {
colors = (
(
(64,255),
0
),
(
(191,255),
1
)
);
end = (0.4877,0.9217);
start = (0.4155,-0.0037);
};
};
closed = 1;
nodes = (
(278,730,l),
(279,730,l),
(279,0,l),
(25,0,l),
(25,730,l)
);
},
{
attr = {
gradient = {
colors = (
(
(64,255),
0
),
(
(191,255),
1
)
);
end = (0.8878,0.5878);
start = (0.0693,0.513);
};
};
closed = 1;
nodes = (
(882,487,l),
(882,486,l),
(279,486,l),
(279,730,l),
(680,730,l)
);
},
{
attr = {
gradient = {
colors = (
(
(64,255),
0
),
(
(191,255),
1
)
);
end = (0.2746,0.29);
start = (0.4192,0.8964);
};
};
closed = 1;
nodes = (
(629,173,l),
(628,173,l),
(628,486,l),
(882,486,l),
(882,370,l)
);
},
{
attr = {
gradient = {
colors = (
(
(64,255),
0
),
(
(191,255),
1
)
);
end = (0.5991,0.0096);
start = (0.0791,0.6527);
};
};
closed = 1;
nodes = (
(279,417,l),
(628,417,l),
(628,416,l),
(628,173,l),
(279,173,l)
);
}
);
width = 907;
}
);
unicode = 80;
},
{
glyphname = Thorn;
lastChange = "2021-11-07 08:55:08 +0000";
layers = (
{
attr = {
color = 1;
};
layerId = "33AE93C6-B8B3-427A-A53B-F24970E840CE";
shapes = (
{
attr = {
gradient = {
colors = (
(
(64,255),
0
),
(
(191,255),
1
)
);
end = (0.257,0.9316);
start = (1.4423,0.1012);
};
};
closed = 1;
nodes = (
(77,700,l),
(77,0,l),
(53,0,l),
(53,700,l)
);
},
{
attr = {
gradient = {
colors = (
(
(64,255),
0
),
(
(191,255),
1
)
);
end = (0.8878,0.5878);
start = (0.0693,0.513);
};
};
closed = 1;
nodes = (
(221,517,l),
(221,516,l),
(77,516,l),
(77,540,l),
(198,540,l)
);
},
{
attr = {
gradient = {
colors = (
(
(64,255),
0
),
(
(191,255),
1
)
);
end = (0.4056,0.1204);
start = (0.4192,0.8964);
};
};
closed = 1;
nodes = (
(198,193,l),
(197,193,l),
(197,516,l),
(221,516,l),
(221,216,l)
);
},
{
attr = {
gradient = {
colors = (
(
(191,255),
0
),
(
(64,255),
1
)
);
end = (0.8878,0.5878);
start = (0.0693,0.513);
};
};
closed = 1;
nodes = (
(77,216,l),
(77,217,l),
(197,217,l),
(197,193,l),
(77,193,l)
);
}
);
width = 274;
},
{
attr = {
color = 1;
};
layerId = "E87239EE-82B8-404C-B23A-53843E270889";
shapes = (
{
attr = {
gradient = {
colors = (
(
(64,255),
0
),
(
(191,255),
1
)
);
end = (0.4877,0.9217);
start = (0.4155,-0.0037);
};
};
closed = 1;
nodes = (
(279,730,l),
(279,0,l),
(25,0,l),
(25,730,l)
);
},
{
attr = {
gradient = {
colors = (
(
(64,255),
0
),
(
(191,255),
1
)
);
end = (0.8878,0.5878);
start = (0.0693,0.513);
};
};
closed = 1;
nodes = (
(882,407,l),
(882,406,l),
(279,406,l),
(279,650,l),
(680,650,l)
);
},
{
attr = {
gradient = {
colors = (
(
(64,255),
0
),
(
(191,255),
1
)
);
end = (0.2746,0.29);
start = (0.4192,0.8964);
};
};
closed = 1;
nodes = (
(629,93,l),
(628,93,l),
(628,406,l),
(882,406,l),
(882,290,l)
);
},
{
attr = {
gradient = {
colors = (
(
(64,255),
0
),
(
(191,255),
1
)
);
end = (0.5991,0.0096);
start = (0.0791,0.6527);
};
};
closed = 1;
nodes = (
(279,337,l),
(628,337,l),
(628,336,l),
(628,93,l),
(279,93,l)
);
}
);
width = 907;
}
);
unicode = 222;
},
{
glyphname = Q;
lastChange = "2021-11-04 13:59:09 +0000";
layers = (
{
attr = {
color = 1;
};
layerId = "33AE93C6-B8B3-427A-A53B-F24970E840CE";
shapes = (
{
attr = {
gradient = {
colors = (
(
(64,255),
0
),
(
(191,255),
1
)
);
end = (0.4877,0.9217);
start = (0.453,0.0037);
};
};
closed = 1;
nodes = (
(76,700,l),
(77,700,l),
(77,24,l),
(53,24,l),
(53,677,l)
);
},
{
attr = {
gradient = {
colors = (
(
(64,255),
0
),
(
(191,255),
1
)
);
end = (0.8878,0.5878);
start = (0.0693,0.513);
};
};
closed = 1;
nodes = (
(220,677,l),
(220,676,l),
(77,676,l),
(77,700,l),
(197,700,l)
);
},
{
attr = {
gradient = {
colors = (
(
(64,255),
0
),
(
(191,255),
1
)
);
end = (0.4056,0.1204);
start = (0.4192,0.8964);
};
};
closed = 1;
nodes = (
(218,22,l),
(216,24,l),
(196,24,l),
(196,676,l),
(220,676,l),
(220,24,l)
);
},
{
attr = {
gradient = {
colors = (
(
(191,255),
0
),
(
(64,255),
1
)
);
end = (0.8878,0.5878);
start = (0.0693,0.513);
};
};
closed = 1;
nodes = (
(53,23,l),
(53,24,l),
(286,24,l),
(309,1,l),
(309,0,l),
(76,0,l)
);
}
);
width = 342;
},
{
attr = {
color = 1;
};
layerId = "E87239EE-82B8-404C-B23A-53843E270889";
shapes = (
{
attr = {
gradient = {
colors = (
(
(64,255),
0
),
(
(191,255),
1
)
);
end = (0.4877,0.9217);
start = (0.4155,-0.0037);
};
};
closed = 1;
nodes = (
(278,730,l),
(279,730,l),
(279,240,l),
(25,240,l),
(25,523,l)
);
},
{
attr = {
gradient = {
colors = (
(
(64,255),
0
),
(
(191,255),
1
)
);
end = (0.8878,0.5878);
start = (0.0693,0.513);
};
};
closed = 1;
nodes = (
(882,487,l),
(882,486,l),
(279,486,l),
(279,730,l),
(680,730,l)
);
},
{
attr = {
gradient = {
colors = (
(
(64,255),
0
),
(
(191,255),
1
)
);
end = (0.4056,0.1204);
start = (0.4192,0.8964);
};
};
closed = 1;
nodes = (
(820,144,l),
(739,240,l),
(628,240,l),
(628,486,l),
(882,486,l),
(882,193,l)
);
},
{
attr = {
gradient = {
colors = (
(
(191,255),
0
),
(
(64,255),
1
)
);
end = (0.8878,0.5878);
start = (0.0693,0.513);
};
};
closed = 1;
nodes = (
(25,239,l),
(25,240,l),
(739,240,l),
(941,1,l),
(941,0,l),
(227,0,l)
);
}
);
width = 966;
}
);
unicode = 81;
},
{
glyphname = R;
lastChange = "2021-11-30 13:41:38 +0000";
layers = (
{
anchors = (
{
name = bottom;
pos = (142,0);
},
{
name = top;
pos = (138,700);
}
);
attr = {
color = "1";
};
layerId = "33AE93C6-B8B3-427A-A53B-F24970E840CE";
shapes = (
{
attr = {
gradient = {
colors = (
(
(64,255),
0
),
(
(191,255),
0.51642
),
(
(64,255),
1
)
);
end = (0.5113,0.0309);
start = (0.2454,0.9618);
};
};
closed = 1;
nodes = (
(227,0,l),
(143,353,l),
(163,373,l),
(253,0,l)
);
},
{
attr = {
gradient = {
colors = (
(
(64,255),
0
),
(
(191,255),
1
)
);
end = (0.257,0.9801);
start = (1.4423,0.1012);
};
};
closed = 1;
nodes = (
(76,700,l),
(77,700,l),
(77,0,l),
(53,0,l),
(53,677,l)
);
},
{
attr = {
gradient = {
colors = (
(
(64,255),
0
),
(
(191,255),
1
)
);
end = (0.8878,0.5878);
start = (0.0693,0.513);
};
};
closed = 1;
nodes = (
(220,677,l),
(220,676,l),
(77,676,l),
(77,700,l),
(197,700,l)
);
},
{
attr = {
gradient = {
colors = (
(
(64,255),
0
),
(
(191,255),
1
)
);
end = (0.4056,0.1204);
start = (0.4192,0.8964);
};
};
closed = 1;
nodes = (
(197,353,l),
(196,353,l),
(196,676,l),
(220,676,l),
(220,376,l)
);
},
{
attr = {
gradient = {
colors = (
(
(191,255),
0
),
(
(64,255),
1
)
);
end = (0.8878,0.5878);
start = (0.0693,0.513);
};
};
closed = 1;
nodes = (
(77,376,l),
(77,377,l),
(196,377,l),
(196,353,l),
(77,353,l)
);
}
);
width = 306;
},
{
anchors = (
{
name = top;
pos = (406,730);
}
);
attr = {
color = "1";
};
layerId = "E87239EE-82B8-404C-B23A-53843E270889";
shapes = (
{
attr = {
gradient = {
colors = (
(
(191,255),
0
),
(
(64,255),
1
)
);
end = (0.4959,0.5358);
start = (0.7282,-0.0074);
};
};
closed = 1;
nodes = (
(580,0,l),
(489,173,l),
(689,329,l),
(891,0,l)
);
},
{
attr = {
gradient = {
colors = (
(
(64,255),
0
),
(
(191,255),
1
)
);
end = (0.4877,0.9217);
start = (0.4155,-0.0037);
};
};
closed = 1;
nodes = (
(278,730,l),
(279,730,l),
(279,0,l),
(25,0,l),
(25,730,l)
);
},
{
attr = {
gradient = {
colors = (
(
(64,255),
0
),
(
(191,255),
1
)
);
end = (0.8878,0.5878);
start = (0.0693,0.513);
};
};
closed = 1;
nodes = (
(872,487,l),
(872,486,l),
(279,486,l),
(279,730,l),
(670,730,l)
);
},
{
attr = {
gradient = {
colors = (
(
(64,255),
0
),
(
(191,255),
1
)
);
end = (0.2746,0.29);
start = (0.4192,0.8964);
};
};
closed = 1;
nodes = (
(619,173,l),
(618,173,l),
(618,486,l),
(872,486,l),
(872,370,l)
);
},
{
attr = {
gradient = {
colors = (
(
(64,255),
0
),
(
(191,255),
1
)
);
end = (0.5991,0.0096);
start = (0.0791,0.6527);
};
};
closed = 1;
nodes = (
(279,417,l),
(618,417,l),
(618,416,l),
(618,173,l),
(279,173,l)
);
}
);
width = 916;
}
);
unicode = 82;
},
{
glyphname = S;
lastChange = "2021-11-17 12:49:26 +0000";
layers = (
{
anchors = (
{
name = bottom;
pos = (142,0);
},
{
name = top;
pos = (138,700);
}
);
attr = {
color = "1";
};
layerId = "33AE93C6-B8B3-427A-A53B-F24970E840CE";
shapes = (
{
attr = {
gradient = {
colors = (
(
(64,255),
0
),
(
(191,255),
1
)
);
end = (0.5946,0.9299);
start = (0.5615,0.0647);
};
};
closed = 1;
nodes = (
(76,700,l),
(77,700,l),
(77,377,l),
(76,377,l),
(53,377,l),
(53,677,l)
);
},
{
attr = {
gradient = {
colors = (
(
(64,255),
0
),
(
(191,255),
1
)
);
end = (0.8904,0.6031);
start = (0.1059,0.2968);
};
};
closed = 1;
nodes = (
(200,677,l),
(200,676,l),
(77,676,l),
(77,700,l),
(177,700,l)
);
},
{
attr = {
gradient = {
colors = (
(
(64,255),
0.01851
),
(
(191,255),
0.51668
),
(
(64,255),
1
)
);
end = (0.7698,0.0614);
start = (0.7249,1.046);
};
};
closed = 1;
nodes = (
(177,0,l),
(176,0,l),
(176,377,l),
(177,377,l),
(200,353,l),
(200,24,l)
);
},
{
attr = {
gradient = {
colors = (
(
(191,255),
0
),
(
(64,255),
1
)
);
end = (0.8618,0.4739);
start = (0.2695,1.1005);
};
};
closed = 1;
nodes = (
(53,376,l),
(53,377,l),
(176,377,l),
(176,354,l),
(176,353,l),
(76,353,l)
);
},
{
attr = {
gradient = {
colors = (
(
(191,255),
0
),
(
(64,255),
1
)
);
end = (0.8946,0.2729);
start = (0.3294,0.7263);
};
};
closed = 1;
nodes = (
(53,23,l),
(53,24,l),
(176,24,l),
(176,23,l),
(176,0,l),
(76,0,l)
);
}
);
userData = {
com.GeorgSeifert.ImageExportSettings = {
path = "..";
presets = (
{
filename = "{{{glyph.name}}}";
format = PDF;
name = default;
size = 1000;
}
);
};
};
width = 253;
},
{
anchors = (
{
name = bottom;
pos = (452,0);
},
{
name = top;
pos = (476,730);
}
);
attr = {
color = "1";
};
layerId = "E87239EE-82B8-404C-B23A-53843E270889";
shapes = (
{
attr = {
gradient = {
colors = (
(
(191,255),
0
),
(
(64,255),
1
)
);
end = (0.646,0.005);
start = (0.7453,0.9016);
};
};
closed = 1;
nodes = (
(278,730,l),
(279,730,l),
(279,466,l),
(278,466,l),
(25,466,l),
(25,523,l)
);
},
{
attr = {
gradient = {
colors = (
(
(191,255),
0
),
(
(64,255),
1
)
);
end = (0.0015,0.5492);
start = (0.9295,0.5322);
};
};
closed = 1;
nodes = (
(872,487,l),
(872,486,l),
(279,486,l),
(279,730,l),
(670,730,l)
);
},
{
attr = {
gradient = {
colors = (
(
(191,255),
0
),
(
(64,255),
1
)
);
end = (0.9989,0.5204);
start = (-0.0137,0.5628);
};
};
closed = 1;
nodes = (
(619,0,l),
(618,0,l),
(618,466,l),
(619,466,l),
(872,269,l),
(872,193,l)
);
},
{
attr = {
gradient = {
colors = (
(
(191,255),
0
),
(
(64,255),
1
)
);
end = (0.8878,0.5878);
start = (0.0693,0.513);
};
};
closed = 1;
nodes = (
(25,465,l),
(25,466,l),
(618,466,l),
(618,263,l),
(618,262,l),
(227,262,l)
);
},
{
attr = {
gradient = {
colors = (
(
(191,255),
0
),
(
(64,255),
1
)
);
end = (0.8878,0.5878);
start = (0.0693,0.513);
};
};
closed = 1;
nodes = (
(25,243,l),
(25,244,l),
(618,244,l),
(618,243,l),
(618,0,l),
(227,0,l)
);
}
);
width = 897;
}
);
metricRight = "=|";
unicode = 83;
},
{
glyphname = Germandbls;
lastChange = "2021-11-18 13:41:58 +0000";
layers = (
{
attr = {
color = 1;
};
layerId = "33AE93C6-B8B3-427A-A53B-F24970E840CE";
shapes = (
{
attr = {
gradient = {
colors = (
(
(64,255),
0
),
(
(128,255),
1
)
);
end = (0.522,0.9968);
start = (0.4393,0.0388);
};
};
closed = 1;
nodes = (
(182,676,l),
(77,676,l),
(77,700,l),
(182,700,l)
);
},
{
attr = {
gradient = {
colors = (
(
(191,255),
0
),
(
(64,255),
1
)
);
end = (0.3759,0.0091);
start = (0.4447,0.6672);
};
};
closed = 1;
nodes = (
(132,387,l),
(182,700,l),
(182,700,l),
(206,678,l),
(206,677,l),
(156,387,l)
);
},
{
attr = {
gradient = {
colors = (
(
(64,255),
0
),
(
(191,255),
1
)
);
end = (0.2671,0.5486);
start = (0.937,0.3463);
};
};
closed = 1;
nodes = (
(155,363,l),
(132,386,l),
(132,387,l),
(226,387,l),
(226,363,l)
);
},
{
attr = {
gradient = {
colors = (
(
(64,255),
0
),
(
(191,255),
1
)
);
end = (0.4877,0.9217);
start = (0.4155,-0.0037);
};
};
closed = 1;
nodes = (
(77,700,l),
(77,700,l),
(77,0,l),
(53,0,l),
(53,700,l)
);
},
{
attr = {
gradient = {
colors = (
(
(64,255),
0
),
(
(191,255),
1
)
);
end = (0.1636,0.9918);
start = (0.9225,0.2287);
};
};
closed = 1;
nodes = (
(154,0,l),
(154,1,l),
(178,24,l),
(226,24,l),
(226,0,l)
);
},
{
attr = {
gradient = {
colors = (
(
(191,255),
0
),
(
(64,255),
1
)
);
end = (0.5245,0.827);
start = (0.8235,0.1183);
};
};
closed = 1;
nodes = (
(227,0,l),
(226,0,l),
(226,387,l),
(226,387,l),
(250,364,l),
(250,23,l)
);
}
);
width = 303;
},
{
attr = {
color = 1;
};
layerId = "E87239EE-82B8-404C-B23A-53843E270889";
shapes = (
{
attr = {
gradient = {
colors = (
(
(64,255),
0
),
(
(128,255),
1
)
);
end = (0.522,0.9968);
start = (0.4393,0.0388);
};
};
closed = 1;
nodes = (
(584,486,l),
(279,486,l),
(279,730,l),
(584,730,l)
);
},
{
attr = {
gradient = {
colors = (
(
(191,255),
0
),
(
(64,255),
1
)
);
end = (0.3759,0.0091);
start = (0.4447,0.6672);
};
};
closed = 1;
nodes = (
(384,467,l),
(584,730,l),
(585,730,l),
(816,531,l),
(816,530,l),
(698,376,l)
);
},
{
attr = {
gradient = {
colors = (
(
(64,255),
0
),
(
(191,255),
1
)
);
end = (0.3103,0.7788);
start = (0.9832,0.4844);
};
};
closed = 1;
nodes = (
(437,263,l),
(384,466,l),
(384,467,l),
(728,467,l),
(728,263,l)
);
},
{
attr = {
gradient = {
colors = (
(
(64,255),
0
),
(
(191,255),
1
)
);
end = (0.4877,0.9217);
start = (0.4155,-0.0037);
};
};
closed = 1;
nodes = (
(278,730,l),
(279,730,l),
(279,0,l),
(25,0,l),
(25,730,l)
);
},
{
attr = {
gradient = {
colors = (
(
(64,255),
0
),
(
(191,255),
1
)
);
end = (0.1636,0.9918);
start = (0.6848,0.1052);
};
};
closed = 1;
nodes = (
(495,0,l),
(495,1,l),
(635,244,l),
(728,244,l),
(728,0,l)
);
},
{
attr = {
gradient = {
colors = (
(
(191,255),
0
),
(
(64,255),
1
)
);
end = (0.8878,0.5878);
start = (0.0693,0.513);
};
};
closed = 1;
nodes = (
(729,0,l),
(728,0,l),
(728,467,l),
(729,467,l),
(982,274,l),
(982,193,l)
);
}
);
width = 1007;
}
);
unicode = 7838;
},
{
glyphname = Schwa;
lastChange = "2021-11-18 15:24:37 +0000";
layers = (
{
attr = {
color = 1;
};
layerId = "33AE93C6-B8B3-427A-A53B-F24970E840CE";
shapes = (
{
attr = {
gradient = {
colors = (
(
(191,255),
0
),
(
(64,255),
1
)
);
end = (0.5074,0.9658);
start = (0.6091,0.0797);
};
};
closed = 1;
nodes = (
(197,0,l),
(196,0,l),
(196,676,l),
(220,676,l),
(220,24,l)
);
},
{
attr = {
gradient = {
colors = (
(
(191,255),
0
),
(
(64,255),
1
)
);
end = (0.8878,0.5878);
start = (0.0693,0.513);
};
};
closed = 1;
nodes = (
(53,23,l),
(53,24,l),
(196,24,l),
(196,0,l),
(76,0,l)
);
},
{
attr = {
gradient = {
colors = (
(
(64,255),
0
),
(
(191,255),
1
)
);
end = (0.8878,0.5878);
start = (0.0693,0.513);
};
};
closed = 1;
nodes = (
(196,347,l),
(196,323,l),
(77,323,l),
(77,347,l)
);
},
{
attr = {
gradient = {
colors = (
(
(64,255),
0
),
(
(191,255),
1
)
);
end = (0.8878,0.5878);
start = (0.0693,0.513);
};
};
closed = 1;
nodes = (
(196,700,l),
(220,677,l),
(220,676,l),
(53,676,l),
(53,677,l),
(76,700,l)
);
},
{
attr = {
gradient = {
colors = (
(
(191,255),
0
),
(
(64,255),
1
)
);
end = (0.4056,0.1204);
start = (0.4192,0.8964);
};
};
closed = 1;
nodes = (
(76,347,l),
(77,347,l),
(77,24,l),
(53,24,l),
(53,324,l)
);
}
);
width = 273;
},
{
attr = {
color = 1;
};
layerId = "E87239EE-82B8-404C-B23A-53843E270889";
shapes = (
{
attr = {
gradient = {
colors = (
(
(64,255),
0
),
(
(191,255),
1
)
);
end = (0.4877,0.9217);
start = (0.4155,-0.0037);
};
};
closed = 1;
nodes = (
(538,0,l),
(537,0,l),
(537,486,l),
(791,486,l),
(791,202,l)
);
},
{
attr = {
gradient = {
colors = (
(
(64,255),
0
),
(
(191,255),
1
)
);
end = (0.713,0.9264);
start = (0.0306,0.307);
};
};
closed = 1;
nodes = (
(25,243,l),
(25,244,l),
(537,244,l),
(537,0,l),
(227,0,l)
);
},
{
attr = {
gradient = {
colors = (
(
(64,255),
0
),
(
(191,255),
1
)
);
end = (0.8437,0.8454);
start = (0.2604,0.1278);
};
};
closed = 1;
nodes = (
(537,467,l),
(537,263,l),
(279,263,l),
(279,467,l)
);
},
{
attr = {
gradient = {
colors = (
(
(64,255),
0
),
(
(191,255),
1
)
);
end = (0.2497,0.9606);
start = (0.5205,-0.1117);
};
};
closed = 1;
nodes = (
(589,730,l),
(791,487,l),
(791,486,l),
(25,486,l),
(25,487,l),
(227,730,l)
);
},
{
attr = {
gradient = {
colors = (
(
(64,255),
0
),
(
(191,255),
1
)
);
end = (0.4877,0.9217);
start = (0.4155,-0.0037);
};
};
closed = 1;
nodes = (
(278,467,l),
(279,467,l),
(279,244,l),
(25,244,l),
(25,265,l)
);
}
);
width = 816;
}
);
unicode = 399;
},
{
glyphname = T;
lastChange = "2021-11-30 13:40:40 +0000";
layers = (
{
anchors = (
{
name = bottom;
pos = (177,0);
},
{
name = top;
pos = (178,700);
}
);
attr = {
color = 1;
};
layerId = "33AE93C6-B8B3-427A-A53B-F24970E840CE";
shapes = (
{
attr = {
gradient = {
colors = (
(
(64,255),
0.01
),
(
(191,255),
1
)
);
end = (0.4781,1.0761);
start = (0.4866,0.1832);
};
};
closed = 1;
nodes = (
(187,700,l),
(188,700,l),
(188,0,l),
(165,0,l),
(164,0,l),
(164,676,l)
);
},
{
attr = {
gradient = {
colors = (
(
(64,255),
0
),
(
(191,255),
1
)
);
end = (0.7658,0.909);
start = (0.089,0.1962);
};
};
closed = 1;
nodes = (
(43,676,l),
(43,700,l),
(187,700,l),
(164,676,l)
);
},
{
attr = {
gradient = {
colors = (
(
(64,255),
0
),
(
(191,255),
1
)
);
end = (0.7658,0.909);
start = (0.21,0.0899);
};
};
closed = 1;
nodes = (
(188,676,l),
(188,700,l),
(308,700,l),
(308,676,l)
);
}
);
width = 351;
},
{
anchors = (
{
name = bottom;
pos = (435,0);
},
{
name = top;
pos = (436,730);
}
);
attr = {
color = 1;
};
layerId = "E87239EE-82B8-404C-B23A-53843E270889";
shapes = (
{
attr = {
gradient = {
colors = (
(
(191,255),
0
),
(
(64,255),
1
)
);
end = (0.2453,-0.0434);
start = (0.7174,0.9508);
};
};
closed = 1;
nodes = (
(508,730,l),
(560,730,l),
(560,0,l),
(358,0,l),
(305,0,l),
(306,486,l)
);
},
{
attr = {
gradient = {
colors = (
(
(64,255),
0
),
(
(191,255),
1
)
);
end = (0.8663,0.7092);
start = (0.0295,0.395);
};
};
closed = 1;
nodes = (
(25,486,l),
(25,730,l),
(508,730,l),
(306,486,l)
);
},
{
attr = {
gradient = {
colors = (
(
(64,255),
0
),
(
(191,255),
1
)
);
end = (1.1153,0.3256);
start = (-0.0331,0.4436);
};
};
closed = 1;
nodes = (
(560,486,l),
(560,730,l),
(861,730,l),
(861,486,l)
);
}
);
width = 886;
}
);
metricRight = "=|";
unicode = 84;
},
{
color = 6;
glyphname = U;
lastChange = "2021-11-30 13:56:15 +0000";
layers = (
{
anchors = (
{
name = bottom;
pos = (132,0);
},
{
name = horn;
pos = (196,700);
},
{
name = top;
pos = (133,701);
}
);
attr = {
color = 1;
};
layerId = "33AE93C6-B8B3-427A-A53B-F24970E840CE";
shapes = (
{
attr = {
gradient = {
colors = (
(
(191,255),
0
),
(
(64,255),
1
)
);
end = (0.5074,0.9658);
start = (0.6091,0.0797);
};
};
closed = 1;
nodes = (
(197,0,l),
(196,0,l),
(196,700,l),
(220,700,l),
(220,23,l)
);
},
{
attr = {
gradient = {
colors = (
(
(191,255),
0
),
(
(64,255),
1
)
);
end = (0.8878,0.5878);
start = (0.0693,0.513);
};
};
closed = 1;
nodes = (
(53,23,l),
(53,24,l),
(196,24,l),
(196,0,l),
(76,0,l)
);
},
{
attr = {
gradient = {
colors = (
(
(64,255),
0
),
(
(191,255),
0.50056
),
(
(64,255),
1
)
);
end = (1.2582,0.0143);
start = (-0.3003,0.8873);
};
};
closed = 1;
nodes = (
(76,700,l),
(77,700,l),
(77,24,l),
(53,24,l),
(53,700,l)
);
}
);
width = 273;
},
{
anchors = (
{
name = bottom;
pos = (432,0);
},
{
name = horn;
pos = (872,730);
},
{
name = top;
pos = (466,730);
}
);
attr = {
color = 1;
};
layerId = "E87239EE-82B8-404C-B23A-53843E270889";
shapes = (
{
attr = {
gradient = {
colors = (
(
(191,255),
0
),
(
(64,255),
1
)
);
end = (0.4877,0.9217);
start = (0.4155,-0.0037);
};
};
closed = 1;
nodes = (
(619,0,l),
(618,0,l),
(618,730,l),
(872,730,l),
(872,207,l)
);
},
{
attr = {
gradient = {
colors = (
(
(191,255),
0
),
(
(64,255),
1
)
);
end = (0.8878,0.5878);
start = (0.0693,0.513);
};
};
closed = 1;
nodes = (
(25,243,l),
(25,244,l),
(618,244,l),
(618,0,l),
(227,0,l)
);
},
{
attr = {
gradient = {
colors = (
(
(191,255),
0
),
(
(64,255),
1
)
);
end = (0.3691,0.1797);
start = (0.4192,0.8964);
};
};
closed = 1;
nodes = (
(279,730,l),
(279,244,l),
(278,244,l),
(25,244,l),
(25,730,l)
);
}
);
width = 897;
},
{
associatedMasterId = "33AE93C6-B8B3-427A-A53B-F24970E840CE";
attr = {
color = 1;
colorPalette = 0;
svg = 1;
};
layerId = "7C169FB6-5B5D-4FDF-AE8E-581A4BA54389";
name = "Thin-Condensed 8 Nov 21, 07:45";
shapes = (
{
attr = {
gradient = {
colors = (
(
(191,255),
0
),
(
(64,255),
1
)
);
end = (0.5074,0.9658);
start = (0.6091,0.0797);
};
};
closed = 1;
nodes = (
(197,0,l),
(196,0,l),
(196,700,l),
(220,700,l),
(220,23,l)
);
},
{
attr = {
gradient = {
colors = (
(
(191,255),
0
),
(
(64,255),
1
)
);
end = (0.8878,0.5878);
start = (0.0693,0.513);
};
};
closed = 1;
nodes = (
(53,23,l),
(53,24,l),
(196,24,l),
(196,0,l),
(76,0,l)
);
},
{
attr = {
gradient = {
colors = (
(
(64,255),
0
),
(
(191,255),
0.50056
),
(
(64,255),
1
)
);
end = (1.2582,0.0143);
start = (-0.3003,0.8873);
};
};
closed = 1;
nodes = (
(76,700,l),
(77,700,l),
(77,24,l),
(53,24,l),
(53,700,l)
);
}
);
visible = 1;
width = 273;
},
{
anchors = (
{
name = top;
pos = (138,700);
}
);
associatedMasterId = "E87239EE-82B8-404C-B23A-53843E270889";
attr = {
color = 1;
svg = 1;
};
layerId = "DA7FA552-58B1-494C-BD9E-FF2B4B12E076";
name = "ExtraBold-Expanded 2 Nov 21, 12:04";
shapes = (
{
attr = {
gradient = {
colors = (
(
(255,0,0,255),
0
),
(
(0,0,255,255),
1
)
);
end = (0.9,0.9);
start = (0.1,0.1);
};
};
closed = 1;
nodes = (
(25,86,l),
(368,86,l),
(368,635,l),
(25,635,l)
);
}
);
visible = 1;
width = 897;
}
);
unicode = 85;
},
{
glyphname = V;
lastChange = "2021-11-04 11:41:03 +0000";
layers = (
{
attr = {
color = 1;
};
layerId = "33AE93C6-B8B3-427A-A53B-F24970E840CE";
shapes = (
{
attr = {
gradient = {
colors = (
(
(64,255),
0
),
(
(194,255),
1
)
);
end = (0.077,1.0037);
start = (0.8521,0.1516);
};
};
closed = 1;
nodes = (
(77,700,l),
(160,12,l),
(138,0,l),
(137,0,l),
(53,700,l)
);
},
{
attr = {
gradient = {
colors = (
(
(191,255),
0
),
(
(64,255),
1
)
);
end = (0.9007,0.953);
start = (-0.0063,0.0106);
};
};
closed = 1;
nodes = (
(161,0,l),
(138,0,l),
(213,700,l),
(237,700,l)
);
}
);
width = 290;
},
{
attr = {
color = 1;
};
layerId = "E87239EE-82B8-404C-B23A-53843E270889";
shapes = (
{
attr = {
gradient = {
colors = (
(
(64,255),
0
),
(
(194,255),
1
)
);
end = (0.1166,0.52);
start = (0.8241,0.2591);
};
};
closed = 1;
nodes = (
(309,730,l),
(552,192,l),
(354,0,l),
(353,0,l),
(25,730,l)
);
},
{
attr = {
gradient = {
colors = (
(
(191,255),
0
),
(
(64,255),
1
)
);
end = (0.8623,0.9513);
start = (0.1029,0.1158);
};
};
closed = 1;
nodes = (
(638,0,l),
(354,0,l),
(712,730,l),
(996,730,l)
);
}
);
width = 1021;
}
);
metricRight = "=|";
unicode = 86;
},
{
glyphname = W;
lastChange = "2021-11-12 13:26:17 +0000";
layers = (
{
anchors = (
{
name = top;
pos = (286,700);
}
);
attr = {
color = 1;
};
layerId = "33AE93C6-B8B3-427A-A53B-F24970E840CE";
shapes = (
{
attr = {
gradient = {
colors = (
(
(64,255),
0
),
(
(194,255),
1
)
);
end = (0.077,1.0037);
start = (0.8521,0.1516);
};
};
closed = 1;
nodes = (
(77,700,l),
(180,12,l),
(158,0,l),
(157,0,l),
(53,700,l)
);
},
{
attr = {
gradient = {
colors = (
(
(191,255),
0
),
(
(64,255),
1
)
);
end = (0.9007,0.953);
start = (-0.0063,0.0106);
};
};
closed = 1;
nodes = (
(181,0,l),
(158,0,l),
(273,700,l),
(297,699,l)
);
},
{
attr = {
gradient = {
colors = (
(
(64,255),
0
),
(
(194,255),
1
)
);
end = (0.077,1.0037);
start = (0.8521,0.1516);
};
};
closed = 1;
nodes = (
(297,700,l),
(420,12,l),
(398,0,l),
(397,0,l),
(273,700,l)
);
},
{
attr = {
gradient = {
colors = (
(
(191,255),
0
),
(
(64,255),
1
)
);
end = (0.9007,0.953);
start = (-0.0063,0.0106);
};
};
closed = 1;
nodes = (
(421,0,l),
(398,0,l),
(493,700,l),
(517,700,l)
);
}
);
width = 570;
},
{
anchors = (
{
name = top;
pos = (688,730);
}
);
attr = {
color = 1;
};
layerId = "E87239EE-82B8-404C-B23A-53843E270889";
shapes = (
{
attr = {
gradient = {
colors = (
(
(64,255),
0
),
(
(194,255),
1
)
);
end = (0.0816,1.0122);
start = (0.7099,0.2874);
};
};
closed = 1;
nodes = (
(299,730,l),
(462,192,l),
(264,0,l),
(253,0,l),
(15,730,l)
);
},
{
attr = {
gradient = {
colors = (
(
(191,255),
0
),
(
(64,255),
1
)
);
end = (0.6039,0.6203);
start = (0.205,-0.0209);
};
};
closed = 1;
nodes = (
(538,0,l),
(264,0,l),
(542,730,l),
(816,729,l)
);
},
{
attr = {
gradient = {
colors = (
(
(64,255),
0
),
(
(194,255),
1
)
);
end = (0.0901,1.0073);
start = (0.7692,0.3835);
};
};
closed = 1;
nodes = (
(816,730,l),
(989,192,l),
(791,0,l),
(790,0,l),
(542,730,l)
);
},
{
attr = {
gradient = {
colors = (
(
(191,255),
0
),
(
(64,255),
1
)
);
end = (0.9035,0.89);
start = (0.2635,-0.0272);
};
};
closed = 1;
nodes = (
(1075,0,l),
(791,0,l),
(1059,730,l),
(1343,730,l)
);
}
);
width = 1358;
}
);
metricRight = "=|";
unicode = 87;
},
{
glyphname = X;
lastChange = "2021-11-04 11:47:28 +0000";
layers = (
{
attr = {
color = 1;
};
layerId = "33AE93C6-B8B3-427A-A53B-F24970E840CE";
shapes = (
{
attr = {
gradient = {
colors = (
(
(64,255),
0
),
(
(194,255),
1
)
);
end = (0.077,1.0037);
start = (0.8521,0.1516);
};
};
closed = 1;
nodes = (
(77,700,l),
(160,356,l),
(138,350,l),
(137,350,l),
(53,700,l)
);
},
{
attr = {
gradient = {
colors = (
(
(191,255),
0
),
(
(64,255),
1
)
);
end = (0.9007,0.953);
start = (-0.0063,0.0106);
};
};
closed = 1;
nodes = (
(161,350,l),
(138,350,l),
(213,700,l),
(237,700,l)
);
},
{
attr = {
gradient = {
colors = (
(
(191,255),
0
),
(
(64,255),
1
)
);
end = (0.1475,0.8504);
start = (0.8714,-0.0036);
};
};
closed = 1;
nodes = (
(220,0,l),
(138,344,l),
(160,350,l),
(161,350,l),
(244,0,l)
);
},
{
attr = {
gradient = {
colors = (
(
(64,255),
0
),
(
(191,255),
1
)
);
end = (1.0293,0.9995);
start = (0.1591,0.0173);
};
};
closed = 1;
nodes = (
(137,350,l),
(160,350,l),
(84,0,l),
(60,0,l)
);
}
);
width = 297;
},
{
attr = {
color = 1;
};
layerId = "E87239EE-82B8-404C-B23A-53843E270889";
shapes = (
{
attr = {
gradient = {
colors = (
(
(64,255),
0
),
(
(194,255),
1
)
);
end = (0.1166,0.52);
start = (0.8241,0.2591);
};
};
closed = 1;
nodes = (
(329,730,l),
(452,557,l),
(294,365,l),
(293,365,l),
(45,730,l)
);
},
{
attr = {
gradient = {
colors = (
(
(191,255),
0
),
(
(64,255),
1
)
);
end = (0.8623,0.9513);
start = (0.1029,0.1158);
};
};
closed = 1;
nodes = (
(586,365,l),
(294,365,l),
(572,730,l),
(864,730,l)
);
},
{
attr = {
gradient = {
colors = (
(
(191,255),
0
),
(
(64,255),
1
)
);
end = (0.1166,0.52);
start = (0.8241,0.2591);
};
};
closed = 1;
nodes = (
(550,0,l),
(427,173,l),
(585,365,l),
(586,365,l),
(834,0,l)
);
},
{
attr = {
gradient = {
colors = (
(
(64,255),
0
),
(
(191,255),
1
)
);
end = (0.8623,0.9513);
start = (0.1029,0.1158);
};
};
closed = 1;
nodes = (
(293,365,l),
(585,365,l),
(307,0,l),
(15,0,l)
);
}
);
width = 879;
}
);
metricRight = "=|";
unicode = 88;
},
{
glyphname = Y;
lastChange = "2021-11-17 12:50:33 +0000";
layers = (
{
anchors = (
{
name = bottom;
pos = (149,0);
},
{
name = top;
pos = (147,700);
}
);
attr = {
color = 1;
};
layerId = "33AE93C6-B8B3-427A-A53B-F24970E840CE";
shapes = (
{
attr = {
gradient = {
colors = (
(
(64,255),
0
),
(
(194,255),
1
)
);
end = (0.077,1.0037);
start = (0.8521,0.1516);
};
};
closed = 1;
nodes = (
(67,700,l),
(160,356,l),
(138,350,l),
(137,350,l),
(43,700,l)
);
},
{
attr = {
gradient = {
colors = (
(
(191,255),
0
),
(
(64,255),
1
)
);
end = (0.9007,0.953);
start = (-0.0063,0.0106);
};
};
closed = 1;
nodes = (
(161,350,l),
(138,350,l),
(223,700,l),
(247,700,l)
);
},
{
attr = {
gradient = {
colors = (
(
(64,255),
0
),
(
(191,255),
1
)
);
end = (0.4056,0.1204);
start = (0.4192,0.8964);
};
};
closed = 1;
nodes = (
(137,0,l),
(137,350,l),
(161,350,l),
(161,0,l)
);
}
);
width = 290;
},
{
anchors = (
{
name = bottom;
pos = (412,0);
},
{
name = top;
pos = (438,730);
}
);
attr = {
color = 1;
};
layerId = "E87239EE-82B8-404C-B23A-53843E270889";
shapes = (
{
attr = {
gradient = {
colors = (
(
(64,255),
0
),
(
(194,255),
1
)
);
end = (0.0249,0.9726);
start = (0.8241,0.2591);
};
};
closed = 1;
nodes = (
(288,730,l),
(431,467,l),
(284,285,l),
(283,285,l),
(25,730,l)
);
},
{
attr = {
gradient = {
colors = (
(
(191,255),
0
),
(
(64,255),
1
)
);
end = (0.8623,0.9513);
start = (0.1029,0.1158);
};
};
closed = 1;
nodes = (
(547,285,l),
(284,285,l),
(541,730,l),
(805,730,l)
);
},
{
attr = {
gradient = {
colors = (
(
(64,255),
0
),
(
(191,255),
1
)
);
end = (0.0671,0.0253);
start = (1.0226,1.1528);
};
};
closed = 1;
nodes = (
(283,0,l),
(283,285,l),
(547,285,l),
(547,0,l)
);
}
);
width = 830;
}
);
metricRight = "=|";
unicode = 89;
},
{
glyphname = Z;
lastChange = "2021-11-10 16:01:51 +0000";
layers = (
{
anchors = (
{
name = top;
pos = (138,700);
}
);
attr = {
color = 1;
};
layerId = "33AE93C6-B8B3-427A-A53B-F24970E840CE";
shapes = (
{
attr = {
gradient = {
colors = (
(
(191,255),
0
),
(
(64,255),
1
)
);
end = (0.8878,0.5878);
start = (0.0693,0.513);
};
};
closed = 1;
nodes = (
(186,700,l),
(183,676,l),
(53,676,l),
(53,677,l),
(53,700,l)
);
},
{
attr = {
gradient = {
colors = (
(
(64,255),
0
),
(
(191,255),
1
)
);
end = (0.1006,0.9261);
start = (0.8563,0.0865);
};
};
closed = 1;
nodes = (
(53,24,l),
(53,25,l),
(186,700,l),
(209,667,l),
(76,24,l)
);
},
{
attr = {
gradient = {
colors = (
(
(191,255),
0
),
(
(64,255),
1
)
);
end = (0.9403,0.817);
start = (0.0693,0.513);
};
};
closed = 1;
nodes = (
(76,0,l),
(53,24,l),
(209,24,l),
(209,23,l),
(209,0,l)
);
}
);
width = 262;
},
{
anchors = (
{
name = top;
pos = (376,730);
}
);
attr = {
color = 1;
};
layerId = "E87239EE-82B8-404C-B23A-53843E270889";
shapes = (
{
attr = {
gradient = {
colors = (
(
(191,255),
0
),
(
(64,255),
1
)
);
end = (0.5665,-0.135);
start = (0.1353,1.0072);
};
};
closed = 1;
nodes = (
(634,730,l),
(608,486,l),
(25,486,l),
(25,487,l),
(25,730,l)
);
},
{
attr = {
gradient = {
colors = (
(
(64,255),
0
),
(
(191,255),
1
)
);
end = (0.8927,1.0894);
start = (0.4509,0.1311);
};
};
closed = 1;
nodes = (
(31,244,l),
(31,245,l),
(634,730,l),
(774,535,l),
(324,119,l)
);
},
{
attr = {
gradient = {
colors = (
(
(191,255),
0
),
(
(64,255),
1
)
);
end = (0.9726,0.891);
start = (-0.0344,0.0083);
};
};
closed = 1;
nodes = (
(31,0,l),
(31,244,l),
(780,244,l),
(780,243,l),
(780,0,l)
);
}
);
width = 805;
}
);
metricRight = "=|";
unicode = 90;
},
{
glyphname = a;
lastChange = "2021-11-12 17:31:33 +0000";
layers = (
{
anchors = (
{
name = bottom;
pos = (105,0);
},
{
name = top;
pos = (105,500);
}
);
attr = {
color = 1;
};
layerId = "33AE93C6-B8B3-427A-A53B-F24970E840CE";
shapes = (
{
attr = {
gradient = {
colors = (
(
(64,255),
0
),
(
(191,255),
1
)
);
end = (0.4877,0.9217);
start = (0.4155,-0.0037);
};
};
closed = 1;
nodes = (
(76,500,l),
(77,500,l),
(77,24,l),
(53,24,l),
(53,477,l)
);
},
{
attr = {
gradient = {
colors = (
(
(64,255),
0
),
(
(191,255),
1
)
);
end = (0.8878,0.5878);
start = (0.0693,0.513);
};
};
closed = 1;
nodes = (
(150,477,l),
(150,476,l),
(77,476,l),
(77,500,l),
(127,500,l)
);
},
{
attr = {
gradient = {
colors = (
(
(64,255),
0
),
(
(191,255),
1
)
);
end = (0.4056,0.1204);
start = (0.4192,0.8964);
};
};
closed = 1;
nodes = (
(127,0,l),
(126,0,l),
(126,476,l),
(150,476,l),
(150,0,l)
);
},
{
attr = {
gradient = {
colors = (
(
(191,255),
0
),
(
(64,255),
1
)
);
end = (0.8878,0.5878);
start = (0.0693,0.513);
};
};
closed = 1;
nodes = (
(53,23,l),
(53,24,l),
(126,24,l),
(126,0,l),
(76,0,l)
);
}
);
width = 203;
},
{
anchors = (
{
name = bottom;
pos = (441,0);
},
{
name = top;
pos = (452,530);
}
);
attr = {
color = 1;
};
layerId = "E87239EE-82B8-404C-B23A-53843E270889";
shapes = (
{
attr = {
gradient = {
colors = (
(
(64,255),
0
),
(
(191,255),
1
)
);
end = (0.4877,0.9217);
start = (0.4155,-0.0037);
};
};
closed = 1;
nodes = (
(248,530,l),
(249,530,l),
(249,204,l),
(35,204,l),
(35,423,l)
);
},
{
attr = {
gradient = {
colors = (
(
(64,255),
0
),
(
(191,255),
1
)
);
end = (0.8878,0.5878);
start = (0.0693,0.513);
};
};
closed = 1;
nodes = (
(792,327,l),
(792,326,l),
(249,326,l),
(249,530,l),
(685,530,l)
);
},
{
attr = {
gradient = {
colors = (
(
(64,255),
0
),
(
(191,255),
1
)
);
end = (0.4056,0.1204);
start = (0.4192,0.8964);
};
};
closed = 1;
nodes = (
(579,0,l),
(578,0,l),
(578,326,l),
(792,326,l),
(792,0,l)
);
},
{
attr = {
gradient = {
colors = (
(
(191,255),
0
),
(
(64,255),
1
)
);
end = (0.8878,0.5878);
start = (0.0693,0.513);
};
};
closed = 1;
nodes = (
(35,203,l),
(35,204,l),
(578,204,l),
(578,0,l),
(142,0,l)
);
}
);
width = 827;
}
);
metricRight = "=|";
unicode = 97;
},
{
glyphname = ae;
lastChange = "2021-11-12 17:27:37 +0000";
layers = (
{
anchors = (
{
name = top;
pos = (103,500);
}
);
attr = {
color = 1;
};
layerId = "33AE93C6-B8B3-427A-A53B-F24970E840CE";
shapes = (
{
attr = {
gradient = {
colors = (
(
(191,255),
0
),
(
(64,255),
1
)
);
end = (0.8878,0.5878);
start = (0.0693,0.513);
};
};
closed = 1;
nodes = (
(53,23,l),
(53,24,l),
(126,24,l),
(150,0,l),
(76,0,l)
);
},
{
attr = {
gradient = {
colors = (
(
(64,255),
0
),
(
(191,255),
1
)
);
end = (0.8878,0.5878);
start = (0.0693,0.513);
};
};
closed = 1;
nodes = (
(224,477,l),
(224,476,l),
(151,476,l),
(151,500,l),
(201,500,l)
);
},
{
attr = {
gradient = {
colors = (
(
(64,255),
0
),
(
(191,255),
1
)
);
end = (0.4056,0.1204);
start = (0.4192,0.8964);
};
};
closed = 1;
nodes = (
(126,24,l),
(126,476,l),
(150,476,l),
(150,0,l)
);
},
{
attr = {
gradient = {
colors = (
(
(64,255),
0
),
(
(191,255),
1
)
);
end = (0.8878,0.5878);
start = (0.0693,0.513);
};
};
closed = 1;
nodes = (
(200,202,l),
(151,202,l),
(151,226,l),
(200,226,l)
);
},
{
attr = {
gradient = {
colors = (
(
(64,255),
0
),
(
(191,255),
1
)
);
end = (0.4056,0.1204);
start = (0.4192,0.8964);
};
};
closed = 1;
nodes = (
(201,202,l),
(200,202,l),
(200,476,l),
(224,476,l),
(224,225,l)
);
},
{
attr = {
gradient = {
colors = (
(
(64,255),
0
),
(
(191,255),
1
)
);
end = (0.4877,0.9217);
start = (0.4155,-0.0037);
};
};
closed = 1;
nodes = (
(76,500,l),
(77,500,l),
(77,24,l),
(53,24,l),
(53,477,l)
);
},
{
attr = {
gradient = {
colors = (
(
(191,255),
0
),
(
(64,255),
1
)
);
end = (0.8878,0.5878);
start = (0.0693,0.513);
};
};
closed = 1;
nodes = (
(150,23,l),
(150,24,l),
(224,24,l),
(224,23,l),
(201,0,l),
(150,0,l)
);
},
{
attr = {
gradient = {
colors = (
(
(64,255),
0
),
(
(191,255),
1
)
);
end = (0.8878,0.5878);
start = (0.0693,0.513);
};
};
closed = 1;
nodes = (
(150,477,l),
(150,476,l),
(77,476,l),
(77,500,l),
(127,500,l)
);
}
);
width = 277;
},
{
anchors = (
{
name = top;
pos = (452,530);
}
);
attr = {
color = 1;
};
layerId = "E87239EE-82B8-404C-B23A-53843E270889";
shapes = (
{
attr = {
gradient = {
colors = (
(
(191,255),
0
),
(
(64,255),
1
)
);
end = (0.8878,0.5878);
start = (0.0693,0.513);
};
};
closed = 1;
nodes = (
(25,203,l),
(25,204,l),
(578,204,l),
(792,0,l),
(132,0,l)
);
},
{
attr = {
gradient = {
colors = (
(
(64,255),
0
),
(
(191,255),
1
)
);
end = (0.8878,0.5878);
start = (0.0196,0.4891);
};
};
closed = 1;
nodes = (
(1345,352,l),
(1345,351,l),
(578,351,l),
(792,530,l),
(1238,530,l)
);
},
{
attr = {
gradient = {
colors = (
(
(64,255),
0
),
(
(191,255),
1
)
);
end = (0.919,0.0061);
start = (0.066,0.9748);
};
};
closed = 1;
nodes = (
(578,199,l),
(578,326,l),
(792,326,l),
(792,0,l)
);
},
{
attr = {
gradient = {
colors = (
(
(64,255),
0
),
(
(191,255),
1
)
);
end = (0.1222,0.0774);
start = (0.9519,0.8584);
};
};
closed = 1;
nodes = (
(1131,221,l),
(792,220,l),
(792,331,l),
(1131,331,l)
);
},
{
attr = {
gradient = {
colors = (
(
(64,255),
0
),
(
(191,255),
1
)
);
end = (0.4664,0.1377);
start = (0.4202,0.9309);
};
};
closed = 1;
nodes = (
(1132,221,l),
(1131,221,l),
(1131,351,l),
(1345,351,l),
(1345,328,l)
);
},
{
attr = {
gradient = {
colors = (
(
(64,255),
0
),
(
(191,255),
1
)
);
end = (0.4877,0.9217);
start = (0.4155,-0.0037);
};
};
closed = 1;
nodes = (
(248,530,l),
(249,530,l),
(249,204,l),
(35,204,l),
(35,423,l)
);
},
{
attr = {
gradient = {
colors = (
(
(191,255),
0
),
(
(64,255),
1
)
);
end = (0.014,0.9151);
start = (0.7914,0.1042);
};
};
closed = 1;
nodes = (
(792,199,l),
(792,200,l),
(1345,200,l),
(1345,199,l),
(1238,0,l),
(792,0,l)
);
},
{
attr = {
gradient = {
colors = (
(
(64,255),
0
),
(
(191,255),
1
)
);
end = (0.8878,0.5878);
start = (0.0693,0.513);
};
};
closed = 1;
nodes = (
(792,327,l),
(792,326,l),
(249,326,l),
(249,530,l),
(685,530,l)
);
}
);
width = 1370;
}
);
unicode = 230;
},
{
glyphname = b;
lastChange = "2021-11-27 10:50:53 +0000";
layers = (
{
attr = {
color = 1;
};
layerId = "33AE93C6-B8B3-427A-A53B-F24970E840CE";
shapes = (
{
attr = {
gradient = {
colors = (
(
(64,255),
0
),
(
(191,255),
0.52889
),
(
(64,255),
1
)
);
end = (0.652,0.0627);
start = (0.4192,0.8964);
};
};
closed = 1;
nodes = (
(77,730,l),
(77,25,l),
(77,24,l),
(53,24,l),
(53,730,l)
);
},
{
attr = {
gradient = {
colors = (
(
(64,255),
0
),
(
(191,255),
1
)
);
end = (0.8878,0.5878);
start = (0.0693,0.513);
};
};
closed = 1;
nodes = (
(150,477,l),
(150,476,l),
(77,476,l),
(77,500,l),
(127,500,l)
);
},
{
attr = {
gradient = {
colors = (
(
(64,255),
0
),
(
(191,255),
1
)
);
end = (0.4056,0.1204);
start = (0.4192,0.8964);
};
};
closed = 1;
nodes = (
(127,0,l),
(126,0,l),
(126,476,l),
(150,476,l),
(150,23,l)
);
},
{
attr = {
gradient = {
colors = (
(
(191,255),
0
),
(
(64,255),
1
)
);
end = (0.8878,0.5878);
start = (0.0693,0.513);
};
};
closed = 1;
nodes = (
(53,23,l),
(52,24,l),
(126,24,l),
(126,0,l),
(76,0,l)
);
}
);
width = 203;
},
{
attr = {
color = 1;
};
layerId = "E87239EE-82B8-404C-B23A-53843E270889";
shapes = (
{
attr = {
gradient = {
colors = (
(
(64,255),
0
),
(
(191,255),
0.55524
),
(
(64,255),
1
)
);
end = (-0.0215,0.951);
start = (0.8544,-0.1436);
};
};
closed = 1;
nodes = (
(248,794,l),
(249,530,l),
(249,204,l),
(35,204,l),
(35,794,l)
);
},
{
attr = {
gradient = {
colors = (
(
(64,255),
0
),
(
(191,255),
1
)
);
end = (0.8878,0.5878);
start = (0.0693,0.513);
};
};
closed = 1;
nodes = (
(773,327,l),
(773,326,l),
(249,326,l),
(249,530,l),
(671,530,l)
);
},
{
attr = {
gradient = {
colors = (
(
(64,255),
0
),
(
(191,255),
1
)
);
end = (0.4056,0.1204);
start = (0.4192,0.8964);
};
};
closed = 1;
nodes = (
(560,0,l),
(559,0,l),
(559,326,l),
(773,326,l),
(773,107,l)
);
},
{
attr = {
gradient = {
colors = (
(
(191,255),
0
),
(
(64,255),
1
)
);
end = (0.8878,0.5878);
start = (0.0693,0.513);
};
};
closed = 1;
nodes = (
(35,203,l),
(35,204,l),
(559,204,l),
(559,0,l),
(137,0,l)
);
}
);
width = 808;
}
);
unicode = 98;
},
{
glyphname = c;
lastChange = "2021-11-18 15:41:02 +0000";
layers = (
{
anchors = (
{
name = bottom;
pos = (105,0);
},
{
name = top;
pos = (103,500);
}
);
attr = {
color = 1;
};
layerId = "33AE93C6-B8B3-427A-A53B-F24970E840CE";
shapes = (
{
attr = {
gradient = {
colors = (
(
(64,255),
0
),
(
(191,255),
1
)
);
end = (0.4877,0.9217);
start = (0.4155,-0.0037);
};
};
closed = 1;
nodes = (
(76,500,l),
(77,500,l),
(77,24,l),
(53,24,l),
(53,477,l)
);
},
{
attr = {
gradient = {
colors = (
(
(64,255),
0
),
(
(191,255),
1
)
);
end = (0.8878,0.5878);
start = (0.0693,0.513);
};
};
closed = 1;
nodes = (
(150,477,l),
(150,476,l),
(77,476,l),
(77,500,l),
(127,500,l)
);
},
{
attr = {
gradient = {
colors = (
(
(191,255),
0
),
(
(64,255),
1
)
);
end = (0.8878,0.5878);
start = (0.0693,0.513);
};
};
closed = 1;
nodes = (
(53,23,l),
(53,24,l),
(139,24,l),
(139,23,l),
(116,0,l),
(76,0,l)
);
}
);
width = 203;
},
{
anchors = (
{
name = bottom;
pos = (405,0);
},
{
name = top;
pos = (422,530);
}
);
attr = {
color = 1;
};
layerId = "E87239EE-82B8-404C-B23A-53843E270889";
shapes = (
{
attr = {
gradient = {
colors = (
(
(64,255),
0
),
(
(191,255),
1
)
);
end = (0.4877,0.9217);
start = (0.4155,-0.0037);
};
};
closed = 1;
nodes = (
(248,530,l),
(249,530,l),
(249,200,l),
(35,200,l),
(35,423,l)
);
},
{
attr = {
gradient = {
colors = (
(
(64,255),
0
),
(
(191,255),
1
)
);
end = (0.8878,0.5878);
start = (0.0693,0.513);
};
};
closed = 1;
nodes = (
(742,352,l),
(742,351,l),
(249,351,l),
(249,530,l),
(635,530,l)
);
},
{
attr = {
gradient = {
colors = (
(
(191,255),
0
),
(
(64,255),
1
)
);
end = (0.8878,0.5878);
start = (0.0693,0.513);
};
};
closed = 1;
nodes = (
(35,199,l),
(35,200,l),
(742,200,l),
(742,199,l),
(635,0,l),
(142,0,l)
);
}
);
width = 777;
}
);
metricRight = "=|";
unicode = 99;
},
{
glyphname = d;
lastChange = "2021-11-27 10:53:24 +0000";
layers = (
{
anchors = (
{
name = top;
pos = (103,500);
}
);
attr = {
color = 1;
};
layerId = "33AE93C6-B8B3-427A-A53B-F24970E840CE";
shapes = (
{
attr = {
gradient = {
colors = (
(
(64,255),
0
),
(
(191,255),
1
)
);
end = (0.4877,0.9217);
start = (0.4155,-0.0037);
};
};
closed = 1;
nodes = (
(76,500,l),
(77,500,l),
(77,24,l),
(53,24,l),
(53,477,l)
);
},
{
attr = {
gradient = {
colors = (
(
(64,255),
0
),
(
(191,255),
1
)
);
end = (0.8878,0.5878);
start = (0.0693,0.513);
};
};
closed = 1;
nodes = (
(150,477,l),
(150,476,l),
(77,476,l),
(77,500,l),
(127,500,l)
);
},
{
attr = {
gradient = {
colors = (
(
(64,255),
0
),
(
(191,255),
1
)
);
end = (0.4056,0.1204);
start = (0.4192,0.8964);
};
};
closed = 1;
nodes = (
(127,0,l),
(126,0,l),
(126,476,l),
(150,476,l),
(150,23,l)
);
},
{
attr = {
gradient = {
colors = (
(
(191,255),
0
),
(
(64,255),
1
)
);
end = (0.8878,0.5878);
start = (0.0693,0.513);
};
};
closed = 1;
nodes = (
(53,23,l),
(53,24,l),
(126,24,l),
(126,0,l),
(76,0,l)
);
},
{
attr = {
gradient = {
colors = (
(
(64,255),
0
),
(
(191,255),
1
)
);
end = (0.4056,0.1204);
start = (0.4192,0.8964);
};
};
closed = 1;
nodes = (
(126,730,l),
(150,730,l),
(150,477,l),
(149,477,l),
(126,500,l)
);
}
);
width = 203;
},
{
anchors = (
{
name = top;
pos = (462,530);
}
);
attr = {
color = 1;
};
layerId = "E87239EE-82B8-404C-B23A-53843E270889";
shapes = (
{
attr = {
gradient = {
colors = (
(
(64,255),
0
),
(
(191,255),
1
)
);
end = (0.4877,0.9217);
start = (0.4155,-0.0037);
};
};
closed = 1;
nodes = (
(258,530,l),
(259,530,l),
(259,204,l),
(45,204,l),
(45,423,l)
);
},
{
attr = {
gradient = {
colors = (
(
(64,255),
0
),
(
(191,255),
1
)
);
end = (0.4963,0.709);
start = (-0.0147,0.445);
};
};
closed = 1;
nodes = (
(783,327,l),
(783,326,l),
(259,326,l),
(259,530,l),
(621,530,l)
);
},
{
attr = {
gradient = {
colors = (
(
(64,255),
0
),
(
(191,255),
1
)
);
end = (0.4056,0.1204);
start = (0.4192,0.8964);
};
};
closed = 1;
nodes = (
(570,0,l),
(569,0,l),
(569,326,l),
(783,326,l),
(783,107,l)
);
},
{
attr = {
gradient = {
colors = (
(
(191,255),
0
),
(
(64,255),
1
)
);
end = (0.8878,0.5878);
start = (0.0693,0.513);
};
};
closed = 1;
nodes = (
(45,203,l),
(45,204,l),
(569,204,l),
(569,0,l),
(147,0,l)
);
},
{
attr = {
gradient = {
colors = (
(
(64,255),
0
),
(
(191,255),
1
)
);
end = (0.2691,0.1936);
start = (0.4192,0.8964);
};
};
closed = 1;
nodes = (
(569,794,l),
(783,794,l),
(783,329,l),
(782,329,l),
(569,530,l)
);
}
);
width = 818;
}
);
metricLeft = o;
metricRight = n;
unicode = 100;
},
{
glyphname = e;
lastChange = "2021-11-16 13:01:53 +0000";
layers = (
{
anchors = (
{
name = bottom;
pos = (104,0);
},
{
name = top;
pos = (103,500);
}
);
attr = {
color = 1;
};
layerId = "33AE93C6-B8B3-427A-A53B-F24970E840CE";
shapes = (
{
attr = {
gradient = {
colors = (
(
(64,255),
0
),
(
(191,255),
1
)
);
end = (0.4877,0.9217);
start = (0.4155,-0.0037);
};
};
closed = 1;
nodes = (
(76,500,l),
(77,500,l),
(77,24,l),
(53,24,l),
(53,477,l)
);
},
{
attr = {
gradient = {
colors = (
(
(64,255),
0
),
(
(191,255),
1
)
);
end = (0.8878,0.5878);
start = (0.0693,0.513);
};
};
closed = 1;
nodes = (
(150,477,l),
(150,476,l),
(77,476,l),
(77,500,l),
(127,500,l)
);
},
{
attr = {
gradient = {
colors = (
(
(191,255),
0
),
(
(64,255),
1
)
);
end = (0.8878,0.5878);
start = (0.0693,0.513);
};
};
closed = 1;
nodes = (
(53,23,l),
(53,24,l),
(150,24,l),
(150,23,l),
(127,0,l),
(76,0,l)
);
},
{
attr = {
gradient = {
colors = (
(
(191,255),
0
),
(
(64,255),
1
)
);
end = (0.8878,0.5878);
start = (0.0693,0.513);
};
};
closed = 1;
nodes = (
(126,202,l),
(77,202,l),
(77,226,l),
(126,226,l)
);
},
{
attr = {
gradient = {
colors = (
(
(64,255),
0
),
(
(191,255),
1
)
);
end = (0.4056,0.1204);
start = (0.4192,0.8964);
};
};
closed = 1;
nodes = (
(127,202,l),
(126,202,l),
(126,476,l),
(150,476,l),
(150,225,l)
);
}
);
width = 203;
},
{
anchors = (
{
name = bottom;
pos = (421,0);
},
{
name = top;
pos = (442,530);
}
);
attr = {
color = 1;
};
layerId = "E87239EE-82B8-404C-B23A-53843E270889";
shapes = (
{
attr = {
gradient = {
colors = (
(
(64,255),
0
),
(
(191,255),
1
)
);
end = (0.4877,0.9217);
start = (0.4155,-0.0037);
};
};
closed = 1;
nodes = (
(248,530,l),
(249,530,l),
(249,200,l),
(35,200,l),
(35,423,l)
);
},
{
attr = {
gradient = {
colors = (
(
(64,255),
0
),
(
(191,255),
1
)
);
end = (0.8878,0.5878);
start = (0.0693,0.513);
};
};
closed = 1;
nodes = (
(802,352,l),
(802,351,l),
(249,351,l),
(249,530,l),
(695,530,l)
);
},
{
attr = {
gradient = {
colors = (
(
(191,255),
0
),
(
(64,255),
1
)
);
end = (0.8878,0.5878);
start = (0.0693,0.513);
};
};
closed = 1;
nodes = (
(35,199,l),
(35,200,l),
(802,200,l),
(802,199,l),
(695,0,l),
(142,0,l)
);
},
{
attr = {
gradient = {
colors = (
(
(64,255),
0
),
(
(191,255),
1
)
);
end = (-0.1291,-0.0145);
start = (0.9373,0.6017);
};
};
closed = 1;
nodes = (
(588,221,l),
(249,220,l),
(249,331,l),
(588,331,l)
);
},
{
attr = {
gradient = {
colors = (
(
(64,255),
0
),
(
(191,255),
1
)
);
end = (0.4664,0.1377);
start = (0.4202,0.9309);
};
};
closed = 1;
nodes = (
(589,221,l),
(588,221,l),
(588,351,l),
(802,351,l),
(802,328,l)
);
}
);
width = 837;
}
);
metricRight = "=|";
unicode = 101;
},
{
glyphname = schwa;
lastChange = "2021-11-16 13:04:51 +0000";
layers = (
{
attr = {
color = 1;
};
layerId = "33AE93C6-B8B3-427A-A53B-F24970E840CE";
shapes = (
{
attr = {
gradient = {
colors = (
(
(191,255),
0
),
(
(64,255),
1
)
);
end = (0.4877,0.9217);
start = (0.4155,-0.0037);
};
};
closed = 1;
nodes = (
(127,0,l),
(126,0,l),
(126,476,l),
(150,476,l),
(150,23,l)
);
},
{
attr = {
gradient = {
colors = (
(
(191,255),
0
),
(
(64,255),
1
)
);
end = (0.8878,0.5878);
start = (0.0693,0.513);
};
};
closed = 1;
nodes = (
(53,23,l),
(53,24,l),
(126,24,l),
(126,0,l),
(76,0,l)
);
},
{
attr = {
gradient = {
colors = (
(
(64,255),
0
),
(
(191,255),
1
)
);
end = (0.8878,0.5878);
start = (0.0693,0.513);
};
};
closed = 1;
nodes = (
(150,477,l),
(150,476,l),
(53,476,l),
(53,477,l),
(53,500,l),
(127,500,l)
);
},
{
attr = {
gradient = {
colors = (
(
(64,255),
0
),
(
(191,255),
1
)
);
end = (0.8878,0.5878);
start = (0.0693,0.513);
};
};
closed = 1;
nodes = (
(77,298,l),
(126,298,l),
(126,274,l),
(77,274,l)
);
},
{
attr = {
gradient = {
colors = (
(
(191,255),
0
),
(
(64,255),
1
)
);
end = (0.4056,0.1204);
start = (0.4192,0.8964);
};
};
closed = 1;
nodes = (
(76,298,l),
(77,298,l),
(77,24,l),
(53,24,l),
(53,275,l)
);
}
);
width = 203;
},
{
attr = {
color = 1;
};
layerId = "E87239EE-82B8-404C-B23A-53843E270889";
shapes = (
{
attr = {
gradient = {
colors = (
(
(191,255),
0
),
(
(64,255),
1
)
);
end = (0.4877,0.9217);
start = (0.4155,-0.0037);
};
};
closed = 1;
nodes = (
(589,0,l),
(588,0,l),
(588,330,l),
(802,330,l),
(802,107,l)
);
},
{
attr = {
gradient = {
colors = (
(
(191,255),
0
),
(
(64,255),
1
)
);
end = (0.8878,0.5878);
start = (0.0693,0.513);
};
};
closed = 1;
nodes = (
(35,178,l),
(35,179,l),
(588,179,l),
(588,0,l),
(142,0,l)
);
},
{
attr = {
gradient = {
colors = (
(
(64,255),
0
),
(
(191,255),
1
)
);
end = (0.8878,0.5878);
start = (0.0693,0.513);
};
};
closed = 1;
nodes = (
(802,331,l),
(802,330,l),
(35,330,l),
(35,331,l),
(142,530,l),
(695,530,l)
);
},
{
attr = {
gradient = {
colors = (
(
(64,255),
0
),
(
(191,255),
1
)
);
end = (-0.1291,-0.0145);
start = (0.9373,0.6017);
};
};
closed = 1;
nodes = (
(249,309,l),
(588,310,l),
(588,199,l),
(249,199,l)
);
},
{
attr = {
gradient = {
colors = (
(
(191,255),
0
),
(
(64,255),
1
)
);
end = (0.4664,0.1377);
start = (0.4202,0.9309);
};
};
closed = 1;
nodes = (
(248,309,l),
(249,309,l),
(249,179,l),
(35,179,l),
(35,202,l)
);
}
);
width = 837;
}
);
unicode = 601;
},
{
glyphname = f;
lastChange = "2021-11-04 14:12:56 +0000";
layers = (
{
attr = {
color = 1;
};
layerId = "33AE93C6-B8B3-427A-A53B-F24970E840CE";
shapes = (
{
attr = {
gradient = {
colors = (
(
(64,255),
0
),
(
(191,255),
1
)
);
end = (0.2987,0.5719);
start = (0.9984,0.812);
};
};
closed = 1;
nodes = (
(54,377,l),
(131,377,l),
(131,353,l),
(77,353,l)
);
},
{
attr = {
gradient = {
colors = (
(
(64,255),
0
),
(
(191,255),
1
)
);
end = (0.7047,0.9664);
start = (0.4975,0.0797);
};
};
closed = 1;
nodes = (
(76,700,l),
(77,700,l),
(77,377,l),
(53,377,l),
(53,677,l)
);
},
{
attr = {
gradient = {
colors = (
(
(191,255),
0
),
(
(64,255),
1
)
);
end = (0.086,0.0815);
start = (0.863,0.8719);
};
};
closed = 1;
nodes = (
(160,677,l),
(160,676,l),
(77,676,l),
(77,700,l),
(137,700,l)
);
},
{
attr = {
gradient = {
colors = (
(
(64,255),
0
),
(
(191,255),
1
)
);
end = (0.4773,0.3265);
start = (0.3882,0.9444);
};
};
closed = 1;
nodes = (
(77,0,l),
(53,0,l),
(53,377,l),
(54,377,l),
(77,353,l)
);
}
);
width = 183;
},
{
attr = {
color = 1;
};
layerId = "E87239EE-82B8-404C-B23A-53843E270889";
shapes = (
{
attr = {
gradient = {
colors = (
(
(64,255),
0
),
(
(191,255),
1
)
);
end = (0.1375,0.9202);
start = (0.9984,0.812);
};
};
closed = 1;
nodes = (
(36,377,l),
(583,377,l),
(583,173,l),
(249,173,l)
);
},
{
attr = {
gradient = {
colors = (
(
(64,255),
0
),
(
(191,255),
1
)
);
end = (0.7047,0.9664);
start = (0.4975,0.0797);
};
};
closed = 1;
nodes = (
(248,703,l),
(249,703,l),
(249,377,l),
(35,377,l),
(35,596,l)
);
},
{
attr = {
gradient = {
colors = (
(
(191,255),
0
),
(
(64,255),
1
)
);
end = (0.086,0.0815);
start = (0.863,0.8719);
};
};
closed = 1;
nodes = (
(702,500,l),
(702,499,l),
(249,499,l),
(249,703,l),
(679,703,l)
);
},
{
attr = {
gradient = {
colors = (
(
(64,255),
0
),
(
(191,255),
1
)
);
end = (0.0672,0.9641);
start = (0.4641,0.0518);
};
};
closed = 1;
nodes = (
(249,0,l),
(35,0,l),
(35,377,l),
(36,377,l),
(249,173,l)
);
}
);
width = 607;
}
);
unicode = 102;
},
{
glyphname = g;
lastChange = "2021-11-10 15:00:18 +0000";
layers = (
{
anchors = (
{
name = top;
pos = (113,500);
}
);
attr = {
color = 1;
};
layerId = "33AE93C6-B8B3-427A-A53B-F24970E840CE";
shapes = (
{
attr = {
gradient = {
colors = (
(
(64,255),
0
),
(
(191,255),
1
)
);
end = (0.4056,0.1204);
start = (0.4192,0.8964);
};
};
closed = 1;
nodes = (
(127,-200,l),
(126,-200,l),
(126,476,l),
(150,476,l),
(149,-177,l)
);
},
{
attr = {
gradient = {
colors = (
(
(191,255),
0
),
(
(64,255),
1
)
);
end = (0.8878,0.5878);
start = (0.0693,0.513);
};
};
closed = 1;
nodes = (
(53,23,l),
(53,24,l),
(126,24,l),
(126,0,l),
(76,0,l)
);
},
{
attr = {
gradient = {
colors = (
(
(64,255),
0
),
(
(191,255),
1
)
);
end = (0.4877,0.9217);
start = (0.4155,-0.0037);
};
};
closed = 1;
nodes = (
(76,500,l),
(77,500,l),
(77,24,l),
(53,24,l),
(53,477,l)
);
},
{
attr = {
gradient = {
colors = (
(
(64,255),
0
),
(
(191,255),
1
)
);
end = (0.8878,0.5878);
start = (0.0693,0.513);
};
};
closed = 1;
nodes = (
(77,476,l),
(77,500,l),
(190,500,l),
(190,499,l),
(167,476,l)
);
},
{
attr = {
gradient = {
colors = (
(
(191,255),
0
),
(
(64,255),
1
)
);
end = (0.7799,0.5059);
start = (-0.193,1.5214);
};
};
closed = 1;
nodes = (
(53,-177,l),
(53,-176,l),
(126,-176,l),
(126,-200,l),
(53,-200,l)
);
}
);
width = 243;
},
{
anchors = (
{
name = top;
pos = (452,530);
}
);
attr = {
color = 1;
};
layerId = "E87239EE-82B8-404C-B23A-53843E270889";
shapes = (
{
attr = {
gradient = {
colors = (
(
(191,255),
0
),
(
(64,255),
1
)
);
end = (0.1611,1.0201);
start = (0.8544,-0.1436);
};
};
closed = 1;
nodes = (
(531,-200,l),
(530,-200,l),
(530,326,l),
(744,326,l),
(744,-98,l)
);
},
{
attr = {
gradient = {
colors = (
(
(191,255),
0
),
(
(64,255),
1
)
);
end = (0.8878,0.5878);
start = (0.0693,0.513);
};
};
closed = 1;
nodes = (
(35,203,l),
(35,204,l),
(530,204,l),
(530,0,l),
(137,0,l)
);
},
{
attr = {
gradient = {
colors = (
(
(191,255),
0
),
(
(64,255),
1
)
);
end = (0.4056,0.1204);
start = (0.4192,0.8964);
};
};
closed = 1;
nodes = (
(248,530,l),
(249,530,l),
(249,204,l),
(35,204,l),
(35,423,l)
);
},
{
attr = {
gradient = {
colors = (
(
(64,255),
0
),
(
(191,255),
1
)
);
end = (0.8878,0.5878);
start = (0.0693,0.513);
};
};
closed = 1;
nodes = (
(249,326,l),
(249,530,l),
(846,530,l),
(846,529,l),
(744,326,l)
);
},
{
attr = {
gradient = {
colors = (
(
(191,255),
0
),
(
(64,255),
1
)
);
end = (0.8878,0.5878);
start = (0.0693,0.513);
};
};
closed = 1;
nodes = (
(35,-21,l),
(35,-20,l),
(530,-20,l),
(530,-200,l),
(137,-200,l)
);
}
);
width = 850;
}
);
unicode = 103;
},
{
glyphname = h;
lastChange = "2021-11-27 10:50:56 +0000";
layers = (
{
anchors = (
{
name = top;
pos = (143,510);
}
);
attr = {
color = 1;
};
layerId = "33AE93C6-B8B3-427A-A53B-F24970E840CE";
shapes = (
{
attr = {
gradient = {
colors = (
(
(64,255),
0
),
(
(191,255),
0.52889
),
(
(64,255),
1
)
);
end = (0.652,0.0627);
start = (0.4192,0.8964);
};
};
closed = 1;
nodes = (
(77,730,l),
(77,1,l),
(77,0,l),
(53,0,l),
(53,730,l)
);
},
{
attr = {
gradient = {
colors = (
(
(64,255),
0
),
(
(191,255),
1
)
);
end = (0.8878,0.5878);
start = (0.0693,0.513);
};
};
closed = 1;
nodes = (
(150,477,l),
(150,476,l),
(77,476,l),
(77,500,l),
(127,500,l)
);
},
{
attr = {
gradient = {
colors = (
(
(64,255),
0
),
(
(191,255),
1
)
);
end = (0.4056,0.1204);
start = (0.4192,0.8964);
};
};
closed = 1;
nodes = (
(127,-3,l),
(126,-3,l),
(126,476,l),
(150,476,l),
(150,20,l)
);
}
);
width = 203;
},
{
anchors = (
{
name = top;
pos = (508,610);
}
);
attr = {
color = 1;
};
layerId = "E87239EE-82B8-404C-B23A-53843E270889";
shapes = (
{
attr = {
gradient = {
colors = (
(
(64,255),
0
),
(
(191,255),
0.55524
),
(
(64,255),
1
)
);
end = (-0.0215,0.951);
start = (0.8544,-0.1436);
};
};
closed = 1;
nodes = (
(248,794,l),
(249,533,l),
(249,0,l),
(35,0,l),
(35,794,l)
);
},
{
attr = {
gradient = {
colors = (
(
(64,255),
0
),
(
(191,255),
1
)
);
end = (0.8878,0.5878);
start = (0.0693,0.513);
};
};
closed = 1;
nodes = (
(772,327,l),
(772,326,l),
(249,326,l),
(249,530,l),
(665,530,l)
);
},
{
attr = {
gradient = {
colors = (
(
(64,255),
0
),
(
(191,255),
1
)
);
end = (0.4056,0.1204);
start = (0.4192,0.8964);
};
};
closed = 1;
nodes = (
(559,-6,l),
(558,-6,l),
(558,326,l),
(772,326,l),
(772,41,l)
);
}
);
width = 807;
}
);
metricRight = "=|";
unicode = 104;
},
{
glyphname = i;
lastChange = "2021-11-12 17:32:27 +0000";
layers = (
{
anchors = (
{
name = bottom;
pos = (65,0);
}
);
attr = {
color = 1;
};
layerId = "33AE93C6-B8B3-427A-A53B-F24970E840CE";
shapes = (
{
attr = {
gradient = {
colors = (
(
(64,255),
0
),
(
(191,255),
1
)
);
end = (0.4877,0.9217);
start = (0.4155,-0.0037);
};
};
closed = 1;
nodes = (
(76,503,l),
(77,503,l),
(77,0,l),
(53,0,l),
(53,480,l)
);
},
{
attr = {
gradient = {
colors = (
(
(64,255),
0
),
(
(191,255),
1
)
);
end = (0.5297,0.2101);
start = (0.7085,0.9567);
};
};
closed = 1;
nodes = (
(54,542,l),
(53,542,l),
(53,615,l),
(77,615,l),
(77,565,l)
);
}
);
width = 130;
},
{
anchors = (
{
name = bottom;
pos = (141,0);
}
);
attr = {
color = 1;
};
layerId = "E87239EE-82B8-404C-B23A-53843E270889";
shapes = (
{
attr = {
gradient = {
colors = (
(
(64,255),
0
),
(
(191,255),
1
)
);
end = (0.7154,0.8978);
start = (0.4155,-0.0037);
};
};
closed = 1;
nodes = (
(238,500,l),
(239,503,l),
(239,0,l),
(45,0,l),
(45,393,l)
);
},
{
attr = {
gradient = {
colors = (
(
(191,255),
0
),
(
(64,255),
1
)
);
end = (0.6058,0.9102);
start = (0.264,0.171);
};
};
closed = 1;
nodes = (
(46,469,l),
(45,469,l),
(45,682,l),
(239,682,l),
(239,576,l)
);
}
);
width = 284;
}
);
metricRight = "=|";
unicode = 105;
},
{
glyphname = idotless;
lastChange = "2021-11-12 17:32:22 +0000";
layers = (
{
anchors = (
{
name = bottom;
pos = (65,0);
},
{
name = top;
pos = (63,500);
}
);
attr = {
color = 1;
};
layerId = "33AE93C6-B8B3-427A-A53B-F24970E840CE";
shapes = (
{
attr = {
gradient = {
colors = (
(
(64,255),
0
),
(
(191,255),
1
)
);
end = (0.4877,0.9217);
start = (0.4155,-0.0037);
};
};
closed = 1;
nodes = (
(76,503,l),
(77,503,l),
(77,0,l),
(53,0,l),
(53,480,l)
);
}
);
width = 130;
},
{
anchors = (
{
name = bottom;
pos = (141,0);
},
{
name = top;
pos = (139,530);
}
);
attr = {
color = 1;
};
layerId = "E87239EE-82B8-404C-B23A-53843E270889";
shapes = (
{
attr = {
gradient = {
colors = (
(
(64,255),
0
),
(
(191,255),
1
)
);
end = (0.7154,0.8978);
start = (0.4155,-0.0037);
};
};
closed = 1;
nodes = (
(238,530,l),
(239,503,l),
(239,0,l),
(45,0,l),
(45,530,l)
);
}
);
width = 284;
}
);
unicode = 305;
},
{
glyphname = j;
lastChange = "2021-11-27 11:04:17 +0000";
layers = (
{
attr = {
color = 1;
};
layerId = "33AE93C6-B8B3-427A-A53B-F24970E840CE";
shapes = (
{
attr = {
gradient = {
colors = (
(
(64,255),
0
),
(
(191,255),
0.52947
),
(
(64,255),
1
)
);
end = (0.6914,1.0016);
start = (0.2834,0.0985);
};
};
closed = 1;
nodes = (
(76,503,l),
(77,503,l),
(77,-177,l),
(54,-200,l),
(53,-200,l),
(53,480,l)
);
},
{
attr = {
gradient = {
colors = (
(
(64,255),
0
),
(
(191,255),
1
)
);
end = (0.5297,0.2101);
start = (0.7085,0.9567);
};
};
closed = 1;
nodes = (
(54,542,l),
(53,542,l),
(53,615,l),
(77,615,l),
(77,565,l)
);
},
{
attr = {
gradient = {
colors = (
(
(64,255),
0
),
(
(191,255),
1
)
);
end = (0.6339,0.9005);
start = (0.319,0.1049);
};
};
closed = 1;
nodes = (
(-9,-200,l),
(-9,-176,l),
(53,-176,l),
(53,-177,l),
(53,-200,l)
);
}
);
width = 130;
},
{
attr = {
color = 1;
};
layerId = "E87239EE-82B8-404C-B23A-53843E270889";
shapes = (
{
attr = {
gradient = {
colors = (
(
(64,255),
0
),
(
(191,255),
0.52921
),
(
(64,255),
1
)
);
end = (0.3878,0.9806);
start = (0.4539,0.1459);
};
};
closed = 1;
nodes = (
(255,500,l),
(256,503,l),
(256,-99,l),
(63,-206,l),
(62,-206,l),
(62,393,l)
);
},
{
attr = {
gradient = {
colors = (
(
(191,255),
0
),
(
(64,255),
1
)
);
end = (0.6058,0.9102);
start = (0.264,0.171);
};
};
closed = 1;
nodes = (
(63,469,l),
(62,469,l),
(62,682,l),
(256,682,l),
(256,576,l)
);
},
{
attr = {
gradient = {
colors = (
(
(64,255),
0
),
(
(191,255),
1
)
);
end = (0.7802,0.9605);
start = (0.4958,0.0704);
};
};
closed = 1;
nodes = (
(-150,-206,l),
(-150,-2,l),
(62,-2,l),
(62,-3,l),
(62,-206,l)
);
}
);
width = 301;
}
);
unicode = 106;
},
{
glyphname = jdotless;
lastChange = "2021-11-27 11:00:40 +0000";
layers = (
{
anchors = (
{
name = top;
pos = (63,500);
}
);
layerId = "33AE93C6-B8B3-427A-A53B-F24970E840CE";
shapes = (
{
attr = {
gradient = {
colors = (
(
(64,255),
0
),
(
(191,255),
0.52947
),
(
(64,255),
1
)
);
end = (0.6914,1.0016);
start = (0.2834,0.0985);
};
};
closed = 1;
nodes = (
(76,503,l),
(77,503,l),
(77,-177,l),
(54,-200,l),
(53,-200,l),
(53,480,l)
);
},
{
attr = {
gradient = {
colors = (
(
(64,255),
0
),
(
(191,255),
1
)
);
end = (0.6339,0.9005);
start = (0.319,0.1049);
};
};
closed = 1;
nodes = (
(-9,-200,l),
(-9,-176,l),
(53,-176,l),
(53,-177,l),
(53,-200,l)
);
}
);
width = 130;
},
{
anchors = (
{
name = top;
pos = (309,530);
}
);
attr = {
color = 1;
};
layerId = "E87239EE-82B8-404C-B23A-53843E270889";
shapes = (
{
attr = {
gradient = {
colors = (
(
(64,255),
0
),
(
(191,255),
0.52921
),
(
(64,255),
1
)
);
end = (0.3878,0.9806);
start = (0.4539,0.1459);
};
};
closed = 1;
nodes = (
(405,530,l),
(406,530,l),
(406,-93,l),
(213,-200,l),
(212,-200,l),
(212,530,l)
);
},
{
attr = {
gradient = {
colors = (
(
(64,255),
0
),
(
(191,255),
1
)
);
end = (0.7802,0.9605);
start = (0.4958,0.0704);
};
};
closed = 1;
nodes = (
(0,-200,l),
(0,4,l),
(212,4,l),
(212,3,l),
(212,-200,l)
);
}
);
width = 451;
}
);
metricLeft = j;
unicode = 567;
},
{
glyphname = k;
lastChange = "2021-11-27 10:52:07 +0000";
layers = (
{
anchors = (
{
name = bottom;
pos = (115,0);
}
);
attr = {
color = 1;
};
layerId = "33AE93C6-B8B3-427A-A53B-F24970E840CE";
shapes = (
{
attr = {
gradient = {
colors = (
(
(64,255),
0
),
(
(191,255),
0.52889
),
(
(64,255),
1
)
);
end = (0.652,0.0627);
start = (0.4192,0.8964);
};
};
closed = 1;
nodes = (
(77,730,l),
(77,1,l),
(77,0,l),
(53,0,l),
(53,730,l)
);
},
{
attr = {
gradient = {
colors = (
(
(64,255),
0
),
(
(191,255),
1
)
);
end = (0.8878,0.5878);
start = (0.0693,0.513);
};
};
closed = 1;
nodes = (
(174,354,l),
(174,353,l),
(77,353,l),
(77,377,l),
(151,377,l)
);
},
{
attr = {
gradient = {
colors = (
(
(64,255),
0
),
(
(191,255),
1
)
);
end = (0.4056,0.1204);
start = (0.4192,0.8964);
};
};
closed = 1;
nodes = (
(151,0,l),
(150,0,l),
(150,353,l),
(174,353,l),
(174,0,l)
);
},
{
attr = {
gradient = {
colors = (
(
(191,255),
0
),
(
(64,255),
1
)
);
end = (0.3865,0.02);
start = (0.7456,0.9692);
};
};
closed = 1;
nodes = (
(150,598,l),
(151,598,l),
(151,377,l),
(127,377,l),
(127,575,l)
);
}
);
width = 227;
},
{
anchors = (
{
name = bottom;
pos = (395,0);
}
);
attr = {
color = 1;
};
layerId = "E87239EE-82B8-404C-B23A-53843E270889";
shapes = (
{
attr = {
gradient = {
colors = (
(
(64,255),
0
),
(
(191,255),
0.55524
),
(
(64,255),
1
)
);
end = (-0.0215,0.951);
start = (0.8544,-0.1436);
};
};
closed = 1;
nodes = (
(248,794,l),
(249,400,l),
(249,0,l),
(35,0,l),
(35,794,l)
);
},
{
attr = {
gradient = {
colors = (
(
(64,255),
0
),
(
(191,255),
1
)
);
end = (0.8878,0.5878);
start = (0.0693,0.513);
};
};
closed = 1;
nodes = (
(772,194,l),
(772,193,l),
(249,193,l),
(249,397,l),
(665,397,l)
);
},
{
attr = {
gradient = {
colors = (
(
(64,255),
0
),
(
(191,255),
1
)
);
end = (0.6168,0.0388);
start = (0.2264,0.8989);
};
};
closed = 1;
nodes = (
(559,0,l),
(558,0,l),
(558,193,l),
(772,193,l),
(772,0,l)
);
},
{
attr = {
gradient = {
colors = (
(
(64,255),
0
),
(
(191,255),
1
)
);
end = (0.4877,0.9217);
start = (0.4155,-0.0037);
};
};
closed = 1;
nodes = (
(664,663,l),
(665,663,l),
(665,397,l),
(451,397,l),
(451,556,l)
);
}
);
width = 807;
}
);
metricRight = "=|";
unicode = 107;
},
{
glyphname = l;
lastChange = "2021-11-27 10:49:59 +0000";
layers = (
{
anchors = (
{
name = bottom;
pos = (65,0);
},
{
name = top;
pos = (123,500);
}
);
attr = {
color = 1;
};
layerId = "33AE93C6-B8B3-427A-A53B-F24970E840CE";
shapes = (
{
attr = {
gradient = {
colors = (
(
(64,255),
0
),
(
(191,255),
0.52889
),
(
(64,255),
1
)
);
end = (0.652,0.0627);
start = (0.4192,0.8964);
};
};
closed = 1;
nodes = (
(77,730,l),
(77,0,l),
(76,0,l),
(53,23,l),
(53,730,l)
);
},
{
attr = {
gradient = {
colors = (
(
(191,255),
0
),
(
(64,255),
1
)
);
end = (0.086,0.0815);
start = (0.863,0.8719);
};
};
closed = 1;
nodes = (
(77,0,l),
(77,24,l),
(139,24,l),
(139,23,l),
(139,0,l)
);
}
);
width = 182;
},
{
anchors = (
{
name = bottom;
pos = (135,0);
},
{
name = top;
pos = (332,530);
}
);
attr = {
color = 1;
};
layerId = "E87239EE-82B8-404C-B23A-53843E270889";
shapes = (
{
attr = {
gradient = {
colors = (
(
(64,255),
0
),
(
(191,255),
0.55524
),
(
(64,255),
1
)
);
end = (-0.0215,0.951);
start = (0.8544,-0.1436);
};
};
closed = 1;
nodes = (
(248,794,l),
(249,0,l),
(248,0,l),
(35,107,l),
(35,794,l)
);
},
{
attr = {
gradient = {
colors = (
(
(191,255),
0
),
(
(64,255),
1
)
);
end = (0.0345,0.7875);
start = (0.9042,0.1573);
};
};
closed = 1;
nodes = (
(249,0,l),
(249,204,l),
(461,204,l),
(461,203,l),
(461,0,l)
);
}
);
width = 486;
}
);
metricRight = "=|-10";
unicode = 108;
},
{
glyphname = m;
lastChange = "2021-11-03 19:07:55 +0000";
layers = (
{
attr = {
color = 1;
};
layerId = "33AE93C6-B8B3-427A-A53B-F24970E840CE";
shapes = (
{
attr = {
gradient = {
colors = (
(
(64,255),
0
),
(
(191,255),
1
)
);
end = (0.4877,0.9217);
start = (0.4155,-0.0037);
};
};
closed = 1;
nodes = (
(76,500,l),
(77,500,l),
(77,0,l),
(53,0,l),
(53,477,l)
);
},
{
attr = {
gradient = {
colors = (
(
(64,255),
0
),
(
(191,255),
1
)
);
end = (0.4056,0.1204);
start = (0.4192,0.8964);
};
};
closed = 1;
nodes = (
(127,-3,l),
(126,-3,l),
(126,476,l),
(150,476,l),
(150,20,l)
);
},
{
attr = {
gradient = {
colors = (
(
(64,255),
0
),
(
(191,255),
1
)
);
end = (0.4056,0.1204);
start = (0.4192,0.8964);
};
};
closed = 1;
nodes = (
(200,-3,l),
(199,-3,l),
(199,476,l),
(223,476,l),
(223,20,l)
);
},
{
attr = {
gradient = {
colors = (
(
(64,255),
0
),
(
(191,255),
1
)
);
end = (0.8878,0.5878);
start = (0.0693,0.513);
};
};
closed = 1;
nodes = (
(223,477,l),
(223,476,l),
(150,476,l),
(150,500,l),
(200,500,l)
);
},
{
attr = {
gradient = {
colors = (
(
(64,255),
0
),
(
(191,255),
1
)
);
end = (0.8878,0.5878);
start = (0.0693,0.513);
};
};
closed = 1;
nodes = (
(150,477,l),
(150,476,l),
(77,476,l),
(77,500,l),
(127,500,l)
);
}
);
width = 276;
},
{
attr = {
color = 1;
};
layerId = "E87239EE-82B8-404C-B23A-53843E270889";
shapes = (
{
attr = {
gradient = {
colors = (
(
(64,255),
0
),
(
(191,255),
1
)
);
end = (0.4877,0.9217);
start = (0.4155,-0.0037);
};
};
closed = 1;
nodes = (
(248,530,l),
(249,530,l),
(249,0,l),
(35,0,l),
(35,423,l)
);
},
{
attr = {
gradient = {
colors = (
(
(64,255),
0
),
(
(191,255),
1
)
);
end = (0.4056,0.1204);
start = (0.4192,0.8964);
};
};
closed = 1;
nodes = (
(499,0,l),
(498,0,l),
(498,326,l),
(692,326,l),
(692,0,l)
);
},
{
attr = {
gradient = {
colors = (
(
(64,255),
0
),
(
(191,255),
1
)
);
end = (0.4056,0.1204);
start = (0.4192,0.8964);
};
};
closed = 1;
nodes = (
(942,-6,l),
(941,-6,l),
(941,326,l),
(1155,326,l),
(1155,41,l)
);
},
{
attr = {
gradient = {
colors = (
(
(64,255),
0
),
(
(191,255),
1
)
);
end = (0.8878,0.5878);
start = (0.0693,0.513);
};
};
closed = 1;
nodes = (
(1155,327,l),
(1155,326,l),
(692,326,l),
(692,530,l),
(1048,530,l)
);
},
{
attr = {
gradient = {
colors = (
(
(64,255),
0
),
(
(191,255),
1
)
);
end = (0.8878,0.5878);
start = (0.0693,0.513);
};
};
closed = 1;
nodes = (
(692,327,l),
(692,326,l),
(249,326,l),
(249,530,l),
(625,530,l)
);
}
);
width = 1190;
}
);
metricLeft = n;
metricRight = "=|";
unicode = 109;
},
{
glyphname = n;
lastChange = "2021-11-17 12:56:32 +0000";
layers = (
{
anchors = (
{
name = bottom;
pos = (105,0);
},
{
name = top;
pos = (103,500);
}
);
attr = {
color = 1;
};
layerId = "33AE93C6-B8B3-427A-A53B-F24970E840CE";
shapes = (
{
attr = {
gradient = {
colors = (
(
(64,255),
0
),
(
(191,255),
1
)
);
end = (0.4877,0.9217);
start = (0.4155,-0.0037);
};
};
closed = 1;
nodes = (
(76,500,l),
(77,500,l),
(77,0,l),
(53,0,l),
(53,477,l)
);
},
{
attr = {
gradient = {
colors = (
(
(64,255),
0
),
(
(191,255),
1
)
);
end = (0.8878,0.5878);
start = (0.0693,0.513);
};
};
closed = 1;
nodes = (
(150,477,l),
(150,476,l),
(77,476,l),
(77,500,l),
(127,500,l)
);
},
{
attr = {
gradient = {
colors = (
(
(64,255),
0
),
(
(191,255),
1
)
);
end = (0.4056,0.1204);
start = (0.4192,0.8964);
};
};
closed = 1;
nodes = (
(127,-3,l),
(126,-3,l),
(126,476,l),
(150,476,l),
(150,20,l)
);
}
);
width = 203;
},
{
anchors = (
{
name = bottom;
pos = (405,0);
},
{
name = top;
pos = (452,530);
}
);
attr = {
color = 1;
};
layerId = "E87239EE-82B8-404C-B23A-53843E270889";
shapes = (
{
attr = {
gradient = {
colors = (
(
(64,255),
0
),
(
(191,255),
1
)
);
end = (0.4877,0.9217);
start = (0.4155,-0.0037);
};
};
closed = 1;
nodes = (
(248,530,l),
(249,530,l),
(249,0,l),
(35,0,l),
(35,423,l)
);
},
{
attr = {
gradient = {
colors = (
(
(64,255),
0
),
(
(191,255),
1
)
);
end = (0.8878,0.5878);
start = (0.0693,0.513);
};
};
closed = 1;
nodes = (
(772,327,l),
(772,326,l),
(249,326,l),
(249,530,l),
(665,530,l)
);
},
{
attr = {
gradient = {
colors = (
(
(64,255),
0
),
(
(191,255),
1
)
);
end = (0.4056,0.1204);
start = (0.4192,0.8964);
};
};
closed = 1;
nodes = (
(559,-6,l),
(558,-6,l),
(558,326,l),
(772,326,l),
(772,41,l)
);
}
);
width = 807;
}
);
metricRight = "=|";
unicode = 110;
},
{
glyphname = eng;
lastChange = "2021-11-30 14:05:05 +0000";
layers = (
{
attr = {
color = 1;
};
layerId = "33AE93C6-B8B3-427A-A53B-F24970E840CE";
shapes = (
{
attr = {
gradient = {
colors = (
(
(64,255),
0
),
(
(191,255),
1
)
);
end = (0.4877,0.9217);
start = (0.4155,-0.0037);
};
};
closed = 1;
nodes = (
(76,500,l),
(77,500,l),
(77,0,l),
(53,0,l),
(53,477,l)
);
},
{
attr = {
gradient = {
colors = (
(
(64,255),
0
),
(
(191,255),
1
)
);
end = (0.8878,0.5878);
start = (0.0693,0.513);
};
};
closed = 1;
nodes = (
(150,477,l),
(150,476,l),
(77,476,l),
(77,500,l),
(127,500,l)
);
},
{
attr = {
gradient = {
colors = (
(
(64,255),
0
),
(
(191,255),
1
)
);
end = (0.4056,0.1204);
start = (0.4192,0.8964);
};
};
closed = 1;
nodes = (
(127,-200,l),
(126,-200,l),
(126,476,l),
(150,476,l),
(150,-177,l)
);
},
{
attr = {
gradient = {
colors = (
(
(64,255),
0
),
(
(191,255),
1
)
);
end = (0.1522,1.0047);
start = (1.0014,0.343);
};
};
closed = 1;
nodes = (
(95,-200,l),
(95,-176,l),
(126,-176,l),
(126,-177,l),
(126,-200,l)
);
}
);
width = 203;
},
{
attr = {
color = 1;
};
layerId = "E87239EE-82B8-404C-B23A-53843E270889";
shapes = (
{
attr = {
gradient = {
colors = (
(
(64,255),
0
),
(
(191,255),
1
)
);
end = (0.4877,0.9217);
start = (0.4155,-0.0037);
};
};
closed = 1;
nodes = (
(248,530,l),
(249,530,l),
(249,0,l),
(35,0,l),
(35,423,l)
);
},
{
attr = {
gradient = {
colors = (
(
(64,255),
0
),
(
(191,255),
1
)
);
end = (0.8878,0.5878);
start = (0.0693,0.513);
};
};
closed = 1;
nodes = (
(772,327,l),
(772,326,l),
(249,326,l),
(249,530,l),
(665,530,l)
);
},
{
attr = {
gradient = {
colors = (
(
(64,255),
0
),
(
(191,255),
1
)
);
end = (0.4056,0.1204);
start = (0.4192,0.8964);
};
};
closed = 1;
nodes = (
(559,-206,l),
(558,-206,l),
(558,326,l),
(772,326,l),
(772,-99,l)
);
},
{
attr = {
gradient = {
colors = (
(
(64,255),
0
),
(
(191,255),
1
)
);
end = (0.7802,0.9605);
start = (0.4958,0.0704);
};
};
closed = 1;
nodes = (
(386,-206,l),
(386,-2,l),
(558,-2,l),
(558,-3,l),
(558,-206,l)
);
}
);
width = 807;
}
);
unicode = 331;
},
{
glyphname = o;
lastChange = "2021-11-27 10:46:07 +0000";
layers = (
{
anchors = (
{
name = bottom;
pos = (102,0);
},
{
name = horn;
pos = (127,500);
},
{
name = top;
pos = (102,500);
}
);
attr = {
color = 1;
};
layerId = "33AE93C6-B8B3-427A-A53B-F24970E840CE";
shapes = (
{
attr = {
gradient = {
colors = (
(
(64,255),
0
),
(
(191,255),
1
)
);
end = (0.4877,0.9217);
start = (0.4155,-0.0037);
};
};
closed = 1;
nodes = (
(76,500,l),
(77,500,l),
(77,24,l),
(53,24,l),
(53,477,l)
);
},
{
attr = {
gradient = {
colors = (
(
(64,255),
0
),
(
(191,255),
1
)
);
end = (0.8878,0.5878);
start = (0.0693,0.513);
};
};
closed = 1;
nodes = (
(151,477,l),
(151,476,l),
(77,476,l),
(77,500,l),
(128,500,l)
);
},
{
attr = {
gradient = {
colors = (
(
(64,255),
0
),
(
(191,255),
1
)
);
end = (0.4056,0.1204);
start = (0.4192,0.8964);
};
};
closed = 1;
nodes = (
(128,0,l),
(127,0,l),
(127,476,l),
(151,476,l),
(151,23,l)
);
},
{
attr = {
gradient = {
colors = (
(
(191,255),
0
),
(
(64,255),
1
)
);
end = (0.8878,0.5878);
start = (0.0693,0.513);
};
};
closed = 1;
nodes = (
(53,23,l),
(53,24,l),
(127,24,l),
(127,0,l),
(76,0,l)
);
}
);
width = 204;
},
{
anchors = (
{
name = bottom;
pos = (442,0);
},
{
name = horn;
pos = (685,530);
},
{
name = top;
pos = (462,530);
}
);
attr = {
color = 1;
};
layerId = "E87239EE-82B8-404C-B23A-53843E270889";
shapes = (
{
attr = {
gradient = {
colors = (
(
(64,255),
0
),
(
(191,255),
1
)
);
end = (0.4877,0.9217);
start = (0.4155,-0.0037);
};
};
closed = 1;
nodes = (
(258,530,l),
(259,530,l),
(259,204,l),
(45,204,l),
(45,423,l)
);
},
{
attr = {
gradient = {
colors = (
(
(64,255),
0
),
(
(191,255),
1
)
);
end = (0.8878,0.5878);
start = (0.0693,0.513);
};
};
closed = 1;
nodes = (
(832,327,l),
(832,326,l),
(259,326,l),
(259,530,l),
(725,530,l)
);
},
{
attr = {
gradient = {
colors = (
(
(64,255),
0
),
(
(191,255),
1
)
);
end = (0.4056,0.1204);
start = (0.4192,0.8964);
};
};
closed = 1;
nodes = (
(619,0,l),
(618,0,l),
(618,326,l),
(832,326,l),
(832,107,l)
);
},
{
attr = {
gradient = {
colors = (
(
(191,255),
0
),
(
(64,255),
1
)
);
end = (0.8878,0.5878);
start = (0.0693,0.513);
};
};
closed = 1;
nodes = (
(45,203,l),
(45,204,l),
(618,204,l),
(618,0,l),
(152,0,l)
);
}
);
width = 877;
}
);
metricRight = "=|";
unicode = 111;
},
{
glyphname = oslash;
lastChange = "2021-11-17 18:02:19 +0000";
layers = (
{
attr = {
color = 1;
};
layerId = "33AE93C6-B8B3-427A-A53B-F24970E840CE";
shapes = (
{
attr = {
gradient = {
colors = (
(
(128,255),
0
),
(
(191,255),
0.23101
),
(
(128,255),
1
)
);
end = (0.1006,0.9261);
start = (0.8563,0.0865);
};
};
closed = 1;
nodes = (
(33,0,l),
(33,1,l),
(147,500,l),
(170,500,l),
(170,499,l),
(56,0,l)
);
},
{
ref = o;
}
);
width = 203;
},
{
attr = {
color = 1;
};
layerId = "E87239EE-82B8-404C-B23A-53843E270889";
shapes = (
{
attr = {
gradient = {
colors = (
(
(128,255),
0
),
(
(191,255),
0.3076
),
(
(128,255),
1
)
);
end = (0.7348,0.7576);
start = (0.1706,-0.0896);
};
};
closed = 1;
nodes = (
(35,0,l),
(35,2,l),
(801,530,l),
(914,530,l),
(914,529,l),
(148,0,l)
);
},
{
pos = (46,0);
ref = o;
}
);
width = 949;
}
);
unicode = 248;
},
{
glyphname = oe;
lastChange = "2021-11-08 22:05:00 +0000";
layers = (
{
attr = {
color = 1;
};
layerId = "33AE93C6-B8B3-427A-A53B-F24970E840CE";
shapes = (
{
attr = {
gradient = {
colors = (
(
(64,255),
0
),
(
(191,255),
1
)
);
end = (0.8878,0.5878);
start = (0.0693,0.513);
};
};
closed = 1;
nodes = (
(126,23,l),
(126,24,l),
(223,24,l),
(223,23,l),
(200,0,l),
(149,0,l)
);
},
{
attr = {
gradient = {
colors = (
(
(191,255),
0
),
(
(64,255),
1
)
);
end = (0.8878,0.5878);
start = (0.0693,0.513);
};
};
closed = 1;
nodes = (
(53,23,l),
(53,24,l),
(126,24,l),
(126,0,l),
(76,0,l)
);
},
{
attr = {
gradient = {
colors = (
(
(64,255),
0
),
(
(191,255),
1
)
);
end = (0.8878,0.5878);
start = (0.0693,0.513);
};
};
closed = 1;
nodes = (
(223,477,l),
(223,476,l),
(126,476,l),
(150,500,l),
(200,500,l)
);
},
{
attr = {
gradient = {
colors = (
(
(64,255),
0
),
(
(191,255),
1
)
);
end = (0.4056,0.1204);
start = (0.4192,0.8964);
};
};
closed = 1;
nodes = (
(127,0,l),
(126,0,l),
(126,476,l),
(150,476,l),
(150,23,l)
);
},
{
attr = {
gradient = {
colors = (
(
(64,255),
0
),
(
(191,255),
1
)
);
end = (0.8878,0.5878);
start = (0.0693,0.513);
};
};
closed = 1;
nodes = (
(199,202,l),
(150,202,l),
(150,226,l),
(199,226,l)
);
},
{
attr = {
gradient = {
colors = (
(
(64,255),
0
),
(
(191,255),
1
)
);
end = (0.4056,0.1204);
start = (0.4192,0.8964);
};
};
closed = 1;
nodes = (
(200,202,l),
(199,202,l),
(199,476,l),
(223,476,l),
(223,225,l)
);
},
{
attr = {
gradient = {
colors = (
(
(64,255),
0
),
(
(191,255),
1
)
);
end = (0.4877,0.9217);
start = (0.4155,-0.0037);
};
};
closed = 1;
nodes = (
(76,500,l),
(77,500,l),
(77,24,l),
(53,24,l),
(53,477,l)
);
},
{
attr = {
gradient = {
colors = (
(
(64,255),
0
),
(
(191,255),
1
)
);
end = (0.8878,0.5878);
start = (0.0693,0.513);
};
};
closed = 1;
nodes = (
(150,477,l),
(150,476,l),
(77,476,l),
(77,500,l),
(127,500,l)
);
}
);
width = 276;
},
{
attr = {
color = 1;
};
layerId = "E87239EE-82B8-404C-B23A-53843E270889";
shapes = (
{
attr = {
gradient = {
colors = (
(
(191,255),
0
),
(
(64,255),
1
)
);
end = (0.014,0.9151);
start = (0.7914,0.1042);
};
};
closed = 1;
nodes = (
(578,199,l),
(578,200,l),
(1345,200,l),
(1345,199,l),
(1238,0,l),
(792,0,l)
);
},
{
attr = {
gradient = {
colors = (
(
(191,255),
0
),
(
(64,255),
1
)
);
end = (0.8878,0.5878);
start = (0.0693,0.513);
};
};
closed = 1;
nodes = (
(35,203,l),
(35,204,l),
(578,204,l),
(578,0,l),
(142,0,l)
);
},
{
attr = {
gradient = {
colors = (
(
(64,255),
0
),
(
(191,255),
1
)
);
end = (0.8878,0.5878);
start = (0.0196,0.4891);
};
};
closed = 1;
nodes = (
(1345,352,l),
(1345,351,l),
(578,351,l),
(792,530,l),
(1238,530,l)
);
},
{
attr = {
gradient = {
colors = (
(
(64,255),
0
),
(
(191,255),
1
)
);
end = (0.919,0.0061);
start = (0.066,0.9748);
};
};
closed = 1;
nodes = (
(579,0,l),
(578,0,l),
(578,326,l),
(792,326,l),
(792,199,l)
);
},
{
attr = {
gradient = {
colors = (
(
(64,255),
0
),
(
(191,255),
1
)
);
end = (0.1222,0.0774);
start = (0.9519,0.8584);
};
};
closed = 1;
nodes = (
(1131,221,l),
(792,220,l),
(792,331,l),
(1131,331,l)
);
},
{
attr = {
gradient = {
colors = (
(
(64,255),
0
),
(
(191,255),
1
)
);
end = (0.4664,0.1377);
start = (0.4202,0.9309);
};
};
closed = 1;
nodes = (
(1132,221,l),
(1131,221,l),
(1131,351,l),
(1345,351,l),
(1345,328,l)
);
},
{
attr = {
gradient = {
colors = (
(
(64,255),
0
),
(
(191,255),
1
)
);
end = (0.4877,0.9217);
start = (0.4155,-0.0037);
};
};
closed = 1;
nodes = (
(248,530,l),
(249,530,l),
(249,204,l),
(35,204,l),
(35,423,l)
);
},
{
attr = {
gradient = {
colors = (
(
(64,255),
0
),
(
(191,255),
1
)
);
end = (0.8878,0.5878);
start = (0.0693,0.513);
};
};
closed = 1;
nodes = (
(792,327,l),
(792,326,l),
(249,326,l),
(249,530,l),
(685,530,l)
);
}
);
width = 1370;
}
);
unicode = 339;
},
{
glyphname = p;
lastChange = "2021-11-03 19:16:38 +0000";
layers = (
{
attr = {
color = 1;
};
layerId = "33AE93C6-B8B3-427A-A53B-F24970E840CE";
shapes = (
{
attr = {
gradient = {
colors = (
(
(191,255),
0
),
(
(64,255),
1
)
);
end = (0.4877,0.9217);
start = (0.4155,-0.0037);
};
};
closed = 1;
nodes = (
(127,0,l),
(126,0,l),
(126,476,l),
(150,476,l),
(150,23,l)
);
},
{
attr = {
gradient = {
colors = (
(
(191,255),
0
),
(
(64,255),
1
)
);
end = (0.8878,0.5878);
start = (0.0693,0.513);
};
};
closed = 1;
nodes = (
(53,23,l),
(53,24,l),
(126,24,l),
(126,0,l),
(76,0,l)
);
},
{
attr = {
gradient = {
colors = (
(
(191,255),
0
),
(
(64,255),
1
)
);
end = (0.4056,0.1204);
start = (0.4192,0.8964);
};
};
closed = 1;
nodes = (
(76,500,l),
(77,500,l),
(77,24,l),
(53,24,l),
(53,477,l)
);
},
{
attr = {
gradient = {
colors = (
(
(64,255),
0
),
(
(191,255),
1
)
);
end = (0.8878,0.5878);
start = (0.0693,0.513);
};
};
closed = 1;
nodes = (
(150,477,l),
(150,476,l),
(77,476,l),
(77,500,l),
(127,500,l)
);
},
{
attr = {
gradient = {
colors = (
(
(64,255),
0
),
(
(191,255),
1
)
);
end = (0.4056,0.1204);
start = (0.4192,0.8964);
};
};
closed = 1;
nodes = (
(77,-200,l),
(53,-200,l),
(53,23,l),
(54,23,l),
(77,0,l)
);
}
);
width = 203;
},
{
attr = {
color = 1;
};
layerId = "E87239EE-82B8-404C-B23A-53843E270889";
shapes = (
{
attr = {
gradient = {
colors = (
(
(191,255),
0
),
(
(64,255),
1
)
);
end = (0.4877,0.9217);
start = (0.4155,-0.0037);
};
};
closed = 1;
nodes = (
(560,0,l),
(559,0,l),
(559,326,l),
(773,326,l),
(773,107,l)
);
},
{
attr = {
gradient = {
colors = (
(
(191,255),
0
),
(
(64,255),
1
)
);
end = (0.4963,0.709);
start = (-0.0147,0.445);
};
};
closed = 1;
nodes = (
(35,203,l),
(35,204,l),
(559,204,l),
(559,0,l),
(197,0,l)
);
},
{
attr = {
gradient = {
colors = (
(
(191,255),
0
),
(
(64,255),
1
)
);
end = (0.4056,0.1204);
start = (0.4192,0.8964);
};
};
closed = 1;
nodes = (
(248,530,l),
(249,530,l),
(249,204,l),
(35,204,l),
(35,423,l)
);
},
{
attr = {
gradient = {
colors = (
(
(64,255),
0
),
(
(191,255),
1
)
);
end = (0.8878,0.5878);
start = (0.0693,0.513);
};
};
closed = 1;
nodes = (
(773,327,l),
(773,326,l),
(249,326,l),
(249,530,l),
(671,530,l)
);
},
{
attr = {
gradient = {
colors = (
(
(64,255),
0
),
(
(191,255),
1
)
);
end = (0.2691,0.1936);
start = (0.4192,0.8964);
};
};
closed = 1;
nodes = (
(249,-200,l),
(35,-200,l),
(35,201,l),
(36,201,l),
(249,0,l)
);
}
);
width = 808;
}
);
metricRight = "=|";
unicode = 112;
},
{
glyphname = thorn;
lastChange = "2021-11-07 08:58:32 +0000";
layers = (
{
attr = {
color = 1;
};
layerId = "33AE93C6-B8B3-427A-A53B-F24970E840CE";
shapes = (
{
attr = {
gradient = {
colors = (
(
(191,255),
0
),
(
(64,255),
1
)
);
end = (0.4877,0.9217);
start = (0.4155,-0.0037);
};
};
closed = 1;
nodes = (
(127,0,l),
(126,0,l),
(126,476,l),
(150,476,l),
(150,23,l)
);
},
{
attr = {
gradient = {
colors = (
(
(191,255),
0
),
(
(64,255),
1
)
);
end = (0.8878,0.5878);
start = (0.0693,0.513);
};
};
closed = 1;
nodes = (
(53,23,l),
(53,24,l),
(126,24,l),
(126,0,l),
(76,0,l)
);
},
{
attr = {
gradient = {
colors = (
(
(191,255),
0
),
(
(64,255),
1
)
);
end = (0.4056,0.1204);
start = (0.4192,0.8964);
};
};
closed = 1;
nodes = (
(76,800,l),
(77,24,l),
(53,24,l),
(53,777,l)
);
},
{
attr = {
gradient = {
colors = (
(
(64,255),
0
),
(
(191,255),
1
)
);
end = (0.8878,0.5878);
start = (0.0693,0.513);
};
};
closed = 1;
nodes = (
(150,477,l),
(150,476,l),
(77,476,l),
(77,500,l),
(127,500,l)
);
},
{
attr = {
gradient = {
colors = (
(
(64,255),
0
),
(
(191,255),
1
)
);
end = (0.4056,0.1204);
start = (0.4192,0.8964);
};
};
closed = 1;
nodes = (
(77,-200,l),
(53,-200,l),
(53,23,l),
(54,23,l),
(77,0,l)
);
}
);
width = 203;
},
{
attr = {
color = 1;
};
layerId = "E87239EE-82B8-404C-B23A-53843E270889";
shapes = (
{
attr = {
gradient = {
colors = (
(
(191,255),
0
),
(
(64,255),
1
)
);
end = (0.4877,0.9217);
start = (0.4155,-0.0037);
};
};
closed = 1;
nodes = (
(560,0,l),
(559,0,l),
(559,326,l),
(773,326,l),
(773,107,l)
);
},
{
attr = {
gradient = {
colors = (
(
(191,255),
0
),
(
(64,255),
1
)
);
end = (0.9301,0.8268);
start = (0.0431,0.9266);
};
};
closed = 1;
nodes = (
(35,203,l),
(35,204,l),
(559,204,l),
(559,0,l),
(197,0,l)
);
},
{
attr = {
gradient = {
colors = (
(
(191,255),
0
),
(
(64,255),
1
)
);
end = (0.4056,0.1204);
start = (0.4192,0.8964);
};
};
closed = 1;
nodes = (
(248,800,l),
(249,204,l),
(35,204,l),
(35,693,l)
);
},
{
attr = {
gradient = {
colors = (
(
(64,255),
0
),
(
(191,255),
1
)
);
end = (0.8878,0.5878);
start = (0.0693,0.513);
};
};
closed = 1;
nodes = (
(773,327,l),
(773,326,l),
(249,326,l),
(249,530,l),
(671,530,l)
);
},
{
attr = {
gradient = {
colors = (
(
(64,255),
0
),
(
(191,255),
1
)
);
end = (0.0798,0.0442);
start = (0.9963,0.3676);
};
};
closed = 1;
nodes = (
(249,-200,l),
(35,-200,l),
(35,201,l),
(36,201,l),
(249,0,l)
);
}
);
width = 808;
}
);
unicode = 254;
},
{
glyphname = q;
lastChange = "2021-11-03 19:08:06 +0000";
layers = (
{
attr = {
color = 1;
};
layerId = "33AE93C6-B8B3-427A-A53B-F24970E840CE";
shapes = (
{
attr = {
gradient = {
colors = (
(
(64,255),
0
),
(
(191,255),
0.52889
),
(
(64,255),
1
)
);
end = (0.652,0.0627);
start = (0.4192,0.8964);
};
};
closed = 1;
nodes = (
(126,-200,l),
(126,475,l),
(126,476,l),
(150,476,l),
(150,-200,l)
);
},
{
attr = {
gradient = {
colors = (
(
(191,255),
0
),
(
(64,255),
1
)
);
end = (0.8878,0.5878);
start = (0.0693,0.513);
};
};
closed = 1;
nodes = (
(53,23,l),
(53,24,l),
(126,24,l),
(126,0,l),
(76,0,l)
);
},
{
attr = {
gradient = {
colors = (
(
(191,255),
0
),
(
(64,255),
1
)
);
end = (0.4056,0.1204);
start = (0.4192,0.8964);
};
};
closed = 1;
nodes = (
(76,500,l),
(77,500,l),
(77,24,l),
(53,24,l),
(53,477,l)
);
},
{
attr = {
gradient = {
colors = (
(
(64,255),
0
),
(
(191,255),
1
)
);
end = (0.8878,0.5878);
start = (0.0693,0.513);
};
};
closed = 1;
nodes = (
(150,477,l),
(150,476,l),
(77,476,l),
(77,500,l),
(127,500,l)
);
}
);
width = 203;
},
{
attr = {
color = 1;
};
layerId = "E87239EE-82B8-404C-B23A-53843E270889";
shapes = (
{
attr = {
gradient = {
colors = (
(
(64,255),
0
),
(
(191,255),
0.55524
),
(
(64,255),
1
)
);
end = (0.1611,1.0201);
start = (0.8544,-0.1436);
};
};
closed = 1;
nodes = (
(560,-200,l),
(559,0,l),
(559,326,l),
(773,326,l),
(773,-200,l)
);
},
{
attr = {
gradient = {
colors = (
(
(64,255),
0
),
(
(191,255),
1
)
);
end = (0.8878,0.5878);
start = (0.0693,0.513);
};
};
closed = 1;
nodes = (
(35,203,l),
(35,204,l),
(559,204,l),
(559,0,l),
(137,0,l)
);
},
{
attr = {
gradient = {
colors = (
(
(64,255),
0
),
(
(191,255),
1
)
);
end = (0.4056,0.1204);
start = (0.4192,0.8964);
};
};
closed = 1;
nodes = (
(248,530,l),
(249,530,l),
(249,204,l),
(35,204,l),
(35,423,l)
);
},
{
attr = {
gradient = {
colors = (
(
(191,255),
0
),
(
(64,255),
1
)
);
end = (0.8878,0.5878);
start = (0.0693,0.513);
};
};
closed = 1;
nodes = (
(773,327,l),
(773,326,l),
(249,326,l),
(249,530,l),
(671,530,l)
);
}
);
width = 808;
}
);
metricRight = "=|";
unicode = 113;
},
{
glyphname = r;
lastChange = "2021-11-17 12:56:51 +0000";
layers = (
{
anchors = (
{
name = bottom;
pos = (105,0);
},
{
name = top;
pos = (103,500);
}
);
attr = {
color = 1;
};
layerId = "33AE93C6-B8B3-427A-A53B-F24970E840CE";
shapes = (
{
attr = {
gradient = {
colors = (
(
(64,255),
0
),
(
(191,255),
1
)
);
end = (0.4877,0.9217);
start = (0.4155,-0.0037);
};
};
closed = 1;
nodes = (
(76,500,l),
(77,500,l),
(77,0,l),
(53,0,l),
(53,477,l)
);
},
{
attr = {
gradient = {
colors = (
(
(64,255),
0
),
(
(191,255),
1
)
);
end = (0.8878,0.5878);
start = (0.0693,0.513);
};
};
closed = 1;
nodes = (
(150,477,l),
(150,476,l),
(77,476,l),
(77,500,l),
(127,500,l)
);
}
);
width = 154;
},
{
anchors = (
{
name = bottom;
pos = (135,0);
},
{
name = top;
pos = (342,530);
}
);
attr = {
color = 1;
};
layerId = "E87239EE-82B8-404C-B23A-53843E270889";
shapes = (
{
attr = {
gradient = {
colors = (
(
(64,255),
0
),
(
(191,255),
1
)
);
end = (0.4877,0.9217);
start = (0.4155,-0.0037);
};
};
closed = 1;
nodes = (
(248,530,l),
(249,530,l),
(249,0,l),
(35,0,l),
(35,423,l)
);
},
{
attr = {
gradient = {
colors = (
(
(64,255),
0
),
(
(191,255),
1
)
);
end = (0.8878,0.5878);
start = (0.0693,0.513);
};
};
closed = 1;
nodes = (
(602,327,l),
(602,326,l),
(249,326,l),
(249,530,l),
(495,530,l)
);
}
);
width = 606;
}
);
unicode = 114;
},
{
glyphname = s;
lastChange = "2021-11-17 12:56:59 +0000";
layers = (
{
anchors = (
{
name = bottom;
pos = (95,0);
},
{
name = top;
pos = (103,500);
}
);
attr = {
color = 1;
};
layerId = "33AE93C6-B8B3-427A-A53B-F24970E840CE";
shapes = (
{
attr = {
gradient = {
colors = (
(
(64,255),
0
),
(
(191,255),
1
)
);
end = (0.8878,0.5878);
start = (0.0693,0.513);
};
};
closed = 1;
nodes = (
(139,477,l),
(139,476,l),
(69,476,l),
(66,500,l),
(116,500,l)
);
},
{
attr = {
gradient = {
colors = (
(
(64,255),
0
),
(
(191,255),
1
)
);
end = (0.1006,0.9261);
start = (0.8563,0.0865);
};
};
closed = 1;
nodes = (
(43,467,l),
(66,500,l),
(139,25,l),
(139,24,l),
(116,24,l)
);
},
{
attr = {
gradient = {
colors = (
(
(64,255),
0
),
(
(191,255),
1
)
);
end = (0.9403,0.817);
start = (0.0693,0.513);
};
};
closed = 1;
nodes = (
(43,23,l),
(43,24,l),
(139,24,l),
(116,0,l),
(66,0,l)
);
}
);
width = 182;
},
{
anchors = (
{
name = bottom;
pos = (335,0);
},
{
name = top;
pos = (352,530);
}
);
attr = {
color = 1;
};
layerId = "E87239EE-82B8-404C-B23A-53843E270889";
shapes = (
{
attr = {
gradient = {
colors = (
(
(64,255),
0
),
(
(191,255),
1
)
);
end = (0.8878,0.5878);
start = (0.2757,0.3019);
};
};
closed = 1;
nodes = (
(655,352,l),
(655,351,l),
(168,351,l),
(142,530,l),
(548,530,l)
);
},
{
attr = {
gradient = {
colors = (
(
(191,255),
0
),
(
(64,255),
1
)
);
end = (0.7102,0.0145);
start = (0.0693,0.513);
};
};
closed = 1;
nodes = (
(52,365,l),
(142,530,l),
(655,180,l),
(655,179,l),
(392,149,l)
);
},
{
attr = {
gradient = {
colors = (
(
(64,255),
0
),
(
(191,255),
1
)
);
end = (0.8953,0.5932);
start = (0.0693,0.513);
};
};
closed = 1;
nodes = (
(35,178,l),
(35,179,l),
(655,179,l),
(548,0,l),
(142,0,l)
);
}
);
width = 690;
}
);
metricRight = "=|";
unicode = 115;
},
{
glyphname = germandbls;
lastChange = "2021-11-18 15:37:10 +0000";
layers = (
{
attr = {
color = 1;
};
layerId = "33AE93C6-B8B3-427A-A53B-F24970E840CE";
shapes = (
{
attr = {
gradient = {
colors = (
(
(64,255),
0
),
(
(128,255),
1
)
);
end = (0.522,0.9968);
start = (0.4393,0.0388);
};
};
closed = 1;
nodes = (
(122,776,l),
(77,776,l),
(77,800,l),
(122,800,l)
);
},
{
attr = {
gradient = {
colors = (
(
(191,255),
0
),
(
(64,255),
1
)
);
end = (0.3759,0.0091);
start = (0.4447,0.6672);
};
};
closed = 1;
nodes = (
(122,397,l),
(122,800,l),
(123,800,l),
(146,777,l),
(146,397,l)
);
},
{
attr = {
gradient = {
colors = (
(
(64,255),
0
),
(
(191,255),
1
)
);
end = (0.2671,0.5486);
start = (0.937,0.3463);
};
};
closed = 1;
nodes = (
(145,373,l),
(122,396,l),
(122,397,l),
(186,397,l),
(186,373,l)
);
},
{
attr = {
gradient = {
colors = (
(
(191,255),
0
),
(
(64,255),
1
)
);
end = (0.8192,0.8813);
start = (0.9081,0.0871);
};
};
closed = 1;
nodes = (
(187,0,l),
(186,0,l),
(186,397,l),
(187,397,l),
(210,374,l),
(210,23,l)
);
},
{
attr = {
gradient = {
colors = (
(
(64,255),
0
),
(
(191,255),
1
)
);
end = (0.4877,0.9217);
start = (0.4155,-0.0037);
};
};
closed = 1;
nodes = (
(76,800,l),
(77,800,l),
(77,-200,l),
(53,-200,l),
(53,777,l)
);
},
{
attr = {
gradient = {
colors = (
(
(64,255),
0
),
(
(191,255),
1
)
);
end = (0.1636,0.9918);
start = (0.9225,0.2287);
};
};
closed = 1;
nodes = (
(124,0,l),
(147,24,l),
(186,24,l),
(186,0,l)
);
}
);
width = 273;
},
{
attr = {
color = 1;
};
layerId = "E87239EE-82B8-404C-B23A-53843E270889";
shapes = (
{
attr = {
gradient = {
colors = (
(
(64,255),
0
),
(
(128,255),
1
)
);
end = (0.522,0.9968);
start = (0.4393,0.0388);
};
};
closed = 1;
nodes = (
(414,556,l),
(279,556,l),
(279,800,l),
(414,800,l)
);
},
{
attr = {
gradient = {
colors = (
(
(191,255),
0
),
(
(64,255),
1
)
);
end = (0.3759,0.0091);
start = (0.4447,0.6672);
};
};
closed = 1;
nodes = (
(414,507,l),
(414,800,l),
(415,800,l),
(688,603,l),
(688,416,l)
);
},
{
attr = {
gradient = {
colors = (
(
(64,255),
0
),
(
(191,255),
1
)
);
end = (0.3103,0.7788);
start = (0.9832,0.4844);
};
};
closed = 1;
nodes = (
(527,263,l),
(414,506,l),
(414,507,l),
(688,507,l),
(688,263,l)
);
},
{
attr = {
gradient = {
colors = (
(
(191,255),
0
),
(
(64,255),
1
)
);
end = (0.8878,0.5878);
start = (0.0693,0.513);
};
};
closed = 1;
nodes = (
(689,0,l),
(688,0,l),
(688,507,l),
(689,507,l),
(942,314,l),
(942,193,l)
);
},
{
attr = {
gradient = {
colors = (
(
(64,255),
0
),
(
(191,255),
1
)
);
end = (0.4877,0.9217);
start = (0.4155,-0.0037);
};
};
closed = 1;
nodes = (
(278,800,l),
(279,800,l),
(279,-200,l),
(25,-200,l),
(25,693,l)
);
},
{
attr = {
gradient = {
colors = (
(
(64,255),
0
),
(
(191,255),
1
)
);
end = (0.1636,0.9918);
start = (0.6848,0.1052);
};
};
closed = 1;
nodes = (
(333,0,l),
(415,244,l),
(688,244,l),
(688,0,l)
);
}
);
width = 967;
}
);
unicode = 223;
},
{
glyphname = t;
lastChange = "2021-11-27 10:39:07 +0000";
layers = (
{
anchors = (
{
name = bottom;
pos = (117,0);
},
{
name = top;
pos = (103,500);
}
);
attr = {
color = 1;
};
layerId = "33AE93C6-B8B3-427A-A53B-F24970E840CE";
shapes = (
{
attr = {
gradient = {
colors = (
(
(64,255),
0
),
(
(191,255),
1
)
);
end = (0.2987,0.5719);
start = (0.9984,0.812);
};
};
closed = 1;
nodes = (
(131,500,l),
(131,476,l),
(54,476,l),
(77,500,l)
);
},
{
attr = {
gradient = {
colors = (
(
(191,255),
0
),
(
(64,255),
1
)
);
end = (0.7047,0.9664);
start = (0.4975,0.0797);
};
};
closed = 1;
nodes = (
(53,476,l),
(77,476,l),
(77,0,l),
(76,0,l),
(53,23,l)
);
},
{
attr = {
gradient = {
colors = (
(
(191,255),
0
),
(
(64,255),
1
)
);
end = (0.086,0.0815);
start = (0.863,0.8719);
};
};
closed = 1;
nodes = (
(77,0,l),
(77,24,l),
(170,24,l),
(170,23,l),
(147,0,l)
);
},
{
attr = {
gradient = {
colors = (
(
(191,255),
0
),
(
(64,255),
1
)
);
end = (0.4773,0.3265);
start = (0.3882,0.9444);
};
};
closed = 1;
nodes = (
(54,476,l),
(53,476,l),
(53,670,l),
(77,670,l),
(77,500,l)
);
}
);
width = 174;
},
{
anchors = (
{
name = bottom;
pos = (335,0);
},
{
name = top;
pos = (452,530);
}
);
attr = {
color = 1;
};
layerId = "E87239EE-82B8-404C-B23A-53843E270889";
shapes = (
{
attr = {
gradient = {
colors = (
(
(64,255),
0
),
(
(191,255),
1
)
);
end = (0.1375,0.9202);
start = (0.9984,0.812);
};
};
closed = 1;
nodes = (
(493,530,l),
(493,326,l),
(36,326,l),
(249,530,l)
);
},
{
attr = {
gradient = {
colors = (
(
(191,255),
0
),
(
(64,255),
1
)
);
end = (0.7047,0.9664);
start = (0.4975,0.0797);
};
};
closed = 1;
nodes = (
(35,326,l),
(249,326,l),
(249,0,l),
(248,0,l),
(35,107,l)
);
},
{
attr = {
gradient = {
colors = (
(
(191,255),
0
),
(
(64,255),
1
)
);
end = (0.0345,0.7875);
start = (0.9042,0.1573);
};
};
closed = 1;
nodes = (
(249,0,l),
(249,204,l),
(572,204,l),
(572,203,l),
(549,0,l)
);
},
{
attr = {
gradient = {
colors = (
(
(64,255),
0
),
(
(191,255),
1
)
);
end = (0.0672,0.9641);
start = (0.4641,0.0518);
};
};
closed = 1;
nodes = (
(36,326,l),
(35,326,l),
(35,703,l),
(249,703,l),
(249,530,l)
);
}
);
width = 607;
}
);
unicode = 116;
},
{
glyphname = u;
lastChange = "2021-11-16 15:18:46 +0000";
layers = (
{
anchors = (
{
name = bottom;
pos = (105,0);
},
{
name = horn;
pos = (126,500);
},
{
name = top;
pos = (103,500);
}
);
attr = {
color = 1;
};
layerId = "33AE93C6-B8B3-427A-A53B-F24970E840CE";
shapes = (
{
attr = {
gradient = {
colors = (
(
(191,255),
0
),
(
(64,255),
1
)
);
end = (0.4877,0.9217);
start = (0.4155,-0.0037);
};
};
closed = 1;
nodes = (
(127,0,l),
(126,0,l),
(126,500,l),
(150,500,l),
(150,0,l)
);
},
{
attr = {
gradient = {
colors = (
(
(191,255),
0
),
(
(64,255),
1
)
);
end = (0.8878,0.5878);
start = (0.0693,0.513);
};
};
closed = 1;
nodes = (
(53,23,l),
(53,24,l),
(126,24,l),
(126,0,l),
(76,0,l)
);
},
{
attr = {
gradient = {
colors = (
(
(191,255),
0
),
(
(64,255),
1
)
);
end = (0.4056,0.1204);
start = (0.4192,0.8964);
};
};
closed = 1;
nodes = (
(76,506,l),
(77,506,l),
(77,24,l),
(53,24,l),
(53,483,l)
);
}
);
width = 203;
},
{
anchors = (
{
name = bottom;
pos = (422,0);
},
{
name = horn;
pos = (772,530);
},
{
name = top;
pos = (422,530);
}
);
attr = {
color = 1;
};
layerId = "E87239EE-82B8-404C-B23A-53843E270889";
shapes = (
{
attr = {
gradient = {
colors = (
(
(191,255),
0
),
(
(64,255),
1
)
);
end = (0.4877,0.9217);
start = (0.4155,-0.0037);
};
};
closed = 1;
nodes = (
(559,0,l),
(558,0,l),
(558,530,l),
(772,530,l),
(772,0,l)
);
},
{
attr = {
gradient = {
colors = (
(
(191,255),
0
),
(
(64,255),
1
)
);
end = (0.8878,0.5878);
start = (0.0693,0.513);
};
};
closed = 1;
nodes = (
(35,203,l),
(35,204,l),
(558,204,l),
(558,0,l),
(142,0,l)
);
},
{
attr = {
gradient = {
colors = (
(
(191,255),
0
),
(
(64,255),
1
)
);
end = (0.4056,0.1204);
start = (0.4192,0.8964);
};
};
closed = 1;
nodes = (
(248,536,l),
(249,536,l),
(249,204,l),
(35,204,l),
(35,489,l)
);
}
);
width = 807;
}
);
metricRight = "=|";
unicode = 117;
},
{
glyphname = v;
lastChange = "2021-11-03 19:08:35 +0000";
layers = (
{
attr = {
color = 1;
};
layerId = "33AE93C6-B8B3-427A-A53B-F24970E840CE";
shapes = (
{
attr = {
gradient = {
colors = (
(
(191,255),
0
),
(
(64,255),
1
)
);
end = (0.4877,0.9217);
start = (0.4155,-0.0037);
};
};
closed = 1;
nodes = (
(127,0,l),
(126,0,l),
(126,500,l),
(150,500,l),
(150,23,l)
);
},
{
attr = {
gradient = {
colors = (
(
(191,255),
0
),
(
(64,255),
1
)
);
end = (0.4056,0.1204);
start = (0.4192,0.8964);
};
};
closed = 1;
nodes = (
(76,503,l),
(77,503,l),
(77,24,l),
(53,24,l),
(53,480,l)
);
},
{
attr = {
gradient = {
colors = (
(
(191,255),
0
),
(
(64,255),
1
)
);
end = (0.8878,0.5878);
start = (0.0693,0.513);
};
};
closed = 1;
nodes = (
(53,23,l),
(53,24,l),
(126,24,l),
(126,0,l),
(76,0,l)
);
}
);
width = 203;
},
{
attr = {
color = 1;
};
layerId = "E87239EE-82B8-404C-B23A-53843E270889";
shapes = (
{
attr = {
gradient = {
colors = (
(
(64,255),
0
),
(
(191,255),
1
)
);
end = (0.4877,0.9217);
start = (0.4155,-0.0037);
};
};
closed = 1;
nodes = (
(529,1,l),
(528,1,l),
(528,531,l),
(742,531,l),
(742,205,l)
);
},
{
attr = {
gradient = {
colors = (
(
(191,255),
0
),
(
(64,255),
1
)
);
end = (0.4056,0.1204);
start = (0.4192,0.8964);
};
};
closed = 1;
nodes = (
(228,531,l),
(229,531,l),
(229,205,l),
(35,205,l),
(35,531,l)
);
},
{
attr = {
gradient = {
colors = (
(
(191,255),
0
),
(
(64,255),
1
)
);
end = (0.8878,0.5878);
start = (0.1301,0.513);
};
};
closed = 1;
nodes = (
(35,204,l),
(35,205,l),
(528,205,l),
(528,1,l),
(102,1,l)
);
}
);
width = 777;
}
);
metricRight = "=|";
unicode = 118;
},
{
glyphname = w;
lastChange = "2021-11-12 17:30:09 +0000";
layers = (
{
anchors = (
{
name = top;
pos = (143,500);
}
);
attr = {
color = 1;
};
layerId = "33AE93C6-B8B3-427A-A53B-F24970E840CE";
shapes = (
{
attr = {
gradient = {
colors = (
(
(191,255),
0
),
(
(64,255),
1
)
);
end = (0.4877,0.9217);
start = (0.4155,-0.0037);
};
};
closed = 1;
nodes = (
(200,0,l),
(199,0,l),
(199,500,l),
(223,500,l),
(223,23,l)
);
},
{
attr = {
gradient = {
colors = (
(
(191,255),
0
),
(
(64,255),
1
)
);
end = (0.4056,0.1204);
start = (0.4192,0.8964);
};
};
closed = 1;
nodes = (
(149,503,l),
(150,503,l),
(150,24,l),
(126,24,l),
(126,480,l)
);
},
{
attr = {
gradient = {
colors = (
(
(191,255),
0
),
(
(64,255),
1
)
);
end = (0.4056,0.1204);
start = (0.4192,0.8964);
};
};
closed = 1;
nodes = (
(76,503,l),
(77,503,l),
(77,24,l),
(53,24,l),
(53,480,l)
);
},
{
attr = {
gradient = {
colors = (
(
(191,255),
0
),
(
(64,255),
1
)
);
end = (0.8878,0.5878);
start = (0.0693,0.513);
};
};
closed = 1;
nodes = (
(53,23,l),
(53,24,l),
(126,24,l),
(126,0,l),
(76,0,l)
);
},
{
attr = {
gradient = {
colors = (
(
(191,255),
0
),
(
(64,255),
1
)
);
end = (0.8878,0.5878);
start = (0.0693,0.513);
};
};
closed = 1;
nodes = (
(126,23,l),
(126,24,l),
(199,24,l),
(199,0,l),
(149,0,l)
);
}
);
width = 276;
},
{
anchors = (
{
name = top;
pos = (601,530);
}
);
attr = {
color = 1;
};
layerId = "E87239EE-82B8-404C-B23A-53843E270889";
shapes = (
{
attr = {
gradient = {
colors = (
(
(191,255),
0
),
(
(64,255),
1
)
);
end = (0.4877,0.9217);
start = (0.4155,-0.0037);
};
};
closed = 1;
nodes = (
(942,1,l),
(941,1,l),
(941,531,l),
(1155,531,l),
(1155,205,l)
);
},
{
attr = {
gradient = {
colors = (
(
(191,255),
0
),
(
(64,255),
1
)
);
end = (0.4056,0.1204);
start = (0.4192,0.8964);
};
};
closed = 1;
nodes = (
(691,531,l),
(692,531,l),
(692,205,l),
(498,205,l),
(498,531,l)
);
},
{
attr = {
gradient = {
colors = (
(
(191,255),
0
),
(
(64,255),
1
)
);
end = (0.4056,0.1204);
start = (0.4192,0.8964);
};
};
closed = 1;
nodes = (
(248,537,l),
(249,537,l),
(249,205,l),
(35,205,l),
(35,490,l)
);
},
{
attr = {
gradient = {
colors = (
(
(191,255),
0
),
(
(64,255),
1
)
);
end = (0.8878,0.5878);
start = (0.0693,0.513);
};
};
closed = 1;
nodes = (
(35,204,l),
(35,205,l),
(498,205,l),
(498,1,l),
(142,1,l)
);
},
{
attr = {
gradient = {
colors = (
(
(191,255),
0
),
(
(64,255),
1
)
);
end = (0.8878,0.5878);
start = (0.1301,0.513);
};
};
closed = 1;
nodes = (
(498,204,l),
(498,205,l),
(941,205,l),
(941,1,l),
(565,1,l)
);
}
);
width = 1190;
}
);
metricRight = "=|";
unicode = 119;
},
{
glyphname = x;
lastChange = "2021-11-07 09:48:48 +0000";
layers = (
{
attr = {
color = 1;
};
layerId = "33AE93C6-B8B3-427A-A53B-F24970E840CE";
shapes = (
{
attr = {
gradient = {
colors = (
(
(64,255),
0
),
(
(194,255),
1
)
);
end = (0.1166,0.52);
start = (0.8241,0.2591);
};
};
closed = 1;
nodes = (
(28,500,l),
(86,254,l),
(64,250,l),
(63,250,l),
(4,500,l)
);
},
{
attr = {
gradient = {
colors = (
(
(191,255),
0
),
(
(64,255),
1
)
);
end = (0.8623,0.9513);
start = (0.421,0);
};
};
closed = 1;
nodes = (
(87,250,l),
(64,250,l),
(114,500,l),
(138,500,l)
);
},
{
attr = {
gradient = {
colors = (
(
(191,255),
0
),
(
(64,255),
1
)
);
end = (0.1166,0.52);
start = (0.8241,0.2591);
};
};
closed = 1;
nodes = (
(121,0,l),
(64,246,l),
(86,250,l),
(87,250,l),
(145,0,l)
);
},
{
attr = {
gradient = {
colors = (
(
(64,255),
0
),
(
(191,255),
1
)
);
end = (0.6034,0.9513);
start = (0.223,0.0124);
};
};
closed = 1;
nodes = (
(63,250,l),
(86,250,l),
(35,0,l),
(11,0,l)
);
}
);
width = 149;
},
{
attr = {
color = 1;
};
layerId = "E87239EE-82B8-404C-B23A-53843E270889";
shapes = (
{
attr = {
gradient = {
colors = (
(
(64,255),
0
),
(
(194,255),
1
)
);
end = (0.1166,0.52);
start = (0.8241,0.2591);
};
};
closed = 1;
nodes = (
(318,530,l),
(455,400,l),
(303,265,l),
(302,265,l),
(44,530,l)
);
},
{
attr = {
gradient = {
colors = (
(
(191,255),
0
),
(
(64,255),
1
)
);
end = (0.8623,0.9513);
start = (0.1535,0.0507);
};
};
closed = 1;
nodes = (
(555,265,l),
(303,265,l),
(591,530,l),
(853,530,l)
);
},
{
attr = {
gradient = {
colors = (
(
(191,255),
0
),
(
(64,255),
1
)
);
end = (0.1166,0.52);
start = (0.8241,0.2591);
};
};
closed = 1;
nodes = (
(549,0,l),
(402,130,l),
(554,265,l),
(555,265,l),
(823,0,l)
);
},
{
attr = {
gradient = {
colors = (
(
(64,255),
0
),
(
(191,255),
1
)
);
end = (0.8238,0.9528);
start = (0.0768,0.0349);
};
};
closed = 1;
nodes = (
(302,265,l),
(554,265,l),
(266,0,l),
(4,0,l)
);
}
);
width = 857;
}
);
metricRight = "=|";
unicode = 120;
},
{
glyphname = y;
lastChange = "2021-11-12 17:30:57 +0000";
layers = (
{
anchors = (
{
name = bottom;
pos = (102,-200);
},
{
name = top;
pos = (103,500);
}
);
attr = {
color = 1;
};
layerId = "33AE93C6-B8B3-427A-A53B-F24970E840CE";
shapes = (
{
attr = {
gradient = {
colors = (
(
(191,255),
0
),
(
(64,255),
1
)
);
end = (0.8878,0.5878);
start = (0.0693,0.513);
};
};
closed = 1;
nodes = (
(53,23,l),
(53,24,l),
(126,24,l),
(126,0,l),
(76,0,l)
);
},
{
attr = {
gradient = {
colors = (
(
(64,255),
0
),
(
(191,255),
1
)
);
end = (0.4056,0.1204);
start = (0.4192,0.8964);
};
};
closed = 1;
nodes = (
(127,-200,l),
(126,-200,l),
(126,500,l),
(150,500,l),
(149,-177,l)
);
},
{
attr = {
gradient = {
colors = (
(
(191,255),
0
),
(
(64,255),
1
)
);
end = (0.4056,0.1204);
start = (0.4192,0.8964);
};
};
closed = 1;
nodes = (
(76,503,l),
(77,503,l),
(77,24,l),
(53,24,l),
(53,477,l)
);
},
{
attr = {
gradient = {
colors = (
(
(191,255),
0
),
(
(64,255),
1
)
);
end = (0.7799,0.5059);
start = (-0.193,1.5214);
};
};
closed = 1;
nodes = (
(53,-177,l),
(53,-176,l),
(126,-176,l),
(126,-200,l),
(53,-200,l)
);
}
);
width = 203;
},
{
anchors = (
{
name = bottom;
pos = (422,-200);
},
{
name = top;
pos = (422,530);
}
);
attr = {
color = 1;
};
layerId = "E87239EE-82B8-404C-B23A-53843E270889";
shapes = (
{
attr = {
gradient = {
colors = (
(
(191,255),
0
),
(
(64,255),
1
)
);
end = (0.8878,0.5878);
start = (0.0693,0.513);
};
};
closed = 1;
nodes = (
(35,203,l),
(35,204,l),
(529,204,l),
(529,0,l),
(142,0,l)
);
},
{
attr = {
gradient = {
colors = (
(
(64,255),
0
),
(
(191,255),
0.55524
),
(
(64,255),
1
)
);
end = (0.1611,1.0201);
start = (0.8544,-0.1436);
};
};
closed = 1;
nodes = (
(531,-200,l),
(530,-200,l),
(530,530,l),
(744,530,l),
(744,-98,l)
);
},
{
attr = {
gradient = {
colors = (
(
(191,255),
0
),
(
(64,255),
1
)
);
end = (0.4056,0.1204);
start = (0.4192,0.8964);
};
};
closed = 1;
nodes = (
(248,536,l),
(249,536,l),
(249,204,l),
(35,204,l),
(35,489,l)
);
},
{
attr = {
gradient = {
colors = (
(
(191,255),
0
),
(
(64,255),
1
)
);
end = (0.8878,0.5878);
start = (0.0693,0.513);
};
};
closed = 1;
nodes = (
(35,-21,l),
(35,-20,l),
(530,-20,l),
(530,-200,l),
(137,-200,l)
);
}
);
width = 779;
}
);
unicode = 121;
},
{
glyphname = z;
lastChange = "2021-11-10 15:00:04 +0000";
layers = (
{
anchors = (
{
name = top;
pos = (113,500);
}
);
attr = {
color = 1;
};
layerId = "33AE93C6-B8B3-427A-A53B-F24970E840CE";
shapes = (
{
attr = {
gradient = {
colors = (
(
(191,255),
0
),
(
(64,255),
1
)
);
end = (0.8878,0.5878);
start = (0.0693,0.513);
};
};
closed = 1;
nodes = (
(156,500,l),
(153,476,l),
(53,476,l),
(53,477,l),
(53,500,l)
);
},
{
attr = {
gradient = {
colors = (
(
(64,255),
0
),
(
(191,255),
1
)
);
end = (0.1006,0.9261);
start = (0.8563,0.0865);
};
};
closed = 1;
nodes = (
(53,24,l),
(53,25,l),
(156,500,l),
(179,467,l),
(76,24,l)
);
},
{
attr = {
gradient = {
colors = (
(
(191,255),
0
),
(
(64,255),
1
)
);
end = (0.9403,0.817);
start = (0.0693,0.513);
};
};
closed = 1;
nodes = (
(76,0,l),
(53,24,l),
(179,24,l),
(179,23,l),
(179,0,l)
);
}
);
width = 202;
},
{
anchors = (
{
name = top;
pos = (422,530);
}
);
attr = {
color = 1;
};
layerId = "E87239EE-82B8-404C-B23A-53843E270889";
shapes = (
{
attr = {
gradient = {
colors = (
(
(191,255),
0
),
(
(64,255),
1
)
);
end = (0.5665,-0.135);
start = (0.1353,1.0072);
};
};
closed = 1;
nodes = (
(678,530,l),
(652,351,l),
(41,351,l),
(41,352,l),
(148,530,l)
);
},
{
attr = {
gradient = {
colors = (
(
(64,255),
0
),
(
(191,255),
1
)
);
end = (0.8927,1.0894);
start = (0.4509,0.1311);
};
};
closed = 1;
nodes = (
(35,179,l),
(35,180,l),
(678,530,l),
(768,365,l),
(278,149,l)
);
},
{
attr = {
gradient = {
colors = (
(
(191,255),
0
),
(
(64,255),
1
)
);
end = (0.8799,0.3164);
start = (-0.0095,0.8379);
};
};
closed = 1;
nodes = (
(142,0,l),
(35,179,l),
(762,179,l),
(762,178,l),
(762,0,l)
);
}
);
width = 803;
}
);
metricRight = "=|";
unicode = 122;
},
{
glyphname = zero;
lastChange = "2021-11-16 13:10:50 +0000";
layers = (
{
attr = {
color = 1;
};
layerId = "33AE93C6-B8B3-427A-A53B-F24970E840CE";
shapes = (
{
attr = {
gradient = {
colors = (
(
(64,255),
0
),
(
(191,255),
0.51152
),
(
(64,255),
1
)
);
end = (0.1006,0.9261);
start = (0.8563,0.0865);
};
};
closed = 1;
nodes = (
(70,652,l),
(93,652,l),
(223,25,l),
(223,24,l),
(200,24,l)
);
},
{
attr = {
gradient = {
colors = (
(
(64,255),
0
),
(
(191,255),
1
)
);
end = (0.4877,0.9217);
start = (0.453,0.0037);
};
};
closed = 1;
nodes = (
(76,670,l),
(77,670,l),
(77,24,l),
(53,24,l),
(53,647,l)
);
},
{
attr = {
gradient = {
colors = (
(
(64,255),
0
),
(
(191,255),
1
)
);
end = (0.8878,0.5878);
start = (0.0693,0.513);
};
};
closed = 1;
nodes = (
(237,647,l),
(237,646,l),
(77,646,l),
(77,670,l),
(214,670,l)
);
},
{
attr = {
gradient = {
colors = (
(
(64,255),
0
),
(
(191,255),
1
)
);
end = (0.4056,0.1204);
start = (0.4192,0.8964);
};
};
closed = 1;
nodes = (
(214,0,l),
(213,0,l),
(213,646,l),
(237,646,l),
(237,23,l)
);
},
{
attr = {
gradient = {
colors = (
(
(191,255),
0
),
(
(64,255),
1
)
);
end = (0.8878,0.5878);
start = (0.0693,0.513);
};
};
closed = 1;
nodes = (
(53,23,l),
(53,24,l),
(213,24,l),
(213,0,l),
(76,0,l)
);
}
);
width = 290;
},
{
attr = {
color = 1;
};
layerId = "E87239EE-82B8-404C-B23A-53843E270889";
shapes = (
{
attr = {
gradient = {
colors = (
(
(64,255),
0
),
(
(191,255),
0.51152
),
(
(64,255),
1
)
);
end = (0.2109,1.1876);
start = (0.6346,-0.1395);
};
};
closed = 1;
nodes = (
(197,456,l),
(400,456,l),
(642,245,l),
(439,244,l)
);
},
{
attr = {
gradient = {
colors = (
(
(64,255),
0
),
(
(191,255),
1
)
);
end = (0.4877,0.9217);
start = (0.4155,-0.0037);
};
};
closed = 1;
nodes = (
(278,700,l),
(279,700,l),
(279,244,l),
(25,244,l),
(25,493,l)
);
},
{
attr = {
gradient = {
colors = (
(
(64,255),
0
),
(
(191,255),
1
)
);
end = (0.8878,0.5878);
start = (0.0693,0.513);
};
};
closed = 1;
nodes = (
(775,457,l),
(775,456,l),
(279,456,l),
(279,700,l),
(573,700,l)
);
},
{
attr = {
gradient = {
colors = (
(
(64,255),
0
),
(
(191,255),
1
)
);
end = (0.4056,0.1204);
start = (0.4192,0.8964);
};
};
closed = 1;
nodes = (
(522,0,l),
(521,0,l),
(521,456,l),
(775,456,l),
(775,197,l)
);
},
{
attr = {
gradient = {
colors = (
(
(191,255),
0
),
(
(64,255),
1
)
);
end = (0.8878,0.5878);
start = (0.0693,0.513);
};
};
closed = 1;
nodes = (
(25,243,l),
(25,244,l),
(521,244,l),
(521,0,l),
(227,0,l)
);
}
);
width = 800;
}
);
metricRight = "=|";
unicode = 48;
},
{
glyphname = one;
lastChange = "2021-12-06 17:11:15 +0000";
layers = (
{
attr = {
color = 1;
};
layerId = "33AE93C6-B8B3-427A-A53B-F24970E840CE";
shapes = (
{
attr = {
gradient = {
colors = (
(
(64,255),
0.01
),
(
(191,255),
1
)
);
end = (0.5457,0.9842);
start = (0.9656,0.0453);
};
};
closed = 1;
nodes = (
(167,670,l),
(168,670,l),
(168,24,l),
(145,0,l),
(144,0,l),
(144,646,l)
);
},
{
attr = {
gradient = {
colors = (
(
(64,255),
0
),
(
(191,255),
1
)
);
end = (0.7658,0.909);
start = (0.089,0.1962);
};
};
closed = 1;
nodes = (
(63,646,l),
(63,670,l),
(167,670,l),
(144,646,l)
);
},
{
attr = {
gradient = {
colors = (
(
(64,255),
0
),
(
(191,255),
1
)
);
end = (0.9719,0.4393);
start = (0.1431,0.6404);
};
};
closed = 1;
nodes = (
(237,24,l),
(237,0,l),
(145,0,l),
(168,24,l)
);
},
{
attr = {
gradient = {
colors = (
(
(191,255),
0
),
(
(64,255),
1
)
);
end = (0.7658,0.909);
start = (0.21,0.0899);
};
};
closed = 1;
nodes = (
(144,24,l),
(144,0,l),
(54,0,l),
(54,24,l)
);
}
);
width = 290;
},
{
attr = {
color = 1;
};
layerId = "E87239EE-82B8-404C-B23A-53843E270889";
shapes = (
{
attr = {
gradient = {
colors = (
(
(191,255),
0
),
(
(64,255),
1
)
);
end = (0.6746,0.2057);
start = (-0.022,0.6501);
};
};
closed = 1;
nodes = (
(501,730,l),
(553,730,l),
(553,244,l),
(351,0,l),
(298,0,l),
(299,486,l)
);
},
{
attr = {
gradient = {
colors = (
(
(64,255),
0
),
(
(191,255),
1
)
);
end = (0.8801,0.7274);
start = (0.0295,0.395);
};
};
closed = 1;
nodes = (
(105,486,l),
(105,730,l),
(501,730,l),
(299,486,l)
);
},
{
attr = {
gradient = {
colors = (
(
(191,255),
0
),
(
(64,255),
1
)
);
end = (0.1134,0.2082);
start = (0.9801,0.7122);
};
};
closed = 1;
nodes = (
(775,244,l),
(775,0,l),
(351,0,l),
(553,244,l)
);
},
{
attr = {
gradient = {
colors = (
(
(64,255),
0
),
(
(191,255),
1
)
);
end = (0.0138,0.304);
start = (0.9791,0.7352);
};
};
closed = 1;
nodes = (
(298,244,l),
(298,0,l),
(25,1,l),
(25,244,l)
);
}
);
width = 800;
}
);
unicode = 49;
},
{
glyphname = two;
lastChange = "2021-12-06 17:12:58 +0000";
layers = (
{
attr = {
color = 1;
};
layerId = "33AE93C6-B8B3-427A-A53B-F24970E840CE";
shapes = (
{
attr = {
gradient = {
colors = (
(
(191,255),
0
),
(
(64,255),
1
)
);
end = (0.8878,0.5878);
start = (0.0693,0.513);
};
};
closed = 1;
nodes = (
(196,670,l),
(193,646,l),
(63,646,l),
(63,647,l),
(86,670,l)
);
},
{
attr = {
gradient = {
colors = (
(
(64,255),
0
),
(
(191,255),
1
)
);
end = (0.1006,0.9261);
start = (0.8563,0.0865);
};
};
closed = 1;
nodes = (
(63,24,l),
(63,25,l),
(196,670,l),
(219,637,l),
(86,24,l)
);
},
{
attr = {
gradient = {
colors = (
(
(191,255),
0
),
(
(64,255),
1
)
);
end = (0.9403,0.817);
start = (0.0693,0.513);
};
};
closed = 1;
nodes = (
(63,0,l),
(63,24,l),
(219,24,l),
(219,23,l),
(219,0,l)
);
}
);
width = 290;
},
{
attr = {
color = 1;
};
layerId = "E87239EE-82B8-404C-B23A-53843E270889";
shapes = (
{
attr = {
gradient = {
colors = (
(
(191,255),
0
),
(
(64,255),
1
)
);
end = (0.5665,-0.135);
start = (0.1353,1.0072);
};
};
closed = 1;
nodes = (
(629,730,l),
(603,486,l),
(25,486,l),
(25,487,l),
(227,730,l)
);
},
{
attr = {
gradient = {
colors = (
(
(64,255),
0
),
(
(191,255),
1
)
);
end = (0.8927,1.0894);
start = (0.4509,0.1311);
};
};
closed = 1;
nodes = (
(31,244,l),
(31,245,l),
(629,730,l),
(769,535,l),
(324,119,l)
);
},
{
attr = {
gradient = {
colors = (
(
(191,255),
0
),
(
(64,255),
1
)
);
end = (0.9726,0.891);
start = (-0.0344,0.0083);
};
};
closed = 1;
nodes = (
(31,0,l),
(31,244,l),
(775,244,l),
(775,243,l),
(775,0,l)
);
}
);
width = 800;
}
);
unicode = 50;
},
{
glyphname = three;
lastChange = "2021-12-06 17:13:10 +0000";
layers = (
{
attr = {
color = "1";
};
layerId = "33AE93C6-B8B3-427A-A53B-F24970E840CE";
shapes = (
{
attr = {
gradient = {
colors = (
(
(64,255),
0
),
(
(191,255),
1
)
);
end = (0.1006,0.9261);
start = (0.8563,0.0865);
};
};
closed = 1;
nodes = (
(201,427,l),
(201,670,l),
(202,670,l),
(224,637,l),
(224,427,l)
);
},
{
attr = {
gradient = {
colors = (
(
(191,255),
0
),
(
(64,255),
1
)
);
end = (0.8878,0.5878);
start = (0.0693,0.513);
};
};
closed = 1;
nodes = (
(201,670,l),
(201,646,l),
(53,646,l),
(53,647,l),
(76,670,l)
);
},
{
attr = {
gradient = {
colors = (
(
(64,255),
0.01851
),
(
(191,255),
0.51668
),
(
(64,255),
1
)
);
end = (0.7698,0.0614);
start = (0.7249,1.046);
};
};
closed = 1;
nodes = (
(202,0,l),
(201,0,l),
(201,427,l),
(202,427,l),
(225,403,l),
(225,24,l)
);
},
{
attr = {
gradient = {
colors = (
(
(191,255),
0
),
(
(64,255),
1
)
);
end = (0.8618,0.4739);
start = (0.2695,1.1005);
};
};
closed = 1;
nodes = (
(73,427,l),
(201,427,l),
(201,403,l),
(73,403,l)
);
},
{
attr = {
gradient = {
colors = (
(
(191,255),
0
),
(
(64,255),
1
)
);
end = (0.8946,0.2729);
start = (0.3294,0.7263);
};
};
closed = 1;
nodes = (
(43,23,l),
(43,24,l),
(201,24,l),
(201,23,l),
(201,0,l),
(66,0,l)
);
}
);
width = 290;
},
{
attr = {
color = 1;
};
layerId = "E87239EE-82B8-404C-B23A-53843E270889";
shapes = (
{
attr = {
gradient = {
colors = (
(
(191,255),
0
),
(
(64,255),
1
)
);
end = (0.646,0.005);
start = (0.7453,0.9016);
};
};
closed = 1;
nodes = (
(521,366,l),
(521,730,l),
(522,730,l),
(775,523,l),
(775,366,l)
);
},
{
attr = {
gradient = {
colors = (
(
(191,255),
0
),
(
(64,255),
1
)
);
end = (0.0015,0.5492);
start = (0.9295,0.5322);
};
};
closed = 1;
nodes = (
(521,730,l),
(521,486,l),
(25,486,l),
(25,487,l),
(227,730,l)
);
},
{
attr = {
gradient = {
colors = (
(
(191,255),
0
),
(
(64,255),
1
)
);
end = (0.9989,0.5204);
start = (-0.0137,0.5628);
};
};
closed = 1;
nodes = (
(522,0,l),
(521,0,l),
(521,466,l),
(522,466,l),
(775,269,l),
(775,193,l)
);
},
{
attr = {
gradient = {
colors = (
(
(191,255),
0
),
(
(64,255),
1
)
);
end = (0.8878,0.5878);
start = (0.0693,0.513);
};
};
closed = 1;
nodes = (
(126,466,l),
(521,466,l),
(521,262,l),
(126,262,l)
);
},
{
attr = {
gradient = {
colors = (
(
(191,255),
0
),
(
(64,255),
1
)
);
end = (0.8878,0.5878);
start = (0.0693,0.513);
};
};
closed = 1;
nodes = (
(25,243,l),
(25,244,l),
(521,244,l),
(521,243,l),
(521,0,l),
(227,0,l)
);
}
);
width = 800;
}
);
unicode = 51;
},
{
glyphname = four;
lastChange = "2021-11-09 14:13:37 +0000";
layers = (
{
attr = {
color = 1;
};
layerId = "33AE93C6-B8B3-427A-A53B-F24970E840CE";
shapes = (
{
attr = {
gradient = {
colors = (
(
(191,255),
0
),
(
(64,255),
1
)
);
end = (0.8878,0.5878);
start = (0.0693,0.513);
};
};
closed = 1;
nodes = (
(76,274,l),
(79,298,l),
(213,298,l),
(213,274,l)
);
},
{
attr = {
gradient = {
colors = (
(
(64,255),
0
),
(
(191,255),
1
)
);
end = (0.1006,0.9261);
start = (0.8563,0.0865);
};
};
closed = 1;
nodes = (
(207,670,l),
(207,669,l),
(76,274,l),
(53,307,l),
(184,670,l)
);
},
{
attr = {
gradient = {
colors = (
(
(64,255),
0.01851
),
(
(191,255),
0.51668
),
(
(64,255),
1
)
);
end = (0.7698,0.0614);
start = (0.7249,1.046);
};
};
closed = 1;
nodes = (
(213,0,l),
(213,427,l),
(214,427,l),
(237,403,l),
(237,0,l)
);
}
);
width = 290;
},
{
attr = {
color = 1;
};
layerId = "E87239EE-82B8-404C-B23A-53843E270889";
shapes = (
{
attr = {
gradient = {
colors = (
(
(191,255),
0
),
(
(64,255),
1
)
);
end = (0.5665,-0.135);
start = (0.1353,1.0072);
};
};
closed = 1;
nodes = (
(195,173,l),
(221,417,l),
(521,417,l),
(521,173,l)
);
},
{
attr = {
gradient = {
colors = (
(
(64,255),
0
),
(
(191,255),
1
)
);
end = (0.8927,1.0894);
start = (0.4509,0.1311);
};
};
closed = 1;
nodes = (
(637,730,l),
(637,729,l),
(195,173,l),
(25,368,l),
(367,730,l)
);
},
{
attr = {
gradient = {
colors = (
(
(64,255),
0
),
(
(191,255),
1
)
);
end = (0.4877,0.9217);
start = (0.4155,-0.0037);
};
};
closed = 1;
nodes = (
(521,0,l),
(521,530,l),
(522,530,l),
(775,323,l),
(775,0,l)
);
}
);
width = 800;
}
);
unicode = 52;
},
{
glyphname = five;
lastChange = "2021-11-08 23:21:43 +0000";
layers = (
{
attr = {
color = 1;
};
layerId = "33AE93C6-B8B3-427A-A53B-F24970E840CE";
shapes = (
{
attr = {
gradient = {
colors = (
(
(64,255),
0
),
(
(191,255),
1
)
);
end = (0.5946,0.9299);
start = (0.5615,0.0647);
};
};
closed = 1;
nodes = (
(96,670,l),
(97,670,l),
(97,427,l),
(96,427,l),
(73,427,l),
(73,670,l)
);
},
{
attr = {
gradient = {
colors = (
(
(64,255),
0
),
(
(191,255),
1
)
);
end = (0.8904,0.6031);
start = (0.1059,0.2968);
};
};
closed = 1;
nodes = (
(220,647,l),
(220,646,l),
(97,646,l),
(97,670,l),
(220,670,l)
);
},
{
attr = {
gradient = {
colors = (
(
(64,255),
0.01851
),
(
(191,255),
0.51668
),
(
(64,255),
1
)
);
end = (0.7698,0.0614);
start = (0.7249,1.046);
};
};
closed = 1;
nodes = (
(214,0,l),
(213,0,l),
(213,427,l),
(214,427,l),
(237,403,l),
(237,24,l)
);
},
{
attr = {
gradient = {
colors = (
(
(191,255),
0
),
(
(64,255),
1
)
);
end = (0.8618,0.4739);
start = (0.2695,1.1005);
};
};
closed = 1;
nodes = (
(73,427,l),
(213,427,l),
(213,404,l),
(213,403,l),
(73,403,l)
);
},
{
attr = {
gradient = {
colors = (
(
(191,255),
0
),
(
(64,255),
1
)
);
end = (0.8946,0.2729);
start = (0.3294,0.7263);
};
};
closed = 1;
nodes = (
(53,23,l),
(53,24,l),
(213,24,l),
(213,23,l),
(213,0,l),
(76,0,l)
);
}
);
width = 290;
},
{
attr = {
color = 1;
};
layerId = "E87239EE-82B8-404C-B23A-53843E270889";
shapes = (
{
attr = {
gradient = {
colors = (
(
(191,255),
0
),
(
(64,255),
1
)
);
end = (0.646,0.005);
start = (0.7453,0.9016);
};
};
closed = 1;
nodes = (
(338,700,l),
(339,700,l),
(339,502,l),
(338,502,l),
(85,502,l),
(85,700,l)
);
},
{
attr = {
gradient = {
colors = (
(
(191,255),
0
),
(
(64,255),
1
)
);
end = (0.0015,0.5492);
start = (0.9295,0.5322);
};
};
closed = 1;
nodes = (
(725,523,l),
(725,522,l),
(339,522,l),
(339,700,l),
(725,700,l)
);
},
{
attr = {
gradient = {
colors = (
(
(191,255),
0
),
(
(64,255),
1
)
);
end = (0.9989,0.5204);
start = (-0.0137,0.5628);
};
};
closed = 1;
nodes = (
(522,0,l),
(521,0,l),
(521,502,l),
(522,502,l),
(775,325,l),
(775,187,l)
);
},
{
attr = {
gradient = {
colors = (
(
(191,255),
0
),
(
(64,255),
1
)
);
end = (0.8878,0.5878);
start = (0.0693,0.513);
};
};
closed = 1;
nodes = (
(85,502,l),
(521,502,l),
(521,263,l),
(521,262,l),
(85,262,l)
);
},
{
attr = {
gradient = {
colors = (
(
(191,255),
0
),
(
(64,255),
1
)
);
end = (0.8878,0.5878);
start = (0.0693,0.513);
};
};
closed = 1;
nodes = (
(25,243,l),
(25,244,l),
(521,244,l),
(521,243,l),
(521,0,l),
(227,0,l)
);
}
);
width = 800;
}
);
unicode = 53;
},
{
glyphname = six;
lastChange = "2021-11-08 23:21:46 +0000";
layers = (
{
attr = {
color = 1;
};
layerId = "33AE93C6-B8B3-427A-A53B-F24970E840CE";
shapes = (
{
attr = {
gradient = {
colors = (
(
(64,255),
0
),
(
(191,255),
1
)
);
end = (0.5946,0.9299);
start = (0.5615,0.0647);
};
};
closed = 1;
nodes = (
(76,670,l),
(77,670,l),
(77,377,l),
(53,377,l),
(53,647,l)
);
},
{
attr = {
gradient = {
colors = (
(
(64,255),
0
),
(
(191,255),
1
)
);
end = (0.8904,0.6031);
start = (0.1059,0.2968);
};
};
closed = 1;
nodes = (
(220,647,l),
(220,646,l),
(77,646,l),
(77,670,l),
(197,670,l)
);
},
{
attr = {
gradient = {
colors = (
(
(64,255),
0.01851
),
(
(191,255),
0.51668
),
(
(64,255),
1
)
);
end = (0.7698,0.0614);
start = (0.7249,1.046);
};
};
closed = 1;
nodes = (
(214,0,l),
(213,0,l),
(213,377,l),
(214,377,l),
(237,353,l),
(237,24,l)
);
},
{
attr = {
gradient = {
colors = (
(
(191,255),
0
),
(
(64,255),
1
)
);
end = (0.8618,0.4739);
start = (0.2695,1.1005);
};
};
closed = 1;
nodes = (
(53,376,l),
(53,377,l),
(213,377,l),
(213,354,l),
(213,353,l),
(77,353,l)
);
},
{
attr = {
gradient = {
colors = (
(
(191,255),
0
),
(
(64,255),
1
)
);
end = (0.8946,0.2729);
start = (0.3294,0.7263);
};
};
closed = 1;
nodes = (
(53,23,l),
(53,24,l),
(213,24,l),
(213,23,l),
(213,0,l),
(76,0,l)
);
},
{
attr = {
gradient = {
colors = (
(
(64,255),
0
),
(
(191,255),
1
)
);
end = (0.5946,0.9299);
start = (0.5615,0.0647);
};
};
closed = 1;
nodes = (
(53,24,l),
(53,376,l),
(77,353,l),
(77,24,l)
);
}
);
width = 290;
},
{
attr = {
color = 1;
};
layerId = "E87239EE-82B8-404C-B23A-53843E270889";
shapes = (
{
attr = {
gradient = {
colors = (
(
(191,255),
0
),
(
(64,255),
1
)
);
end = (0.646,0.005);
start = (0.7453,0.9016);
};
};
closed = 1;
nodes = (
(278,730,l),
(279,730,l),
(279,466,l),
(25,466,l),
(25,523,l)
);
},
{
attr = {
gradient = {
colors = (
(
(191,255),
0
),
(
(64,255),
1
)
);
end = (0.0015,0.5492);
start = (0.9295,0.5322);
};
};
closed = 1;
nodes = (
(745,487,l),
(745,486,l),
(279,486,l),
(279,730,l),
(543,730,l)
);
},
{
attr = {
gradient = {
colors = (
(
(191,255),
0
),
(
(64,255),
1
)
);
end = (0.9989,0.5204);
start = (-0.0137,0.5628);
};
};
closed = 1;
nodes = (
(522,0,l),
(521,0,l),
(521,466,l),
(522,466,l),
(775,269,l),
(775,193,l)
);
},
{
attr = {
gradient = {
colors = (
(
(191,255),
0
),
(
(64,255),
1
)
);
end = (0.8878,0.5878);
start = (0.0693,0.513);
};
};
closed = 1;
nodes = (
(25,465,l),
(25,466,l),
(521,466,l),
(521,263,l),
(521,262,l),
(279,262,l)
);
},
{
attr = {
gradient = {
colors = (
(
(191,255),
0
),
(
(64,255),
1
)
);
end = (0.8878,0.5878);
start = (0.0693,0.513);
};
};
closed = 1;
nodes = (
(25,243,l),
(25,244,l),
(521,244,l),
(521,243,l),
(521,0,l),
(227,0,l)
);
},
{
attr = {
gradient = {
colors = (
(
(191,255),
0
),
(
(64,255),
1
)
);
end = (0.646,0.005);
start = (0.7453,0.9016);
};
};
closed = 1;
nodes = (
(25,244,l),
(25,465,l),
(279,262,l),
(279,244,l)
);
}
);
width = 800;
}
);
unicode = 54;
},
{
glyphname = seven;
lastChange = "2021-11-09 00:13:08 +0000";
layers = (
{
attr = {
color = 1;
};
layerId = "33AE93C6-B8B3-427A-A53B-F24970E840CE";
shapes = (
{
attr = {
gradient = {
colors = (
(
(191,255),
0
),
(
(64,255),
1
)
);
end = (0.8878,0.5878);
start = (0.0693,0.513);
};
};
closed = 1;
nodes = (
(214,670,l),
(211,646,l),
(53,646,l),
(53,647,l),
(53,670,l)
);
},
{
attr = {
gradient = {
colors = (
(
(64,255),
0
),
(
(191,255),
1
)
);
end = (0.1006,0.9261);
start = (0.8563,0.0865);
};
};
closed = 1;
nodes = (
(93,0,l),
(93,1,l),
(214,670,l),
(237,637,l),
(116,0,l)
);
}
);
width = 290;
},
{
attr = {
color = 1;
};
layerId = "E87239EE-82B8-404C-B23A-53843E270889";
shapes = (
{
attr = {
gradient = {
colors = (
(
(191,255),
0
),
(
(64,255),
1
)
);
end = (0.5665,-0.135);
start = (0.1353,1.0072);
};
};
closed = 1;
nodes = (
(605,730,l),
(579,486,l),
(25,486,l),
(25,487,l),
(25,730,l)
);
},
{
attr = {
gradient = {
colors = (
(
(64,255),
0
),
(
(191,255),
1
)
);
end = (0.8927,1.0894);
start = (0.4509,0.1311);
};
};
closed = 1;
nodes = (
(163,0,l),
(163,1,l),
(605,730,l),
(775,535,l),
(433,0,l)
);
}
);
width = 800;
}
);
unicode = 55;
},
{
glyphname = eight;
lastChange = "2021-11-09 14:31:01 +0000";
layers = (
{
attr = {
color = 1;
};
layerId = "33AE93C6-B8B3-427A-A53B-F24970E840CE";
shapes = (
{
attr = {
gradient = {
colors = (
(
(64,255),
0
),
(
(191,255),
1
)
);
end = (0.8904,0.6031);
start = (0.1059,0.2968);
};
};
closed = 1;
nodes = (
(200,646,l),
(90,646,l),
(90,670,l),
(200,670,l)
);
},
{
attr = {
gradient = {
colors = (
(
(191,255),
0
),
(
(64,255),
1
)
);
end = (0.8946,0.2729);
start = (0.3294,0.7263);
};
};
closed = 1;
nodes = (
(77,24,l),
(213,24,l),
(213,0,l),
(77,0,l)
);
},
{
attr = {
gradient = {
colors = (
(
(64,255),
0
),
(
(191,255),
1
)
);
end = (0.5946,0.9299);
start = (0.5615,0.0647);
};
};
closed = 1;
nodes = (
(89,670,l),
(90,670,l),
(90,377,l),
(66,377,l),
(66,647,l)
);
},
{
attr = {
gradient = {
colors = (
(
(64,255),
0
),
(
(191,255),
1
)
);
end = (0.5946,0.9299);
start = (0.5615,0.0647);
};
};
closed = 1;
nodes = (
(224,377,l),
(200,377,l),
(200,670,l),
(201,670,l),
(224,647,l)
);
},
{
attr = {
gradient = {
colors = (
(
(191,255),
0
),
(
(64,255),
1
)
);
end = (0.8618,0.4739);
start = (0.2695,1.1005);
};
};
closed = 1;
nodes = (
(77,377,l),
(213,377,l),
(213,353,l),
(77,353,l)
);
},
{
attr = {
gradient = {
colors = (
(
(64,255),
0.01851
),
(
(191,255),
0.51668
),
(
(64,255),
1
)
);
end = (0.7698,0.0614);
start = (0.7249,1.046);
};
};
closed = 1;
nodes = (
(214,0,l),
(213,0,l),
(213,377,l),
(214,377,l),
(237,353,l),
(237,24,l)
);
},
{
attr = {
gradient = {
colors = (
(
(64,255),
0.01851
),
(
(191,255),
0.51668
),
(
(64,255),
1
)
);
end = (0.7698,0.0614);
start = (0.7249,1.046);
};
};
closed = 1;
nodes = (
(53,353,l),
(76,377,l),
(77,377,l),
(77,0,l),
(76,0,l),
(53,24,l)
);
}
);
width = 290;
},
{
attr = {
color = 1;
};
layerId = "E87239EE-82B8-404C-B23A-53843E270889";
shapes = (
{
attr = {
gradient = {
colors = (
(
(191,255),
0
),
(
(64,255),
1
)
);
end = (0.0015,0.5492);
start = (0.9295,0.5322);
};
};
closed = 1;
nodes = (
(481,486,l),
(319,486,l),
(319,730,l),
(481,730,l)
);
},
{
attr = {
gradient = {
colors = (
(
(191,255),
0
),
(
(64,255),
1
)
);
end = (0.8878,0.5878);
start = (0.0693,0.513);
};
};
closed = 1;
nodes = (
(279,244,l),
(521,244,l),
(521,0,l),
(279,0,l)
);
},
{
attr = {
gradient = {
colors = (
(
(191,255),
0
),
(
(64,255),
1
)
);
end = (0.646,0.005);
start = (0.7453,0.9016);
};
};
closed = 1;
nodes = (
(318,730,l),
(319,730,l),
(319,366,l),
(65,366,l),
(65,523,l)
);
},
{
attr = {
gradient = {
colors = (
(
(191,255),
0
),
(
(64,255),
1
)
);
end = (0.646,0.005);
start = (0.7453,0.9016);
};
};
closed = 1;
nodes = (
(735,366,l),
(481,366,l),
(481,730,l),
(482,730,l),
(735,523,l)
);
},
{
attr = {
gradient = {
colors = (
(
(191,255),
0
),
(
(64,255),
1
)
);
end = (0.8878,0.5878);
start = (0.0693,0.513);
};
};
closed = 1;
nodes = (
(279,466,l),
(521,466,l),
(521,262,l),
(279,262,l)
);
},
{
attr = {
gradient = {
colors = (
(
(191,255),
0
),
(
(64,255),
1
)
);
end = (0.9989,0.5204);
start = (-0.0137,0.5628);
};
};
closed = 1;
nodes = (
(522,0,l),
(521,0,l),
(521,466,l),
(522,466,l),
(775,269,l),
(775,193,l)
);
},
{
attr = {
gradient = {
colors = (
(
(191,255),
0
),
(
(64,255),
1
)
);
end = (0.9989,0.5204);
start = (-0.0137,0.5628);
};
};
closed = 1;
nodes = (
(25,269,l),
(278,466,l),
(279,466,l),
(279,0,l),
(278,0,l),
(25,193,l)
);
}
);
width = 800;
}
);
unicode = 56;
},
{
glyphname = nine;
lastChange = "2021-11-09 00:09:21 +0000";
layers = (
{
attr = {
color = 1;
};
layerId = "33AE93C6-B8B3-427A-A53B-F24970E840CE";
shapes = (
{
attr = {
gradient = {
colors = (
(
(191,255),
0
),
(
(64,255),
1
)
);
end = (0.5946,0.9299);
start = (0.5615,0.0647);
};
};
closed = 1;
nodes = (
(214,0,l),
(213,0,l),
(213,646,l),
(237,646,l),
(237,23,l)
);
},
{
attr = {
gradient = {
colors = (
(
(191,255),
0
),
(
(64,255),
1
)
);
end = (0.8904,0.6031);
start = (0.1059,0.2968);
};
};
closed = 1;
nodes = (
(53,23,l),
(53,24,l),
(213,24,l),
(213,0,l),
(76,0,l)
);
},
{
attr = {
gradient = {
colors = (
(
(64,255),
0.01851
),
(
(191,255),
0.51668
),
(
(64,255),
1
)
);
end = (0.7698,0.0614);
start = (0.7249,1.046);
};
};
closed = 1;
nodes = (
(76,670,l),
(77,670,l),
(77,293,l),
(76,293,l),
(53,317,l),
(53,646,l)
);
},
{
attr = {
gradient = {
colors = (
(
(64,255),
0
),
(
(191,255),
1
)
);
end = (0.8618,0.4739);
start = (0.2695,1.1005);
};
};
closed = 1;
nodes = (
(213,293,l),
(77,293,l),
(77,316,l),
(77,317,l),
(213,317,l)
);
},
{
attr = {
gradient = {
colors = (
(
(64,255),
0
),
(
(191,255),
1
)
);
end = (0.8946,0.2729);
start = (0.3294,0.7263);
};
};
closed = 1;
nodes = (
(237,647,l),
(237,646,l),
(77,646,l),
(77,647,l),
(77,670,l),
(214,670,l)
);
}
);
width = 290;
},
{
attr = {
color = 1;
};
layerId = "E87239EE-82B8-404C-B23A-53843E270889";
shapes = (
{
attr = {
gradient = {
colors = (
(
(64,255),
0
),
(
(191,255),
1
)
);
end = (0.646,0.005);
start = (0.7453,0.9016);
};
};
closed = 1;
nodes = (
(522,0,l),
(521,0,l),
(521,486,l),
(775,486,l),
(775,207,l)
);
},
{
attr = {
gradient = {
colors = (
(
(64,255),
0
),
(
(191,255),
1
)
);
end = (0.0015,0.5492);
start = (0.9295,0.5322);
};
};
closed = 1;
nodes = (
(55,243,l),
(55,244,l),
(521,244,l),
(521,0,l),
(257,0,l)
);
},
{
attr = {
gradient = {
colors = (
(
(64,255),
0
),
(
(191,255),
1
)
);
end = (0.9989,0.5204);
start = (-0.0137,0.5628);
};
};
closed = 1;
nodes = (
(278,730,l),
(279,730,l),
(279,264,l),
(278,264,l),
(25,457,l),
(25,533,l)
);
},
{
attr = {
gradient = {
colors = (
(
(64,255),
0
),
(
(191,255),
1
)
);
end = (0.8878,0.5878);
start = (0.0693,0.513);
};
};
closed = 1;
nodes = (
(521,264,l),
(279,264,l),
(279,467,l),
(279,468,l),
(521,468,l)
);
},
{
attr = {
gradient = {
colors = (
(
(64,255),
0
),
(
(191,255),
1
)
);
end = (0.8878,0.5878);
start = (0.0693,0.513);
};
};
closed = 1;
nodes = (
(775,487,l),
(775,486,l),
(279,486,l),
(279,487,l),
(279,730,l),
(573,730,l)
);
}
);
width = 800;
}
);
unicode = 57;
},
{
glyphname = period;
lastChange = "2021-11-09 14:47:13 +0000";
layers = (
{
attr = {
color = 1;
};
layerId = "33AE93C6-B8B3-427A-A53B-F24970E840CE";
shapes = (
{
attr = {
gradient = {
colors = (
(
(191,255),
0
),
(
(64,255),
1
)
);
end = (1.0106,0.0609);
start = (0.045,0.9981);
};
};
closed = 1;
nodes = (
(53,0,l),
(53,24,l),
(84,24,l),
(84,0,l)
);
}
);
width = 137;
},
{
attr = {
color = 1;
};
layerId = "E87239EE-82B8-404C-B23A-53843E270889";
shapes = (
{
attr = {
gradient = {
colors = (
(
(191,255),
0
),
(
(64,255),
1
)
);
end = (0.8878,0.5878);
start = (0.0693,0.513);
};
};
closed = 1;
nodes = (
(25,0,l),
(25,204,l),
(257,204,l),
(257,0,l)
);
}
);
width = 282;
}
);
metricRight = "=|";
unicode = 46;
},
{
glyphname = comma;
lastChange = "2021-11-10 09:30:12 +0000";
layers = (
{
attr = {
color = 1;
};
layerId = "33AE93C6-B8B3-427A-A53B-F24970E840CE";
shapes = (
{
attr = {
gradient = {
colors = (
(
(191,255),
0
),
(
(64,255),
1
)
);
end = (1.0106,0.0609);
start = (0.1106,0.7427);
};
};
closed = 1;
nodes = (
(53,0,l),
(53,24,l),
(61,24,l),
(84,0,l)
);
},
{
attr = {
gradient = {
colors = (
(
(64,255),
0
),
(
(191,255),
1
)
);
end = (0.2224,-0.0167);
start = (0.3468,0.9821);
};
};
closed = 1;
nodes = (
(61,-91,l),
(60,-91,l),
(60,0,l),
(84,0,l),
(84,-68,l)
);
}
);
width = 137;
},
{
attr = {
color = 1;
};
layerId = "E87239EE-82B8-404C-B23A-53843E270889";
shapes = (
{
attr = {
gradient = {
colors = (
(
(191,255),
0
),
(
(64,255),
1
)
);
end = (-0.077,1.0138);
start = (0.8395,0.0631);
};
};
closed = 1;
nodes = (
(25,0,l),
(25,204,l),
(160,204,l),
(267,0,l)
);
},
{
attr = {
gradient = {
colors = (
(
(64,255),
0
),
(
(191,255),
1
)
);
end = (0.0856,-0.0485);
start = (0.4814,0.9343);
};
};
closed = 1;
nodes = (
(94,-200,l),
(93,-200,l),
(93,0,l),
(267,0,l),
(267,-93,l)
);
}
);
width = 292;
}
);
unicode = 44;
},
{
glyphname = exclam;
lastChange = "2021-11-09 16:01:06 +0000";
layers = (
{
attr = {
color = 1;
};
layerId = "33AE93C6-B8B3-427A-A53B-F24970E840CE";
shapes = (
{
ref = period;
},
{
attr = {
gradient = {
colors = (
(
(64,255),
0
),
(
(191,255),
1
)
);
end = (0.4056,0.1204);
start = (0.4192,0.8964);
};
};
closed = 1;
nodes = (
(76,703,l),
(77,703,l),
(77,104,l),
(53,104,l),
(53,680,l)
);
}
);
width = 137;
},
{
attr = {
color = 1;
};
layerId = "E87239EE-82B8-404C-B23A-53843E270889";
shapes = (
{
ref = period;
},
{
attr = {
gradient = {
colors = (
(
(64,255),
0
),
(
(191,255),
1
)
);
end = (0.4056,0.1204);
start = (0.4192,0.8964);
};
};
closed = 1;
nodes = (
(246,736,l),
(247,736,l),
(247,274,l),
(33,274,l),
(33,629,l)
);
}
);
width = 282;
}
);
unicode = 33;
},
{
glyphname = question;
lastChange = "2021-11-09 15:39:05 +0000";
layers = (
{
attr = {
color = 1;
};
layerId = "33AE93C6-B8B3-427A-A53B-F24970E840CE";
shapes = (
{
pos = (50,0);
ref = period;
},
{
attr = {
gradient = {
colors = (
(
(64,255),
0
),
(
(191,255),
1
)
);
end = (0.5946,0.9299);
start = (0.5615,0.0647);
};
};
closed = 1;
nodes = (
(200,277,l),
(177,277,l),
(176,277,l),
(176,700,l),
(177,700,l),
(200,677,l)
);
},
{
attr = {
gradient = {
colors = (
(
(191,255),
0
),
(
(64,255),
1
)
);
end = (0.8904,0.6031);
start = (0.1059,0.2968);
};
};
closed = 1;
nodes = (
(176,700,l),
(176,676,l),
(53,676,l),
(53,677,l),
(76,700,l)
);
},
{
attr = {
gradient = {
colors = (
(
(191,255),
0.01851
),
(
(64,255),
1
)
);
end = (0.2778,0.0283);
start = (0.8064,0.9328);
};
};
closed = 1;
nodes = (
(106,253,l),
(129,277,l),
(130,277,l),
(130,104,l),
(106,104,l)
);
},
{
attr = {
gradient = {
colors = (
(
(64,255),
0
),
(
(191,255),
1
)
);
end = (0.8618,0.4739);
start = (0.0434,0.8461);
};
};
closed = 1;
nodes = (
(130,253,l),
(130,277,l),
(200,277,l),
(200,276,l),
(177,253,l)
);
}
);
width = 253;
},
{
attr = {
color = 1;
};
layerId = "E87239EE-82B8-404C-B23A-53843E270889";
shapes = (
{
pos = (201,0);
ref = period;
},
{
attr = {
gradient = {
colors = (
(
(191,255),
0
),
(
(64,255),
1
)
);
end = (0.646,0.005);
start = (0.7453,0.9016);
};
};
closed = 1;
nodes = (
(872,466,l),
(619,466,l),
(618,466,l),
(618,730,l),
(619,730,l),
(872,523,l)
);
},
{
attr = {
gradient = {
colors = (
(
(64,255),
0
),
(
(191,255),
1
)
);
end = (0.0015,0.5492);
start = (0.9295,0.5322);
};
};
closed = 1;
nodes = (
(618,730,l),
(618,486,l),
(25,486,l),
(25,487,l),
(227,730,l)
);
},
{
attr = {
gradient = {
colors = (
(
(191,255),
0
),
(
(64,255),
1
)
);
end = (0.0535,0.0054);
start = (0.9508,0.9519);
};
};
closed = 1;
nodes = (
(215,269,l),
(468,466,l),
(469,466,l),
(469,232,l),
(215,232,l)
);
},
{
attr = {
gradient = {
colors = (
(
(64,255),
0
),
(
(191,255),
1
)
);
end = (0.8878,0.5878);
start = (0.0693,0.513);
};
};
closed = 1;
nodes = (
(469,262,l),
(469,466,l),
(872,466,l),
(872,465,l),
(670,262,l)
);
}
);
width = 897;
}
);
unicode = 63;
},
{
glyphname = slash;
lastChange = "2021-12-06 16:51:46 +0000";
layers = (
{
layerId = "33AE93C6-B8B3-427A-A53B-F24970E840CE";
shapes = (
{
attr = {
gradient = {
colors = (
(
(64,255),
0
),
(
(191,255),
0.51152
),
(
(64,255),
1
)
);
end = (0.1006,0.9261);
start = (0.8563,0.0865);
};
};
closed = 1;
nodes = (
(221,699,l),
(76,0,l),
(53,0,l),
(53,1,l),
(198,700,l),
(221,700,l)
);
}
);
width = 274;
},
{
layerId = "E87239EE-82B8-404C-B23A-53843E270889";
shapes = (
{
attr = {
gradient = {
colors = (
(
(64,255),
0
),
(
(191,255),
1
)
);
end = (0.8878,0.5878);
start = (0.0693,0.513);
};
};
closed = 1;
nodes = (
(623,729,l),
(229,0,l),
(25,0,l),
(25,1,l),
(419,730,l),
(623,730,l)
);
}
);
width = 648;
}
);
unicode = 47;
},
{
glyphname = hyphen;
lastChange = "2021-12-06 17:33:11 +0000";
layers = (
{
layerId = "33AE93C6-B8B3-427A-A53B-F24970E840CE";
shapes = (
{
attr = {
gradient = {
colors = (
(
(64,255),
0
),
(
(191,255),
1
)
);
end = (0.8878,0.5878);
start = (0.0693,0.513);
};
};
closed = 1;
nodes = (
(53,323,l),
(53,357,l),
(128,357,l),
(128,356,l),
(128,323,l)
);
}
);
width = 181;
},
{
layerId = "E87239EE-82B8-404C-B23A-53843E270889";
shapes = (
{
attr = {
gradient = {
colors = (
(
(64,255),
0
),
(
(191,255),
1
)
);
end = (0.8878,0.5878);
start = (0.0693,0.513);
};
};
closed = 1;
nodes = (
(25,263,l),
(25,467,l),
(385,467,l),
(385,264,l),
(385,263,l)
);
}
);
width = 410;
}
);
metricRight = "=|";
unicode = 45;
},
{
glyphname = endash;
lastChange = "2021-11-19 10:43:27 +0000";
layers = (
{
layerId = "33AE93C6-B8B3-427A-A53B-F24970E840CE";
shapes = (
{
attr = {
gradient = {
colors = (
(
(64,255),
0
),
(
(191,255),
1
)
);
end = (0.8878,0.5878);
start = (0.0693,0.513);
};
};
closed = 1;
nodes = (
(53,358,l),
(53,382,l),
(138,382,l),
(138,381,l),
(138,358,l)
);
}
);
width = 191;
},
{
layerId = "E87239EE-82B8-404C-B23A-53843E270889";
shapes = (
{
attr = {
gradient = {
colors = (
(
(64,255),
0
),
(
(191,255),
1
)
);
end = (0.8878,0.5878);
start = (0.0693,0.513);
};
};
closed = 1;
nodes = (
(25,183,l),
(25,367,l),
(585,367,l),
(585,184,l),
(585,183,l)
);
}
);
width = 610;
}
);
metricRight = "=|";
unicode = 8211;
},
{
glyphname = emdash;
lastChange = "2021-11-19 10:43:29 +0000";
layers = (
{
layerId = "33AE93C6-B8B3-427A-A53B-F24970E840CE";
shapes = (
{
attr = {
gradient = {
colors = (
(
(64,255),
0
),
(
(191,255),
1
)
);
end = (0.8878,0.5878);
start = (0.0693,0.513);
};
};
closed = 1;
nodes = (
(53,358,l),
(53,382,l),
(223,382,l),
(223,381,l),
(223,358,l)
);
}
);
width = 276;
},
{
layerId = "E87239EE-82B8-404C-B23A-53843E270889";
shapes = (
{
attr = {
gradient = {
colors = (
(
(64,255),
0
),
(
(191,255),
1
)
);
end = (0.8878,0.5878);
start = (0.0693,0.513);
};
};
closed = 1;
nodes = (
(25,183,l),
(25,367,l),
(1145,367,l),
(1145,184,l),
(1145,183,l)
);
}
);
width = 1170;
}
);
metricRight = "=|";
unicode = 8212;
},
{
glyphname = underscore;
lastChange = "2021-11-19 10:43:03 +0000";
layers = (
{
layerId = "33AE93C6-B8B3-427A-A53B-F24970E840CE";
shapes = (
{
attr = {
gradient = {
colors = (
(
(64,255),
0
),
(
(191,255),
1
)
);
end = (0.8878,0.5878);
start = (0.0693,0.513);
};
};
closed = 1;
nodes = (
(53,-24,l),
(53,0,l),
(223,0,l),
(223,-1,l),
(223,-24,l)
);
}
);
width = 276;
},
{
layerId = "E87239EE-82B8-404C-B23A-53843E270889";
shapes = (
{
attr = {
gradient = {
colors = (
(
(64,255),
0
),
(
(191,255),
1
)
);
end = (0.8878,0.5878);
start = (0.0693,0.513);
};
};
closed = 1;
nodes = (
(25,-184,l),
(25,0,l),
(1145,0,l),
(1145,-183,l),
(1145,-184,l)
);
}
);
width = 1170;
}
);
metricRight = "=|";
unicode = 95;
},
{
glyphname = parenleft;
lastChange = "2021-11-19 11:09:58 +0000";
layers = (
{
layerId = "33AE93C6-B8B3-427A-A53B-F24970E840CE";
shapes = (
{
attr = {
gradient = {
colors = (
(
(64,255),
0
),
(
(191,255),
1
)
);
end = (0.5074,0.9658);
start = (0.6091,0.0797);
};
};
closed = 1;
nodes = (
(76,670,l),
(77,670,l),
(77,44,l),
(53,54,l),
(53,657,l)
);
},
{
attr = {
gradient = {
colors = (
(
(64,255),
0
),
(
(191,255),
1
)
);
end = (0.8878,0.5878);
start = (0.0693,0.513);
};
};
closed = 1;
nodes = (
(77,646,l),
(77,670,l),
(167,700,l),
(167,699,l),
(167,676,l)
);
},
{
attr = {
gradient = {
colors = (
(
(191,255),
0
),
(
(64,255),
1
)
);
end = (0.8878,0.5878);
start = (0.0693,0.513);
};
};
closed = 1;
nodes = (
(53,46,l),
(53,53,l),
(53,69,l),
(167,24,l),
(167,0,l)
);
}
);
width = 220;
},
{
layerId = "E87239EE-82B8-404C-B23A-53843E270889";
shapes = (
{
attr = {
gradient = {
colors = (
(
(64,255),
0
),
(
(191,255),
1
)
);
end = (0.4877,0.9217);
start = (0.4155,-0.0037);
};
};
closed = 1;
nodes = (
(278,730,l),
(279,730,l),
(279,244,l),
(25,244,l),
(25,523,l)
);
},
{
attr = {
gradient = {
colors = (
(
(64,255),
0
),
(
(191,255),
1
)
);
end = (0.713,0.9264);
start = (0.0306,0.307);
};
};
closed = 1;
nodes = (
(279,486,l),
(279,730,l),
(540,730,l),
(540,729,l),
(540,486,l)
);
},
{
attr = {
gradient = {
colors = (
(
(64,255),
0
),
(
(191,255),
1
)
);
end = (0.2497,0.9606);
start = (0.5205,-0.1117);
};
};
closed = 1;
nodes = (
(227,0,l),
(25,243,l),
(25,244,l),
(540,244,l),
(540,0,l)
);
}
);
width = 600;
}
);
unicode = 40;
},
{
glyphname = bracketleft;
lastChange = "2021-11-19 09:31:50 +0000";
layers = (
{
attr = {
color = 1;
};
layerId = "33AE93C6-B8B3-427A-A53B-F24970E840CE";
shapes = (
{
attr = {
gradient = {
colors = (
(
(64,255),
0
),
(
(191,255),
1
)
);
end = (0.5074,0.9658);
start = (0.6091,0.0797);
};
};
closed = 1;
nodes = (
(76,700,l),
(77,700,l),
(77,24,l),
(53,24,l),
(53,700,l)
);
},
{
attr = {
gradient = {
colors = (
(
(64,255),
0
),
(
(191,255),
1
)
);
end = (0.8878,0.5878);
start = (0.0693,0.513);
};
};
closed = 1;
nodes = (
(77,676,l),
(77,700,l),
(167,700,l),
(167,699,l),
(167,676,l)
);
},
{
attr = {
gradient = {
colors = (
(
(191,255),
0
),
(
(64,255),
1
)
);
end = (0.8878,0.5878);
start = (0.0693,0.513);
};
};
closed = 1;
nodes = (
(53,0,l),
(53,23,l),
(53,24,l),
(167,24,l),
(167,0,l)
);
}
);
width = 220;
},
{
attr = {
color = 1;
};
layerId = "E87239EE-82B8-404C-B23A-53843E270889";
shapes = (
{
attr = {
gradient = {
colors = (
(
(64,255),
0
),
(
(191,255),
1
)
);
end = (0.4877,0.9217);
start = (0.4155,-0.0037);
};
};
closed = 1;
nodes = (
(278,730,l),
(279,730,l),
(279,244,l),
(25,244,l),
(25,730,l)
);
},
{
attr = {
gradient = {
colors = (
(
(64,255),
0
),
(
(191,255),
1
)
);
end = (0.713,0.9264);
start = (0.0306,0.307);
};
};
closed = 1;
nodes = (
(279,486,l),
(279,730,l),
(540,730,l),
(540,729,l),
(540,486,l)
);
},
{
attr = {
gradient = {
colors = (
(
(64,255),
0
),
(
(191,255),
1
)
);
end = (0.2497,0.9606);
start = (0.5205,-0.1117);
};
};
closed = 1;
nodes = (
(25,0,l),
(25,243,l),
(25,244,l),
(540,244,l),
(540,0,l)
);
}
);
width = 565;
}
);
unicode = 91;
},
{
glyphname = at;
lastChange = "2021-11-19 08:46:11 +0000";
layers = (
{
attr = {
color = 1;
};
layerId = "33AE93C6-B8B3-427A-A53B-F24970E840CE";
shapes = (
{
attr = {
gradient = {
colors = (
(
(64,255),
0
),
(
(191,255),
1
)
);
end = (0.4877,0.9217);
start = (0.4155,-0.0037);
};
};
closed = 1;
nodes = (
(176,500,l),
(177,500,l),
(177,24,l),
(153,24,l),
(153,477,l)
);
},
{
attr = {
gradient = {
colors = (
(
(64,255),
0
),
(
(191,255),
1
)
);
end = (0.8878,0.5878);
start = (0.0693,0.513);
};
};
closed = 1;
nodes = (
(250,477,l),
(250,476,l),
(177,476,l),
(177,500,l),
(227,500,l)
);
},
{
attr = {
gradient = {
colors = (
(
(64,255),
0
),
(
(191,255),
1
)
);
end = (0.4056,0.1204);
start = (0.4192,0.8964);
};
};
closed = 1;
nodes = (
(226,24,l),
(226,476,l),
(250,476,l),
(250,0,l)
);
},
{
attr = {
gradient = {
colors = (
(
(191,255),
0
),
(
(64,255),
1
)
);
end = (0.8878,0.5878);
start = (0.0693,0.513);
};
};
closed = 1;
nodes = (
(153,23,l),
(153,24,l),
(226,24,l),
(226,0,l),
(176,0,l)
);
},
{
attr = {
gradient = {
colors = (
(
(64,255),
0
),
(
(191,255),
1
)
);
end = (0.4877,0.9217);
start = (0.4155,-0.0037);
};
};
closed = 1;
nodes = (
(350,24,l),
(326,24,l),
(326,570,l),
(327,570,l),
(350,547,l)
);
},
{
attr = {
gradient = {
colors = (
(
(191,255),
0
),
(
(64,255),
1
)
);
end = (0.8878,0.5878);
start = (0.0693,0.513);
};
};
closed = 1;
nodes = (
(326,570,l),
(326,546,l),
(53,546,l),
(53,547,l),
(76,570,l)
);
},
{
attr = {
gradient = {
colors = (
(
(128,255),
0
),
(
(64,255),
1
)
);
end = (0.0482,0.8748);
start = (0.9562,0.1973);
};
};
closed = 1;
nodes = (
(77,24,l),
(126,24,l),
(126,0,l),
(77,0,l)
);
},
{
attr = {
gradient = {
colors = (
(
(64,255),
0
),
(
(191,255),
1
)
);
end = (0.8572,0.3678);
start = (0.0266,0.7894);
};
};
closed = 1;
nodes = (
(250,0,l),
(250,24,l),
(350,24,l),
(350,23,l),
(327,0,l)
);
},
{
attr = {
gradient = {
colors = (
(
(191,255),
0
),
(
(64,255),
1
)
);
end = (0.4877,0.9217);
start = (0.4155,-0.0037);
};
};
closed = 1;
nodes = (
(53,546,l),
(77,546,l),
(77,0,l),
(76,0,l),
(53,23,l)
);
}
);
width = 403;
},
{
attr = {
color = 1;
};
layerId = "E87239EE-82B8-404C-B23A-53843E270889";
shapes = (
{
attr = {
gradient = {
colors = (
(
(64,255),
0
),
(
(191,255),
1
)
);
end = (0.4877,0.9217);
start = (0.4155,-0.0037);
};
};
closed = 1;
nodes = (
(348,530,l),
(349,530,l),
(349,204,l),
(135,204,l),
(135,423,l)
);
},
{
attr = {
gradient = {
colors = (
(
(64,255),
0
),
(
(191,255),
1
)
);
end = (0.8878,0.5878);
start = (0.0693,0.513);
};
};
closed = 1;
nodes = (
(892,327,l),
(892,326,l),
(349,326,l),
(349,530,l),
(785,530,l)
);
},
{
attr = {
gradient = {
colors = (
(
(64,255),
0
),
(
(191,255),
1
)
);
end = (0.4056,0.1204);
start = (0.4192,0.8964);
};
};
closed = 1;
nodes = (
(678,204,l),
(678,326,l),
(892,326,l),
(892,0,l)
);
},
{
attr = {
gradient = {
colors = (
(
(191,255),
0
),
(
(64,255),
1
)
);
end = (0.8878,0.5878);
start = (0.0693,0.513);
};
};
closed = 1;
nodes = (
(135,203,l),
(135,204,l),
(678,204,l),
(678,0,l),
(242,0,l)
);
},
{
attr = {
gradient = {
colors = (
(
(64,255),
0
),
(
(191,255),
1
)
);
end = (0.4877,0.9217);
start = (0.4155,-0.0037);
};
};
closed = 1;
nodes = (
(990,24,l),
(966,24,l),
(966,630,l),
(967,630,l),
(990,607,l)
);
},
{
attr = {
gradient = {
colors = (
(
(191,255),
0
),
(
(64,255),
1
)
);
end = (0.8878,0.5878);
start = (0.0693,0.513);
};
};
closed = 1;
nodes = (
(966,630,l),
(966,606,l),
(53,606,l),
(53,607,l),
(76,630,l)
);
},
{
attr = {
gradient = {
colors = (
(
(128,255),
0
),
(
(64,255),
1
)
);
end = (0.0482,0.8748);
start = (0.9562,0.1973);
};
};
closed = 1;
nodes = (
(77,24,l),
(176,24,l),
(176,0,l),
(77,0,l)
);
},
{
attr = {
gradient = {
colors = (
(
(64,255),
0
),
(
(191,255),
1
)
);
end = (0.8572,0.3678);
start = (0.0266,0.7894);
};
};
closed = 1;
nodes = (
(892,0,l),
(892,24,l),
(990,24,l),
(990,23,l),
(967,0,l)
);
},
{
attr = {
gradient = {
colors = (
(
(191,255),
0
),
(
(64,255),
1
)
);
end = (0.4877,0.9217);
start = (0.4155,-0.0037);
};
};
closed = 1;
nodes = (
(53,606,l),
(77,606,l),
(77,0,l),
(76,0,l),
(53,23,l)
);
}
);
width = 1043;
}
);
unicode = 64;
},
{
glyphname = paragraph;
lastChange = "2021-11-19 11:27:38 +0000";
layers = (
{
attr = {
color = 1;
};
layerId = "33AE93C6-B8B3-427A-A53B-F24970E840CE";
shapes = (
{
attr = {
gradient = {
colors = (
(
(191,255),
0
),
(
(64,255),
1
)
);
end = (0.5946,0.9299);
start = (0.5615,0.0647);
};
};
closed = 1;
nodes = (
(277,676,l),
(277,0,l),
(253,0,l),
(253,676,l)
);
},
{
attr = {
gradient = {
colors = (
(
(191,255),
0
),
(
(64,255),
1
)
);
end = (0.257,0.9316);
start = (1.4423,0.1012);
};
};
closed = 1;
nodes = (
(221,0,l),
(197,0,l),
(197,676,l),
(221,676,l)
);
},
{
attr = {
gradient = {
colors = (
(
(191,255),
0
),
(
(64,255),
1
)
);
end = (0.8878,0.5878);
start = (0.0693,0.513);
};
};
closed = 1;
nodes = (
(53,376,l),
(53,377,l),
(197,377,l),
(197,353,l),
(76,353,l)
);
},
{
attr = {
gradient = {
colors = (
(
(191,255),
0
),
(
(64,255),
1
)
);
end = (0.4056,0.1204);
start = (0.4192,0.8964);
};
};
closed = 1;
nodes = (
(76,700,l),
(77,700,l),
(77,377,l),
(53,377,l),
(53,677,l)
);
},
{
attr = {
gradient = {
colors = (
(
(64,255),
0
),
(
(191,255),
1
)
);
end = (0.8878,0.5878);
start = (0.0693,0.513);
};
};
closed = 1;
nodes = (
(277,676,l),
(77,676,l),
(77,700,l),
(277,700,l)
);
}
);
width = 330;
},
{
attr = {
color = 1;
};
layerId = "E87239EE-82B8-404C-B23A-53843E270889";
shapes = (
{
attr = {
gradient = {
colors = (
(
(191,255),
0
),
(
(64,255),
1
)
);
end = (0.4877,0.9217);
start = (0.4155,-0.0037);
};
};
closed = 1;
nodes = (
(1028,486,l),
(1028,0,l),
(774,0,l),
(774,486,l)
);
},
{
attr = {
gradient = {
colors = (
(
(191,255),
0
),
(
(64,255),
1
)
);
end = (0.4877,0.9217);
start = (0.4155,-0.0037);
};
};
closed = 1;
nodes = (
(728,0,l),
(474,0,l),
(474,486,l),
(728,486,l)
);
},
{
attr = {
gradient = {
colors = (
(
(191,255),
0
),
(
(64,255),
1
)
);
end = (0.8878,0.5878);
start = (0.0693,0.513);
};
};
closed = 1;
nodes = (
(25,416,l),
(25,417,l),
(474,417,l),
(474,173,l),
(227,173,l)
);
},
{
attr = {
gradient = {
colors = (
(
(191,255),
0
),
(
(64,255),
1
)
);
end = (0.2746,0.29);
start = (0.4192,0.8964);
};
};
closed = 1;
nodes = (
(278,730,l),
(279,730,l),
(279,417,l),
(25,417,l),
(25,533,l)
);
},
{
attr = {
gradient = {
colors = (
(
(64,255),
0
),
(
(191,255),
1
)
);
end = (0.5991,0.0096);
start = (0.0791,0.6527);
};
};
closed = 1;
nodes = (
(1028,486,l),
(279,486,l),
(279,730,l),
(1028,730,l)
);
}
);
width = 1053;
}
);
unicode = 182;
},
{
glyphname = degree;
lastChange = "2021-11-19 09:35:48 +0000";
layers = (
{
attr = {
color = 1;
};
layerId = "33AE93C6-B8B3-427A-A53B-F24970E840CE";
shapes = (
{
attr = {
gradient = {
colors = (
(
(64,255),
0
),
(
(191,255),
1
)
);
end = (0.4877,0.9217);
start = (0.453,0.0037);
};
};
closed = 1;
nodes = (
(21,700,l),
(22,700,l),
(22,598,l),
(0,598,l),
(0,678,l)
);
},
{
attr = {
gradient = {
colors = (
(
(64,255),
0
),
(
(191,255),
1
)
);
end = (0.8878,0.5878);
start = (0.0693,0.513);
};
};
closed = 1;
nodes = (
(92,678,l),
(92,677,l),
(22,677,l),
(22,700,l),
(70,700,l)
);
},
{
attr = {
gradient = {
colors = (
(
(64,255),
0
),
(
(191,255),
1
)
);
end = (0.4056,0.1204);
start = (0.4192,0.8964);
};
};
closed = 1;
nodes = (
(70,575,l),
(69,575,l),
(69,677,l),
(92,677,l),
(92,597,l)
);
},
{
attr = {
gradient = {
colors = (
(
(191,255),
0
),
(
(64,255),
1
)
);
end = (0.8878,0.5878);
start = (0.0693,0.513);
};
};
closed = 1;
nodes = (
(0,597,l),
(0,598,l),
(69,598,l),
(69,575,l),
(21,575,l)
);
}
);
width = 145;
},
{
attr = {
color = 1;
};
layerId = "E87239EE-82B8-404C-B23A-53843E270889";
shapes = (
{
attr = {
gradient = {
colors = (
(
(64,255),
0
),
(
(191,255),
1
)
);
end = (0.4877,0.9217);
start = (0.4155,-0.0037);
};
};
closed = 1;
nodes = (
(115,800,l),
(115,800,l),
(115,637,l),
(0,637,l),
(0,726,l)
);
},
{
attr = {
gradient = {
colors = (
(
(64,255),
0
),
(
(191,255),
1
)
);
end = (0.8878,0.5878);
start = (0.0693,0.513);
};
};
closed = 1;
nodes = (
(391,699,l),
(391,699,l),
(115,699,l),
(115,800,l),
(319,800,l)
);
},
{
attr = {
gradient = {
colors = (
(
(64,255),
0
),
(
(191,255),
1
)
);
end = (0.4056,0.1204);
start = (0.4192,0.8964);
};
};
closed = 1;
nodes = (
(276,538,l),
(276,538,l),
(276,699,l),
(391,699,l),
(391,606,l)
);
},
{
attr = {
gradient = {
colors = (
(
(191,255),
0
),
(
(64,255),
1
)
);
end = (0.8878,0.5878);
start = (0.0693,0.513);
};
};
closed = 1;
nodes = (
(0,637,l),
(0,637,l),
(276,637,l),
(276,538,l),
(72,538,l)
);
}
);
width = 416;
}
);
unicode = 176;
},
{
glyphname = bar;
lastChange = "2021-11-19 09:38:04 +0000";
layers = (
{
layerId = "33AE93C6-B8B3-427A-A53B-F24970E840CE";
shapes = (
{
attr = {
gradient = {
colors = (
(
(64,255),
0
),
(
(191,255),
1
)
);
end = (0.5946,0.9299);
start = (0.5615,0.0647);
};
};
closed = 1;
nodes = (
(76,703,l),
(77,703,l),
(77,0,l),
(53,0,l),
(53,703,l)
);
}
);
width = 130;
},
{
layerId = "E87239EE-82B8-404C-B23A-53843E270889";
shapes = (
{
attr = {
gradient = {
colors = (
(
(64,255),
0
),
(
(191,255),
1
)
);
end = (0.4877,0.9217);
start = (0.4155,-0.0037);
};
};
closed = 1;
nodes = (
(78,736,l),
(79,736,l),
(79,0,l),
(25,0,l),
(25,736,l)
);
}
);
width = 104;
}
);
unicode = 124;
},
{
glyphname = brokenbar;
lastChange = "2021-11-19 09:39:57 +0000";
layers = (
{
layerId = "33AE93C6-B8B3-427A-A53B-F24970E840CE";
shapes = (
{
attr = {
gradient = {
colors = (
(
(64,255),
0
),
(
(191,255),
1
)
);
end = (0.5946,0.9299);
start = (0.5615,0.0647);
};
};
closed = 1;
nodes = (
(76,703,l),
(77,703,l),
(77,422,l),
(53,422,l),
(53,703,l)
);
},
{
attr = {
gradient = {
colors = (
(
(64,255),
0
),
(
(191,255),
1
)
);
end = (0.5946,0.9299);
start = (0.5615,0.0647);
};
};
closed = 1;
nodes = (
(76,281,l),
(77,281,l),
(77,0,l),
(53,0,l),
(53,281,l)
);
}
);
width = 130;
},
{
layerId = "E87239EE-82B8-404C-B23A-53843E270889";
shapes = (
{
attr = {
gradient = {
colors = (
(
(64,255),
0
),
(
(191,255),
1
)
);
end = (0.4877,0.9217);
start = (0.4155,-0.0037);
};
};
closed = 1;
nodes = (
(78,736,l),
(79,736,l),
(79,442,l),
(25,442,l),
(25,736,l)
);
},
{
attr = {
gradient = {
colors = (
(
(64,255),
0
),
(
(191,255),
1
)
);
end = (0.4877,0.9217);
start = (0.4155,-0.0037);
};
};
closed = 1;
nodes = (
(78,294,l),
(79,294,l),
(79,0,l),
(25,0,l),
(25,294,l)
);
}
);
width = 104;
}
);
unicode = 166;
},
{
glyphname = cedi;
lastChange = "2021-12-01 18:21:24 +0000";
layers = (
{
layerId = "33AE93C6-B8B3-427A-A53B-F24970E840CE";
shapes = (
{
ref = C;
},
{
attr = {
gradient = {
colors = (
(
(64,255),
0
),
(
(191,255),
1
)
);
end = (0.5946,0.9299);
start = (0.5615,0.0647);
};
};
closed = 1;
nodes = (
(136,756,l),
(137,756,l),
(138,357,l),
(137,357,l),
(114,357,l),
(113,733,l)
);
},
{
attr = {
gradient = {
colors = (
(
(64,255),
0
),
(
(191,255),
1
)
);
end = (0.5946,0.9299);
start = (0.5615,0.0647);
};
};
closed = 1;
nodes = (
(115,-54,l),
(114,-54,l),
(114,376,l),
(115,376,l),
(138,376,l),
(138,-31,l)
);
}
);
width = 273;
},
{
layerId = "E87239EE-82B8-404C-B23A-53843E270889";
shapes = (
{
ref = C;
},
{
attr = {
gradient = {
colors = (
(
(64,255),
0
),
(
(191,255),
1
)
);
end = (0.5946,0.9299);
start = (0.5615,0.0647);
};
};
closed = 1;
nodes = (
(522,786,l),
(523,786,l),
(524,487,l),
(523,487,l),
(400,487,l),
(399,763,l)
);
},
{
attr = {
gradient = {
colors = (
(
(64,255),
0
),
(
(191,255),
1
)
);
end = (0.5946,0.9299);
start = (0.5615,0.0647);
};
};
closed = 1;
nodes = (
(401,-54,l),
(400,-54,l),
(400,244,l),
(401,244,l),
(524,244,l),
(524,-31,l)
);
}
);
width = 927;
}
);
unicode = 8373;
},
{
glyphname = cent;
lastChange = "2021-11-19 09:20:04 +0000";
layers = (
{
layerId = "33AE93C6-B8B3-427A-A53B-F24970E840CE";
shapes = (
{
ref = c;
},
{
attr = {
gradient = {
colors = (
(
(64,255),
0
),
(
(191,255),
1
)
);
end = (0.5946,0.9299);
start = (0.5615,0.0647);
};
};
closed = 1;
nodes = (
(117,546,l),
(118,546,l),
(119,487,l),
(118,487,l),
(95,487,l),
(94,523,l)
);
},
{
attr = {
gradient = {
colors = (
(
(64,255),
0
),
(
(191,255),
1
)
);
end = (0.5946,0.9299);
start = (0.5615,0.0647);
};
};
closed = 1;
nodes = (
(96,-54,l),
(95,-54,l),
(95,16,l),
(96,16,l),
(119,16,l),
(119,-31,l)
);
}
);
width = 203;
},
{
layerId = "E87239EE-82B8-404C-B23A-53843E270889";
shapes = (
{
ref = c;
},
{
attr = {
gradient = {
colors = (
(
(64,255),
0
),
(
(191,255),
1
)
);
end = (0.5946,0.9299);
start = (0.5615,0.0647);
};
};
closed = 1;
nodes = (
(482,576,l),
(483,576,l),
(484,477,l),
(483,477,l),
(360,477,l),
(359,553,l)
);
},
{
attr = {
gradient = {
colors = (
(
(64,255),
0
),
(
(191,255),
1
)
);
end = (0.5946,0.9299);
start = (0.5615,0.0647);
};
};
closed = 1;
nodes = (
(361,-54,l),
(360,-54,l),
(360,34,l),
(361,34,l),
(484,34,l),
(484,-31,l)
);
}
);
width = 777;
}
);
unicode = 162;
},
{
glyphname = dollar;
lastChange = "2021-11-19 09:19:15 +0000";
layers = (
{
layerId = "33AE93C6-B8B3-427A-A53B-F24970E840CE";
shapes = (
{
ref = S;
},
{
attr = {
gradient = {
colors = (
(
(64,255),
0
),
(
(191,255),
1
)
);
end = (0.5946,0.9299);
start = (0.5615,0.0647);
};
};
closed = 1;
nodes = (
(136,756,l),
(137,756,l),
(138,357,l),
(137,357,l),
(114,357,l),
(113,733,l)
);
},
{
attr = {
gradient = {
colors = (
(
(64,255),
0
),
(
(191,255),
1
)
);
end = (0.5946,0.9299);
start = (0.5615,0.0647);
};
};
closed = 1;
nodes = (
(115,-54,l),
(114,-54,l),
(114,376,l),
(115,376,l),
(138,376,l),
(138,-31,l)
);
}
);
width = 253;
},
{
layerId = "E87239EE-82B8-404C-B23A-53843E270889";
shapes = (
{
ref = S;
},
{
attr = {
gradient = {
colors = (
(
(64,255),
0
),
(
(191,255),
1
)
);
end = (0.5946,0.9299);
start = (0.5615,0.0647);
};
};
closed = 1;
nodes = (
(522,786,l),
(523,786,l),
(524,487,l),
(523,487,l),
(400,487,l),
(399,763,l)
);
},
{
attr = {
gradient = {
colors = (
(
(64,255),
0
),
(
(191,255),
1
)
);
end = (0.5946,0.9299);
start = (0.5615,0.0647);
};
};
closed = 1;
nodes = (
(401,-54,l),
(400,-54,l),
(400,244,l),
(401,244,l),
(524,244,l),
(524,-31,l)
);
}
);
width = 897;
}
);
unicode = 36;
},
{
glyphname = euro;
lastChange = "2021-11-19 09:26:05 +0000";
layers = (
{
layerId = "33AE93C6-B8B3-427A-A53B-F24970E840CE";
shapes = (
{
pos = (55,0);
ref = C;
},
{
attr = {
gradient = {
colors = (
(
(64,255),
0
),
(
(191,255),
1
)
);
end = (0.5946,0.9299);
start = (0.5615,0.0647);
};
};
closed = 1;
nodes = (
(275,420,l),
(275,419,l),
(76,418,l),
(76,419,l),
(53,442,l),
(252,443,l)
);
},
{
attr = {
gradient = {
colors = (
(
(64,255),
0
),
(
(191,255),
1
)
);
end = (0.5946,0.9299);
start = (0.5615,0.0647);
};
};
closed = 1;
nodes = (
(275,331,l),
(275,330,l),
(76,329,l),
(76,330,l),
(53,353,l),
(252,354,l)
);
}
);
width = 328;
},
{
layerId = "E87239EE-82B8-404C-B23A-53843E270889";
shapes = (
{
pos = (65,0);
ref = C;
},
{
attr = {
gradient = {
colors = (
(
(64,255),
0
),
(
(191,255),
1
)
);
end = (0.5946,0.9299);
start = (0.5615,0.0647);
};
};
closed = 1;
nodes = (
(847,400,l),
(847,399,l),
(48,398,l),
(48,399,l),
(25,422,l),
(824,423,l)
);
},
{
attr = {
gradient = {
colors = (
(
(64,255),
0
),
(
(191,255),
1
)
);
end = (0.5946,0.9299);
start = (0.5615,0.0647);
};
};
closed = 1;
nodes = (
(847,311,l),
(847,310,l),
(48,309,l),
(48,310,l),
(25,333,l),
(824,334,l)
);
}
);
width = 992;
}
);
unicode = 8364;
},
